CommonSans-ExpandedRegular.ufo
<glyph name="dollar" format="2">
  <advance width="582"/>
  <unicode hex="0024"/>
  <outline>
    <contour>
      <point x="265" y="-80" type="line"/>
      <point x="345" y="-80" type="line"/>
      <point x="345" y="780" type="line"/>
      <point x="265" y="780" type="line"/>
    </contour>
    <contour>
      <point x="69" y="512" type="curve" smooth="yes"/>
      <point x="69" y="415"/>
      <point x="122" y="352"/>
      <point x="232" y="321" type="curve" smooth="yes"/>
      <point x="367" y="283" type="line" smooth="yes"/>
      <point x="410" y="271"/>
      <point x="452" y="238"/>
      <point x="452" y="191" type="curve" smooth="yes"/>
      <point x="452" y="120"/>
      <point x="391" y="86"/>
      <point x="322" y="86" type="curve" smooth="yes"/>
      <point x="310" y="86" type="line"/>
      <point x="310" y="-12" type="line"/>
      <point x="323" y="-12" type="line" smooth="yes"/>
      <point x="456" y="-12"/>
      <point x="552" y="60"/>
      <point x="552" y="191" type="curve" smooth="yes"/>
      <point x="552" y="295"/>
      <point x="481" y="352"/>
      <point x="379" y="382" type="curve" smooth="yes"/>
      <point x="241" y="421" type="line" smooth="yes"/>
      <point x="192" y="435"/>
      <point x="169" y="479"/>
      <point x="169" y="523" type="curve" smooth="yes"/>
      <point x="169" y="581"/>
      <point x="214" y="612"/>
      <point x="283" y="612" type="curve" smooth="yes"/>
      <point x="300" y="612" type="line"/>
      <point x="300" y="707" type="line"/>
      <point x="283" y="707" type="line" smooth="yes"/>
      <point x="157" y="707"/>
      <point x="69" y="625"/>
    </contour>
    <contour>
      <point x="330" y="612" type="line"/>
      <point x="342" y="612" type="line" smooth="yes"/>
      <point x="411" y="612"/>
      <point x="453" y="580"/>
      <point x="453" y="518" type="curve"/>
      <point x="553" y="518" type="line"/>
      <point x="553" y="633"/>
      <point x="459" y="707"/>
      <point x="343" y="707" type="curve" smooth="yes"/>
      <point x="330" y="707" type="line"/>
    </contour>
    <contour>
      <point x="61" y="194" type="line"/>
      <point x="61" y="63"/>
      <point x="148" y="-12"/>
      <point x="284" y="-12" type="curve" smooth="yes"/>
      <point x="297" y="-12" type="line"/>
      <point x="297" y="86" type="line"/>
      <point x="285" y="86" type="line" smooth="yes"/>
      <point x="222" y="86"/>
      <point x="161" y="115"/>
      <point x="161" y="194" type="curve"/>
    </contour>
  </outline>
</glyph>
<glyph name="ampersand" format="2">
  <advance width="699"/>
  <unicode hex="0026"/>
  <outline>
    <contour>
      <point x="38" y="191" type="curve" smooth="yes"/>
      <point x="38" y="74"/>
      <point x="131" y="-12"/>
      <point x="256" y="-12" type="curve" smooth="yes"/>
      <point x="439" y="-12"/>
      <point x="587" y="138"/>
      <point x="597" y="330" type="curve"/>
      <point x="505" y="330" type="line"/>
      <point x="495" y="167"/>
      <point x="397" y="64"/>
      <point x="262" y="64" type="curve" smooth="yes"/>
      <point x="189" y="64"/>
      <point x="130" y="122"/>
      <point x="130" y="199" type="curve" smooth="yes"/>
      <point x="130" y="261"/>
      <point x="168" y="307"/>
      <point x="282" y="372" type="curve" smooth="yes"/>
      <point x="345" y="408" type="line" smooth="yes"/>
      <point x="431" y="458"/>
      <point x="468" y="492"/>
      <point x="468" y="553" type="curve" smooth="yes"/>
      <point x="468" y="640"/>
      <point x="401" y="692"/>
      <point x="303" y="692" type="curve" smooth="yes"/>
      <point x="200" y="692"/>
      <point x="133" y="636"/>
      <point x="133" y="554" type="curve" smooth="yes"/>
      <point x="133" y="500"/>
      <point x="146" y="482"/>
      <point x="193" y="426" type="curve" smooth="yes"/>
      <point x="558" y="0" type="line"/>
      <point x="683" y="0" type="line"/>
      <point x="275" y="468" type="line" smooth="yes"/>
      <point x="238" y="511"/>
      <point x="225" y="530"/>
      <point x="225" y="558" type="curve" smooth="yes"/>
      <point x="225" y="596"/>
      <point x="254" y="620"/>
      <point x="298" y="620" type="curve" smooth="yes"/>
      <point x="345" y="620"/>
      <point x="376" y="595"/>
      <point x="376" y="553" type="curve" smooth="yes"/>
      <point x="376" y="518"/>
      <point x="356" y="506"/>
      <point x="290" y="469" type="curve" smooth="yes"/>
      <point x="229" y="435" type="line" smooth="yes"/>
      <point x="86" y="355"/>
      <point x="38" y="293"/>
    </contour>
  </outline>
</glyph>
<glyph name="asterisk" format="2">
  <advance width="543"/>
  <unicode hex="002A"/>
  <outline>
    <contour>
      <point x="66" y="725" type="line"/>
      <point x="265" y="667" type="line"/>
      <point x="270" y="677" type="line"/>
      <point x="115" y="814" type="line"/>
    </contour>
    <contour>
      <point x="155" y="498" type="line"/>
      <point x="271" y="669" type="line"/>
      <point x="264" y="677" type="line"/>
      <point x="86" y="572" type="line"/>
    </contour>
    <contour>
      <point x="376.236" y="489.771" type="line"/>
      <point x="272" y="673" type="line"/>
      <point x="263" y="671" type="line"/>
      <point x="277.54" y="466.548" type="line"/>
    </contour>
    <contour>
      <point x="485" y="727" type="line"/>
      <point x="267" y="678" type="line"/>
      <point x="267" y="666" type="line"/>
      <point x="485" y="617" type="line"/>
    </contour>
    <contour>
      <point x="282" y="896" type="line"/>
      <point x="261" y="674" type="line"/>
      <point x="273" y="670" type="line"/>
      <point x="387" y="862" type="line"/>
    </contour>
  </outline>
</glyph>
<glyph name="plus" format="2">
  <advance width="450"/>
  <unicode hex="002B"/>
  <outline>
    <contour>
      <point x="48" y="195" type="line"/>
      <point x="402" y="195" type="line"/>
      <point x="402" y="285" type="line"/>
      <point x="48" y="285" type="line"/>
    </contour>
    <contour>
      <point x="180" y="63" type="line"/>
      <point x="270" y="63" type="line"/>
      <point x="270" y="417" type="line"/>
      <point x="180" y="417" type="line"/>
    </contour>
  </outline>
</glyph>
<glyph name="hyphen" format="2">
  <advance width="369"/>
  <unicode hex="002D"/>
  <outline>
    <contour>
      <point x="66" y="204" type="line"/>
      <point x="303" y="204" type="line"/>
      <point x="303" y="282" type="line"/>
      <point x="66" y="282" type="line"/>
    </contour>
  </outline>
  <guideline angle="0" x="0" y="239"/>
</glyph>
<glyph name="zero" format="2">
  <advance width="786"/>
  <unicode hex="0030"/>
  <outline>
    <contour>
      <point x="48" y="341" type="curve" smooth="yes"/>
      <point x="48" y="129"/>
      <point x="186" y="-12"/>
      <point x="393" y="-12" type="curve" smooth="yes"/>
      <point x="600" y="-12"/>
      <point x="738" y="129"/>
      <point x="738" y="341" type="curve" smooth="yes"/>
      <point x="738" y="552"/>
      <point x="600" y="692"/>
      <point x="393" y="692" type="curve" smooth="yes"/>
      <point x="186" y="692"/>
      <point x="48" y="551"/>
    </contour>
    <contour>
      <point x="152" y="341" type="curve" smooth="yes"/>
      <point x="152" y="498"/>
      <point x="249" y="602"/>
      <point x="394" y="602" type="curve" smooth="yes"/>
      <point x="538" y="602"/>
      <point x="634" y="497"/>
      <point x="634" y="341" type="curve" smooth="yes"/>
      <point x="634" y="183"/>
      <point x="538" y="78"/>
      <point x="394" y="78" type="curve" smooth="yes"/>
      <point x="249" y="78"/>
      <point x="152" y="183"/>
    </contour>
  </outline>
  <guideline angle="0" x="0" y="692"/>
  <guideline angle="0" x="0" y="602"/>
  <guideline angle="90" x="738" y="0"/>
  <guideline angle="90" x="634" y="0"/>
  <guideline angle="90" x="48" y="0"/>
  <guideline angle="90" x="152" y="0"/>
  <guideline angle="0" x="0" y="78"/>
  <guideline angle="0" x="0" y="-12"/>
</glyph>
<glyph name="one" format="2">
  <advance width="346"/>
  <unicode hex="0031"/>
  <outline>
    <contour>
      <point x="50" y="539" type="line"/>
      <point x="107" y="539"/>
      <point x="167" y="548"/>
      <point x="195" y="563" type="curve"/>
      <point x="188" y="576" type="line"/>
      <point x="188" y="0" type="line"/>
      <point x="288" y="0" type="line"/>
      <point x="288" y="680" type="line"/>
      <point x="248" y="680" type="line"/>
      <point x="198" y="635"/>
      <point x="135" y="614"/>
      <point x="50" y="614" type="curve"/>
    </contour>
  </outline>
</glyph>
<glyph name="two" format="2">
  <advance width="750"/>
  <unicode hex="0032"/>
  <outline>
    <contour>
      <point x="49" y="0" type="line"/>
      <point x="702" y="0" type="line"/>
      <point x="702" y="90" type="line"/>
      <point x="194" y="90" type="line"/>
      <point x="204" y="63" type="line"/>
      <point x="392" y="176"/>
      <point x="702" y="247"/>
      <point x="702" y="467" type="curve" smooth="yes"/>
      <point x="702" y="602"/>
      <point x="580" y="692"/>
      <point x="395" y="692" type="curve" smooth="yes"/>
      <point x="211" y="692"/>
      <point x="88" y="610"/>
      <point x="48" y="463" type="curve"/>
      <point x="152" y="463" type="line"/>
      <point x="184" y="546"/>
      <point x="281" y="602"/>
      <point x="395" y="602" type="curve" smooth="yes"/>
      <point x="517" y="602"/>
      <point x="598" y="545"/>
      <point x="598" y="460" type="curve" smooth="yes"/>
      <point x="598" y="312"/>
      <point x="342" y="247"/>
      <point x="49" y="91" type="curve"/>
    </contour>
  </outline>
  <guideline angle="90" x="598" y="0"/>
  <guideline angle="90" x="702" y="0"/>
  <guideline angle="0" x="0" y="692"/>
  <guideline angle="0" x="0" y="602"/>
  <guideline angle="248.791" x="178" y="530"/>
</glyph>
<glyph name="three" format="2">
  <advance width="773"/>
  <unicode hex="0033"/>
  <outline>
    <contour>
      <point x="34" y="162" type="line"/>
      <point x="71" y="42"/>
      <point x="196" y="-12"/>
      <point x="376" y="-12" type="curve" smooth="yes"/>
      <point x="580" y="-12"/>
      <point x="725" y="73"/>
      <point x="725" y="200" type="curve" smooth="yes"/>
      <point x="725" y="314"/>
      <point x="638" y="389"/>
      <point x="486" y="405" type="curve"/>
      <point x="486" y="340" type="line"/>
      <point x="619" y="360"/>
      <point x="683" y="418"/>
      <point x="683" y="504" type="curve" smooth="yes"/>
      <point x="683" y="620"/>
      <point x="562" y="692"/>
      <point x="388" y="692" type="curve" smooth="yes"/>
      <point x="212" y="692"/>
      <point x="79" y="618"/>
      <point x="34" y="510" type="curve"/>
      <point x="148" y="510" type="line"/>
      <point x="183" y="565"/>
      <point x="271" y="602"/>
      <point x="387" y="602" type="curve" smooth="yes"/>
      <point x="495" y="602"/>
      <point x="579" y="569"/>
      <point x="579" y="507" type="curve" smooth="yes"/>
      <point x="579" y="446"/>
      <point x="522" y="419"/>
      <point x="397" y="419" type="curve" smooth="yes"/>
      <point x="268" y="419" type="line"/>
      <point x="268" y="329" type="line"/>
      <point x="428" y="329" type="line" smooth="yes"/>
      <point x="548" y="329"/>
      <point x="621" y="285"/>
      <point x="621" y="211" type="curve" smooth="yes"/>
      <point x="621" y="127"/>
      <point x="519" y="78"/>
      <point x="376" y="78" type="curve" smooth="yes"/>
      <point x="288" y="78"/>
      <point x="168" y="102"/>
      <point x="148" y="162" type="curve"/>
    </contour>
  </outline>
  <guideline angle="90" x="683" y="0"/>
  <guideline angle="90" x="579" y="0"/>
  <guideline angle="0" x="0" y="78"/>
  <guideline angle="0" x="0" y="-12"/>
  <guideline angle="0" x="0" y="692"/>
  <guideline angle="0" x="0" y="602"/>
</glyph>
<glyph name="four" format="2">
  <advance width="656"/>
  <unicode hex="0034"/>
  <outline>
    <contour>
      <point x="10" y="123" type="line"/>
      <point x="646" y="123" type="line"/>
      <point x="646" y="213" type="line"/>
      <point x="59" y="213" type="line"/>
      <point x="66" y="133" type="line"/>
      <point x="518" y="602" type="line"/>
      <point x="486" y="629" type="line"/>
      <point x="486" y="0" type="line"/>
      <point x="586" y="0" type="line"/>
      <point x="586" y="680" type="line"/>
      <point x="462" y="680" type="line"/>
      <point x="10" y="210" type="line"/>
    </contour>
  </outline>
</glyph>
<glyph name="five" format="2">
  <advance width="791"/>
  <unicode hex="0035"/>
  <outline>
    <contour>
      <point x="53" y="157" type="line"/>
      <point x="94" y="52"/>
      <point x="197" y="-12"/>
      <point x="390" y="-12" type="curve" smooth="yes"/>
      <point x="602" y="-12"/>
      <point x="743" y="91"/>
      <point x="743" y="243" type="curve" smooth="yes"/>
      <point x="743" y="392"/>
      <point x="621" y="493"/>
      <point x="435" y="493" type="curve" smooth="yes"/>
      <point x="322" y="493"/>
      <point x="204" y="460"/>
      <point x="132" y="378" type="curve"/>
      <point x="158" y="378" type="line"/>
      <point x="158" y="615" type="line"/>
      <point x="126" y="590" type="line"/>
      <point x="638" y="590" type="line"/>
      <point x="638" y="680" type="line"/>
      <point x="58" y="680" type="line"/>
      <point x="58" y="298" type="line"/>
      <point x="174" y="298" type="line"/>
      <point x="238" y="378"/>
      <point x="337" y="410"/>
      <point x="428" y="410" type="curve" smooth="yes"/>
      <point x="501" y="410"/>
      <point x="639" y="367"/>
      <point x="639" y="249" type="curve" smooth="yes"/>
      <point x="639" y="146"/>
      <point x="538" y="78"/>
      <point x="387" y="78" type="curve" smooth="yes"/>
      <point x="267" y="78"/>
      <point x="218" y="109"/>
      <point x="195" y="157" type="curve"/>
    </contour>
  </outline>
  <guideline angle="90" x="743" y="0"/>
  <guideline angle="90" x="639" y="0"/>
  <guideline angle="0" x="0" y="78"/>
  <guideline angle="0" x="0" y="-12"/>
</glyph>
<glyph name="six" format="2">
  <advance width="787"/>
  <unicode hex="0036"/>
  <outline>
    <contour>
      <point x="152" y="232" type="curve" smooth="yes"/>
      <point x="152" y="312"/>
      <point x="251" y="363"/>
      <point x="406" y="363" type="curve" smooth="yes"/>
      <point x="544" y="363"/>
      <point x="635" y="310"/>
      <point x="635" y="230" type="curve" smooth="yes"/>
      <point x="635" y="139"/>
      <point x="535" y="78"/>
      <point x="387" y="78" type="curve" smooth="yes"/>
      <point x="246" y="78"/>
      <point x="152" y="139"/>
    </contour>
    <contour>
      <point x="48" y="268" type="curve" smooth="yes"/>
      <point x="48" y="100"/>
      <point x="185" y="-12"/>
      <point x="391" y="-12" type="curve" smooth="yes"/>
      <point x="600" y="-12"/>
      <point x="739" y="82"/>
      <point x="739" y="223" type="curve" smooth="yes"/>
      <point x="739" y="361"/>
      <point x="612" y="453"/>
      <point x="421" y="453" type="curve" smooth="yes"/>
      <point x="312" y="453"/>
      <point x="196" y="415"/>
      <point x="159" y="368" type="curve"/>
      <point x="155" y="368" type="line"/>
      <point x="174" y="508"/>
      <point x="271" y="602"/>
      <point x="396" y="602" type="curve" smooth="yes"/>
      <point x="466" y="602"/>
      <point x="529" y="580"/>
      <point x="553" y="548" type="curve"/>
      <point x="677" y="548" type="line"/>
      <point x="635" y="634"/>
      <point x="524" y="692"/>
      <point x="399" y="692" type="curve" smooth="yes"/>
      <point x="189" y="692"/>
      <point x="48" y="524"/>
    </contour>
  </outline>
  <guideline angle="90" x="48" y="0"/>
  <guideline angle="90" x="739" y="0"/>
  <guideline angle="0" x="0" y="-12"/>
  <guideline angle="0" x="0" y="78"/>
  <guideline angle="0" x="0" y="692"/>
  <guideline angle="0" x="0" y="602"/>
  <guideline angle="90" x="635" y="0"/>
  <guideline angle="0" x="0" y="453"/>
  <guideline angle="0" x="0" y="363"/>
</glyph>
<glyph name="seven" format="2">
  <advance width="610"/>
  <unicode hex="0037"/>
  <outline>
    <contour>
      <point x="20" y="590" type="line"/>
      <point x="590" y="590" type="line"/>
      <point x="590" y="680" type="line"/>
      <point x="20" y="680" type="line"/>
    </contour>
    <contour>
      <point x="196" y="0" type="curve"/>
      <point x="300" y="0" type="line"/>
      <point x="300" y="236"/>
      <point x="364" y="366"/>
      <point x="590" y="590" type="curve"/>
      <point x="590" y="605" type="line"/>
      <point x="499" y="605" type="line"/>
      <point x="271" y="391"/>
      <point x="196" y="248"/>
    </contour>
  </outline>
</glyph>
<glyph name="eight" format="2">
  <advance width="787"/>
  <unicode hex="0038"/>
  <outline>
    <contour>
      <point x="48" y="181" type="curve" smooth="yes"/>
      <point x="48" y="65"/>
      <point x="185" y="-12"/>
      <point x="391" y="-12" type="curve" smooth="yes"/>
      <point x="600" y="-12"/>
      <point x="739" y="65"/>
      <point x="739" y="181" type="curve" smooth="yes"/>
      <point x="739" y="277"/>
      <point x="661" y="340"/>
      <point x="528" y="354" type="curve"/>
      <point x="534" y="347" type="line"/>
      <point x="626" y="365"/>
      <point x="719" y="403"/>
      <point x="719" y="507" type="curve" smooth="yes"/>
      <point x="719" y="617"/>
      <point x="589" y="692"/>
      <point x="393" y="692" type="curve" smooth="yes"/>
      <point x="196" y="692"/>
      <point x="65" y="618"/>
      <point x="65" y="507" type="curve" smooth="yes"/>
      <point x="65" y="403"/>
      <point x="169" y="359"/>
      <point x="205" y="348" type="curve"/>
      <point x="213" y="357" type="line"/>
      <point x="129" y="328"/>
      <point x="48" y="278"/>
    </contour>
    <contour>
      <point x="152" y="187" type="curve" smooth="yes"/>
      <point x="152" y="258"/>
      <point x="282" y="311"/>
      <point x="391" y="311" type="curve" smooth="yes"/>
      <point x="513" y="311"/>
      <point x="635" y="273"/>
      <point x="635" y="187" type="curve" smooth="yes"/>
      <point x="635" y="122"/>
      <point x="537" y="78"/>
      <point x="391" y="78" type="curve" smooth="yes"/>
      <point x="248" y="78"/>
      <point x="152" y="122"/>
    </contour>
    <contour>
      <point x="169" y="500" type="curve" smooth="yes"/>
      <point x="169" y="561"/>
      <point x="259" y="602"/>
      <point x="393" y="602" type="curve" smooth="yes"/>
      <point x="526" y="602"/>
      <point x="615" y="561"/>
      <point x="615" y="500" type="curve" smooth="yes"/>
      <point x="615" y="440"/>
      <point x="516" y="393"/>
      <point x="393" y="393" type="curve" smooth="yes"/>
      <point x="266" y="393"/>
      <point x="169" y="440"/>
    </contour>
  </outline>
  <guideline angle="90" x="65" y="0"/>
  <guideline angle="90" x="169" y="0"/>
  <guideline angle="90" x="719" y="0"/>
  <guideline angle="90" x="615" y="0"/>
  <guideline angle="0" x="0" y="692"/>
  <guideline angle="0" x="0" y="602"/>
  <guideline angle="0" x="0" y="-12"/>
  <guideline angle="0" x="0" y="78"/>
</glyph>
<glyph name="nine" format="2">
  <advance width="786"/>
  <unicode hex="0039"/>
  <outline>
    <contour>
      <point x="152" y="460" type="curve" smooth="yes"/>
      <point x="152" y="545"/>
      <point x="249" y="602"/>
      <point x="393" y="602" type="curve" smooth="yes"/>
      <point x="545" y="602"/>
      <point x="634" y="549"/>
      <point x="634" y="460" type="curve" smooth="yes"/>
      <point x="634" y="387"/>
      <point x="528" y="337"/>
      <point x="375" y="337" type="curve" smooth="yes"/>
      <point x="247" y="337"/>
      <point x="152" y="389"/>
    </contour>
    <contour>
      <point x="109" y="134" type="line"/>
      <point x="154" y="45"/>
      <point x="264" y="-12"/>
      <point x="385" y="-12" type="curve" smooth="yes"/>
      <point x="597" y="-12"/>
      <point x="738" y="149"/>
      <point x="738" y="392" type="curve" smooth="yes"/>
      <point x="738" y="594"/>
      <point x="623" y="692"/>
      <point x="387" y="692" type="curve" smooth="yes"/>
      <point x="184" y="692"/>
      <point x="48" y="602"/>
      <point x="48" y="467" type="curve" smooth="yes"/>
      <point x="48" y="335"/>
      <point x="174" y="247"/>
      <point x="363" y="247" type="curve" smooth="yes"/>
      <point x="467" y="247"/>
      <point x="591" y="282"/>
      <point x="630" y="332" type="curve"/>
      <point x="634" y="332" type="line"/>
      <point x="620" y="179"/>
      <point x="523" y="78"/>
      <point x="390" y="78" type="curve" smooth="yes"/>
      <point x="326" y="78"/>
      <point x="271" y="99"/>
      <point x="243" y="134" type="curve"/>
    </contour>
  </outline>
  <guideline angle="90" x="738" y="0"/>
  <guideline angle="0" x="0" y="-12"/>
  <guideline angle="0" x="0" y="78"/>
  <guideline angle="84.8056" x="616" y="134"/>
  <guideline angle="0" x="0" y="692"/>
  <guideline angle="0" x="0" y="602"/>
  <guideline angle="90" x="48" y="0"/>
  <guideline angle="90" x="152" y="0"/>
</glyph>
<glyph name="equal" format="2">
  <advance width="450"/>
  <unicode hex="003D"/>
  <outline>
    <contour>
      <point x="48" y="130" type="line"/>
      <point x="402" y="130" type="line"/>
      <point x="402" y="204" type="line"/>
      <point x="48" y="204" type="line"/>
    </contour>
    <contour>
      <point x="48" y="292" type="line"/>
      <point x="402" y="292" type="line"/>
      <point x="402" y="366" type="line"/>
      <point x="48" y="366" type="line"/>
    </contour>
  </outline>
</glyph>
<glyph name="question" format="2">
  <advance width="587"/>
  <unicode hex="003F"/>
  <outline>
    <contour>
      <point x="40" y="480" type="curve"/>
      <point x="132" y="480" type="line"/>
      <point x="132" y="564"/>
      <point x="196.334" y="620"/>
      <point x="292.835" y="620" type="curve" smooth="yes"/>
      <point x="385.487" y="620"/>
      <point x="455" y="574.258"/>
      <point x="455" y="513.29" type="curve" smooth="yes"/>
      <point x="455" y="359"/>
      <point x="228" y="334"/>
      <point x="228" y="160" type="curve" smooth="yes"/>
      <point x="228" y="140" type="line"/>
      <point x="320" y="140" type="line"/>
      <point x="320" y="160" type="line" smooth="yes"/>
      <point x="320" y="299"/>
      <point x="547" y="318.429"/>
      <point x="547" y="509" type="curve" smooth="yes"/>
      <point x="547" y="629.6"/>
      <point x="445.363" y="710"/>
      <point x="292.906" y="710" type="curve" smooth="yes"/>
      <point x="141.163" y="710"/>
      <point x="40" y="618"/>
    </contour>
    <contour>
      <point x="228" y="0" type="line"/>
      <point x="320" y="0" type="line"/>
      <point x="320" y="90" type="line"/>
      <point x="228" y="90" type="line"/>
    </contour>
  </outline>
</glyph>
<glyph name="at" format="2">
  <advance width="858"/>
  <unicode hex="0040"/>
  <outline>
    <contour>
      <point x="305.02" y="166.56" type="curve" smooth="yes"/>
      <point x="305.02" y="252.1"/>
      <point x="358.83" y="309.12"/>
      <point x="439.54" y="309.12" type="curve" smooth="yes"/>
      <point x="474.89" y="309.12"/>
      <point x="511.09" y="300.2"/>
      <point x="532.09" y="285.3" type="curve"/>
      <point x="480.35" y="124.06" type="line" smooth="yes"/>
      <point x="469.75" y="91.04"/>
      <point x="430.3" y="70"/>
      <point x="387.88" y="70" type="curve" smooth="yes"/>
      <point x="338.17" y="70"/>
      <point x="305.02" y="106.32"/>
    </contour>
    <contour>
      <point x="40" y="191.662" type="curve" smooth="yes"/>
      <point x="40" y="-2.53537"/>
      <point x="172.585" y="-132"/>
      <point x="371.462" y="-132" type="curve" smooth="yes"/>
      <point x="449.051" y="-132"/>
      <point x="526.901" y="-115"/>
      <point x="582" y="-86" type="curve"/>
      <point x="561" y="-29" type="line"/>
      <point x="523.504" y="-49"/>
      <point x="465.479" y="-60"/>
      <point x="391.165" y="-60" type="curve" smooth="yes"/>
      <point x="235.666" y="-60"/>
      <point x="132" y="40.8253"/>
      <point x="132" y="192.063" type="curve" smooth="yes"/>
      <point x="132" y="356.425"/>
      <point x="249.632" y="466"/>
      <point x="426.08" y="466" type="curve" smooth="yes"/>
      <point x="610.832" y="466"/>
      <point x="734" y="375"/>
      <point x="734" y="238.499" type="curve" smooth="yes"/>
      <point x="734" y="137.495"/>
      <point x="686.801" y="70.1584"/>
      <point x="616.003" y="70.1584" type="curve" smooth="yes"/>
      <point x="578.793" y="70.1584"/>
      <point x="567.518" y="89.644"/>
      <point x="567.518" y="107.168" type="curve" smooth="yes"/>
      <point x="567.518" y="124.692"/>
      <point x="574.991" y="154.021"/>
      <point x="580.19" y="170.346" type="curve" smooth="yes"/>
      <point x="639" y="355" type="line"/>
      <point x="558.88" y="355" type="line"/>
      <point x="516.16" y="296.802" type="line"/>
      <point x="581.058" y="316" type="line"/>
      <point x="565.206" y="355"/>
      <point x="494.134" y="381"/>
      <point x="422.06" y="381" type="curve" smooth="yes"/>
      <point x="296.624" y="381"/>
      <point x="213" y="289.21"/>
      <point x="213" y="151.525" type="curve" smooth="yes"/>
      <point x="213" y="59.4101"/>
      <point x="268.254" y="-2"/>
      <point x="351.136" y="-2" type="curve" smooth="yes"/>
      <point x="421.536" y="-2"/>
      <point x="495.606" y="38.1027"/>
      <point x="533.431" y="98.2567" type="curve"/>
      <point x="505.314" y="118" type="line"/>
      <point x="491.682" y="107.288"/>
      <point x="482.594" y="84.5481"/>
      <point x="482.594" y="64.0341" type="curve" smooth="yes"/>
      <point x="482.594" y="24.4137"/>
      <point x="523.142" y="-2"/>
      <point x="583.964" y="-2" type="curve" smooth="yes"/>
      <point x="736.386" y="-2"/>
      <point x="818" y="97.2769"/>
      <point x="818" y="246.192" type="curve" smooth="yes"/>
      <point x="818" y="421.277"/>
      <point x="661.454" y="538"/>
      <point x="426.635" y="538" type="curve" smooth="yes"/>
      <point x="194.654" y="538"/>
      <point x="40" y="399.465"/>
    </contour>
  </outline>
</glyph>
<glyph name="A" format="2">
  <advance width="650"/>
  <unicode hex="0041"/>
  <anchor x="326" y="740" name="top"/>
  <anchor x="325" y="639" name="t.ring"/>
  <anchor x="317" y="-40" name="bottom"/>
  <anchor x="607" y="0" name="b.ogonek"/>
  <outline>
    <contour>
      <point x="165" y="187" type="line"/>
      <point x="489" y="187" type="line"/>
      <point x="489" y="276" type="line"/>
      <point x="165" y="276" type="line"/>
    </contour>
    <contour>
      <point x="10" y="0" type="line"/>
      <point x="111" y="0" type="line"/>
      <point x="279" y="437" type="line" smooth="yes"/>
      <point x="291" y="469"/>
      <point x="313" y="537"/>
      <point x="325" y="594" type="curve"/>
      <point x="320" y="592" type="line"/>
      <point x="331" y="592" type="line"/>
      <point x="327" y="594" type="line"/>
      <point x="339" y="537"/>
      <point x="359" y="469"/>
      <point x="371" y="437" type="curve" smooth="yes"/>
      <point x="540" y="0" type="line"/>
      <point x="640" y="0" type="line"/>
      <point x="380" y="680" type="line"/>
      <point x="270" y="680" type="line"/>
    </contour>
  </outline>
  <guideline angle="90" x="325" y="0"/>
  <guideline angle="69.1036" x="-2" y="0"/>
  <guideline angle="249.107" x="353" y="634"/>
  <guideline angle="110.893" x="523" y="0"/>
  <guideline angle="290.896" x="376" y="680"/>
</glyph>
<glyph name="B" format="2">
  <advance width="683"/>
  <unicode hex="0042"/>
  <anchor x="324" y="740" name="top"/>
  <anchor x="324" y="-50" name="bottom"/>
  <outline>
    <contour>
      <point x="60" y="0" type="line"/>
      <point x="160" y="0" type="line"/>
      <point x="160" y="680" type="line"/>
      <point x="60" y="680" type="line"/>
    </contour>
    <contour>
      <point x="136" y="0" type="line"/>
      <point x="391" y="0" type="line" smooth="yes"/>
      <point x="538" y="0"/>
      <point x="635" y="82"/>
      <point x="635" y="203" type="curve" smooth="yes"/>
      <point x="635" y="292"/>
      <point x="591" y="376"/>
      <point x="428" y="402" type="curve"/>
      <point x="543" y="322" type="line"/>
      <point x="543" y="414" type="line"/>
      <point x="428" y="340" type="line"/>
      <point x="579" y="347"/>
      <point x="621" y="427"/>
      <point x="621" y="508" type="curve" smooth="yes"/>
      <point x="621" y="611"/>
      <point x="538" y="680"/>
      <point x="411" y="680" type="curve" smooth="yes"/>
      <point x="136" y="680" type="line"/>
      <point x="136" y="590" type="line"/>
      <point x="396" y="590" type="line" smooth="yes"/>
      <point x="472" y="590"/>
      <point x="523" y="556"/>
      <point x="523" y="504" type="curve" smooth="yes"/>
      <point x="523" y="450"/>
      <point x="470" y="412"/>
      <point x="396" y="412" type="curve" smooth="yes"/>
      <point x="136" y="412" type="line"/>
      <point x="136" y="322" type="line"/>
      <point x="378" y="322" type="line" smooth="yes"/>
      <point x="477" y="322"/>
      <point x="535" y="278"/>
      <point x="535" y="203" type="curve" smooth="yes"/>
      <point x="535" y="133"/>
      <point x="475" y="90"/>
      <point x="378" y="90" type="curve" smooth="yes"/>
      <point x="136" y="90" type="line"/>
    </contour>
  </outline>
  <guideline angle="0" x="0" y="42"/>
  <guideline angle="0" x="0" y="654"/>
  <guideline angle="0" x="0" y="382"/>
  <guideline angle="0" x="0" y="360"/>
  <guideline angle="0" x="0" y="127"/>
  <guideline angle="0" x="0" y="536"/>
  <guideline angle="90" x="324" y="0"/>
</glyph>
<glyph name="C" format="2">
  <advance width="756"/>
  <unicode hex="0043"/>
  <anchor x="388" y="740" name="top"/>
  <anchor x="388" y="-60" name="bottom"/>
  <anchor x="365" y="0" name="b.cedilla"/>
  <outline>
    <contour>
      <point x="48" y="340" type="curve" smooth="yes"/>
      <point x="48" y="119"/>
      <point x="188" y="-12"/>
      <point x="388" y="-12" type="curve" smooth="yes"/>
      <point x="550" y="-12"/>
      <point x="667" y="75"/>
      <point x="692" y="187" type="curve"/>
      <point x="593" y="187" type="line"/>
      <point x="569" y="122"/>
      <point x="484" y="78"/>
      <point x="388" y="78" type="curve" smooth="yes"/>
      <point x="244" y="78"/>
      <point x="148" y="172"/>
      <point x="148" y="340" type="curve" smooth="yes"/>
      <point x="148" y="508"/>
      <point x="244" y="602"/>
      <point x="388" y="602" type="curve" smooth="yes"/>
      <point x="511" y="602"/>
      <point x="583" y="537"/>
      <point x="609" y="455" type="curve"/>
      <point x="708" y="455" type="line"/>
      <point x="672" y="597"/>
      <point x="554" y="692"/>
      <point x="388" y="692" type="curve" smooth="yes"/>
      <point x="188" y="692"/>
      <point x="48" y="561"/>
    </contour>
  </outline>
  <guideline angle="90" name="h_1" x="388" y="0"/>
</glyph>
<glyph name="D" format="2">
  <advance width="694"/>
  <unicode hex="0044"/>
  <anchor x="302" y="740" name="top"/>
  <anchor x="302" y="-50" name="bottom"/>
  <anchor x="273" y="0" name="b.cedilla"/>
  <outline>
    <contour>
      <point x="60" y="0" type="line"/>
      <point x="160" y="0" type="line"/>
      <point x="160" y="680" type="line"/>
      <point x="60" y="680" type="line"/>
    </contour>
    <contour>
      <point x="84" y="0" type="line"/>
      <point x="303" y="0" type="line" smooth="yes"/>
      <point x="535" y="0"/>
      <point x="646" y="139"/>
      <point x="646" y="340" type="curve" smooth="yes"/>
      <point x="646" y="538"/>
      <point x="534" y="680"/>
      <point x="303" y="680" type="curve" smooth="yes"/>
      <point x="84" y="680" type="line"/>
      <point x="84" y="590" type="line"/>
      <point x="303" y="590" type="line" smooth="yes"/>
      <point x="487" y="590"/>
      <point x="545" y="483"/>
      <point x="545" y="340" type="curve" smooth="yes"/>
      <point x="545" y="233"/>
      <point x="484" y="90"/>
      <point x="303" y="90" type="curve" smooth="yes"/>
      <point x="84" y="90" type="line"/>
    </contour>
  </outline>
  <guideline angle="90" name="h_1" x="302" y="0"/>
</glyph>
<glyph name="E" format="2">
  <advance width="612"/>
  <unicode hex="0045"/>
  <anchor x="316" y="740" name="top"/>
  <anchor x="316" y="-40" name="bottom"/>
  <anchor x="316" y="0" name="b.cedilla"/>
  <anchor x="548" y="-0" name="b.ogonek"/>
  <outline>
    <contour>
      <point x="60" y="0" type="line"/>
      <point x="160" y="0" type="line"/>
      <point x="160" y="680" type="line"/>
      <point x="60" y="680" type="line"/>
    </contour>
    <contour>
      <point x="138" y="590" type="line"/>
      <point x="548" y="590" type="line"/>
      <point x="548" y="680" type="line"/>
      <point x="138" y="680" type="line"/>
    </contour>
    <contour>
      <point x="139" y="302" type="line"/>
      <point x="499" y="302" type="line"/>
      <point x="499" y="392" type="line"/>
      <point x="139" y="392" type="line"/>
    </contour>
    <contour>
      <point x="138" y="0" type="line"/>
      <point x="548" y="0" type="line"/>
      <point x="548" y="90" type="line"/>
      <point x="138" y="90" type="line"/>
    </contour>
  </outline>
  <guideline angle="90" name="h_1" x="316" y="0"/>
</glyph>
<glyph name="F" format="2">
  <advance width="612"/>
  <unicode hex="0046"/>
  <anchor x="316" y="740" name="top"/>
  <anchor x="316" y="-40" name="bottom"/>
  <outline>
    <contour>
      <point x="60" y="0" type="line"/>
      <point x="160" y="0" type="line"/>
      <point x="160" y="680" type="line"/>
      <point x="60" y="680" type="line"/>
    </contour>
    <contour>
      <point x="118" y="590" type="line"/>
      <point x="548" y="590" type="line"/>
      <point x="548" y="680" type="line"/>
      <point x="118" y="680" type="line"/>
    </contour>
    <contour>
      <point x="118" y="302" type="line"/>
      <point x="498" y="302" type="line"/>
      <point x="498" y="392" type="line"/>
      <point x="118" y="392" type="line"/>
    </contour>
  </outline>
  <guideline angle="90" name="h_1" x="316" y="0"/>
</glyph>
<glyph name="G" format="2">
  <advance width="770"/>
  <unicode hex="0047"/>
  <anchor x="373" y="740" name="top"/>
  <anchor x="373" y="-40" name="bottom"/>
  <outline>
    <contour>
      <point x="48" y="340" type="curve" smooth="yes"/>
      <point x="48" y="125"/>
      <point x="187" y="-12"/>
      <point x="405" y="-12" type="curve" smooth="yes"/>
      <point x="498" y="-12"/>
      <point x="591" y="25"/>
      <point x="635" y="80" type="curve"/>
      <point x="611" y="73" type="line"/>
      <point x="617" y="-1" type="line"/>
      <point x="699" y="-1" type="line"/>
      <point x="699" y="314" type="line"/>
      <point x="401" y="314" type="line"/>
      <point x="401" y="238" type="line"/>
      <point x="606" y="238" type="line"/>
      <point x="606" y="107" type="line"/>
      <point x="628" y="107" type="line"/>
      <point x="628" y="178" type="line"/>
      <point x="611" y="178" type="line"/>
      <point x="571" y="115"/>
      <point x="491" y="78"/>
      <point x="394" y="78" type="curve" smooth="yes"/>
      <point x="251" y="78"/>
      <point x="148" y="189"/>
      <point x="148" y="342" type="curve" smooth="yes"/>
      <point x="148" y="491"/>
      <point x="245" y="602"/>
      <point x="380" y="602" type="curve" smooth="yes"/>
      <point x="480" y="602"/>
      <point x="564" y="542"/>
      <point x="589" y="455" type="curve"/>
      <point x="696" y="455" type="line"/>
      <point x="658" y="605"/>
      <point x="544" y="692"/>
      <point x="384" y="692" type="curve" smooth="yes"/>
      <point x="181" y="692"/>
      <point x="48" y="551"/>
    </contour>
  </outline>
  <guideline angle="90" name="h_1" x="373" y="0"/>
</glyph>
<glyph name="H" format="2">
  <advance width="707"/>
  <unicode hex="0048"/>
  <anchor x="353" y="740" name="top"/>
  <anchor x="353" y="-40" name="bottom"/>
  <anchor x="563" y="0" name="b.cedilla"/>
  <outline>
    <contour>
      <point x="60" y="0" type="line"/>
      <point x="160" y="0" type="line"/>
      <point x="160" y="680" type="line"/>
      <point x="60" y="680" type="line"/>
    </contour>
    <contour>
      <point x="111" y="314" type="line"/>
      <point x="593" y="314" type="line"/>
      <point x="593" y="404" type="line"/>
      <point x="111" y="404" type="line"/>
    </contour>
    <contour>
      <point x="547" y="0" type="line"/>
      <point x="647" y="0" type="line"/>
      <point x="647" y="680" type="line"/>
      <point x="547" y="680" type="line"/>
    </contour>
  </outline>
  <guideline angle="90" name="h_1" x="353" y="0"/>
</glyph>
<glyph name="I" format="2">
  <advance width="220"/>
  <unicode hex="0049"/>
  <anchor x="110" y="740" name="top"/>
  <anchor x="110" y="-40" name="bottom"/>
  <outline>
    <contour>
      <point x="60" y="0" type="line"/>
      <point x="160" y="0" type="line"/>
      <point x="160" y="680" type="line"/>
      <point x="60" y="680" type="line"/>
    </contour>
  </outline>
  <guideline angle="90" x="110" y="0"/>
</glyph>
<glyph name="J" format="2">
  <advance width="220"/>
  <unicode hex="004A"/>
  <anchor x="108" y="740" name="top"/>
  <outline>
    <contour>
      <point x="6" y="0" type="line"/>
      <point x="30" y="0" type="line" smooth="yes"/>
      <point x="121" y="0"/>
      <point x="160" y="53"/>
      <point x="160" y="152" type="curve" smooth="yes"/>
      <point x="160" y="680" type="line"/>
      <point x="60" y="680" type="line"/>
      <point x="60" y="140" type="line" smooth="yes"/>
      <point x="60" y="113"/>
      <point x="49" y="90"/>
      <point x="25" y="90" type="curve" smooth="yes"/>
      <point x="6" y="90" type="line"/>
    </contour>
  </outline>
</glyph>
<glyph name="K" format="2">
  <advance width="680"/>
  <unicode hex="004B"/>
  <anchor x="353" y="-40" name="bottom"/>
  <anchor x="300" y="740" name="top"/>
  <outline>
    <contour>
      <point x="60" y="0" type="line"/>
      <point x="160" y="0" type="line"/>
      <point x="160" y="680" type="line"/>
      <point x="60" y="680" type="line"/>
    </contour>
    <contour>
      <point x="136" y="144" type="line"/>
      <point x="621" y="680" type="line"/>
      <point x="491" y="680" type="line"/>
      <point x="136" y="286" type="line"/>
    </contour>
    <contour>
      <point x="316" y="363" type="line"/>
      <point x="540" y="0" type="line"/>
      <point x="670" y="0" type="line"/>
      <point x="394" y="449" type="line"/>
    </contour>
  </outline>
  <guideline angle="0" x="0" y="350"/>
  <guideline angle="300.451" x="413" y="421"/>
  <guideline angle="120.937" x="523" y="0"/>
  <guideline angle="48.6683" x="291" y="319"/>
  <guideline angle="90" name="h_1" x="300" y="0"/>
</glyph>
<glyph name="L" format="2">
  <advance width="602"/>
  <unicode hex="004C"/>
  <anchor x="311" y="740" name="top"/>
  <anchor x="311" y="-40" name="bottom"/>
  <outline>
    <contour>
      <point x="119" y="0" type="line"/>
      <point x="543" y="0" type="line"/>
      <point x="543" y="90" type="line"/>
      <point x="119" y="90" type="line"/>
    </contour>
    <contour>
      <point x="60" y="0" type="line"/>
      <point x="160" y="0" type="line"/>
      <point x="160" y="680" type="line"/>
      <point x="60" y="680" type="line"/>
    </contour>
  </outline>
  <guideline angle="90" name="h_1" x="311" y="0"/>
</glyph>
<glyph name="M" format="2">
  <advance width="928"/>
  <unicode hex="004D"/>
  <anchor x="454" y="740" name="top"/>
  <anchor x="454" y="-40" name="bottom"/>
  <outline>
    <contour>
      <point x="60" y="0" type="line"/>
      <point x="160" y="0" type="line"/>
      <point x="160" y="680" type="line"/>
      <point x="60" y="680" type="line"/>
    </contour>
    <contour>
      <point x="72" y="680" type="line"/>
      <point x="407" y="0" type="line"/>
      <point x="482" y="0" type="line"/>
      <point x="482" y="31"/>
      <point x="418" y="190"/>
      <point x="391" y="243" type="curve" smooth="yes"/>
      <point x="173" y="680" type="line"/>
    </contour>
    <contour>
      <point x="442" y="0" type="curve"/>
      <point x="517" y="0" type="line"/>
      <point x="852" y="680" type="line"/>
      <point x="752" y="680" type="line"/>
      <point x="533" y="243" type="line" smooth="yes"/>
      <point x="507" y="190"/>
      <point x="442" y="31"/>
    </contour>
    <contour>
      <point x="768" y="0" type="line"/>
      <point x="868" y="0" type="line"/>
      <point x="868" y="680" type="line"/>
      <point x="768" y="680" type="line"/>
    </contour>
  </outline>
  <guideline angle="90" name="h_1" x="454" y="0"/>
  <guideline angle="0" x="0" y="230"/>
  <guideline angle="90" x="735" y="0"/>
</glyph>
<glyph name="N" format="2">
  <advance width="776"/>
  <unicode hex="004E"/>
  <anchor x="383" y="740" name="top"/>
  <anchor x="383" y="-40" name="bottom"/>
  <outline>
    <contour>
      <point x="60" y="0" type="line"/>
      <point x="160" y="0" type="line"/>
      <point x="160" y="443" type="line" smooth="yes"/>
      <point x="160" y="464"/>
      <point x="160" y="510"/>
      <point x="153" y="540" type="curve"/>
      <point x="156" y="540" type="line"/>
      <point x="613" y="0" type="line"/>
      <point x="716" y="0" type="line"/>
      <point x="716" y="680" type="line"/>
      <point x="616" y="680" type="line"/>
      <point x="616" y="237" type="line" smooth="yes"/>
      <point x="616" y="216"/>
      <point x="616" y="170"/>
      <point x="621" y="140" type="curve"/>
      <point x="618" y="140" type="line"/>
      <point x="163" y="680" type="line"/>
      <point x="60" y="680" type="line"/>
    </contour>
  </outline>
  <guideline angle="90" x="383" y="0"/>
  <guideline angle="310.266" x="170" y="523"/>
  <guideline angle="90" x="160" y="0"/>
  <guideline angle="130.138" x="604" y="157"/>
  <guideline angle="90" x="616" y="0"/>
  <guideline angle="0" x="0" y="540"/>
  <guideline angle="0" x="0" y="140"/>
</glyph>
<glyph name="O" format="2">
  <advance width="782"/>
  <unicode hex="004F"/>
  <anchor x="392" y="740" name="top"/>
  <anchor x="389" y="-40" name="bottom"/>
  <anchor x="479" y="0" name="b.ogonek"/>
  <outline>
    <contour>
      <point x="48" y="340" type="curve" smooth="yes"/>
      <point x="48" y="119"/>
      <point x="189" y="-12"/>
      <point x="391" y="-12" type="curve" smooth="yes"/>
      <point x="593" y="-12"/>
      <point x="734" y="119"/>
      <point x="734" y="340" type="curve" smooth="yes"/>
      <point x="734" y="561"/>
      <point x="593" y="692"/>
      <point x="391" y="692" type="curve" smooth="yes"/>
      <point x="189" y="692"/>
      <point x="48" y="561"/>
    </contour>
    <contour>
      <point x="152" y="340" type="curve" smooth="yes"/>
      <point x="152" y="508"/>
      <point x="248" y="602"/>
      <point x="391" y="602" type="curve" smooth="yes"/>
      <point x="534" y="602"/>
      <point x="630" y="508"/>
      <point x="630" y="340" type="curve" smooth="yes"/>
      <point x="630" y="172"/>
      <point x="534" y="78"/>
      <point x="391" y="78" type="curve" smooth="yes"/>
      <point x="248" y="78"/>
      <point x="152" y="172"/>
    </contour>
  </outline>
  <guideline angle="0" x="0" y="740"/>
  <guideline angle="90" x="389" y="0"/>
</glyph>
<glyph name="P" format="2">
  <advance width="671"/>
  <unicode hex="0050"/>
  <anchor x="326" y="740" name="top"/>
  <anchor x="326" y="-40" name="bottom"/>
  <outline>
    <contour>
      <point x="60" y="0" type="line"/>
      <point x="160" y="0" type="line"/>
      <point x="160" y="680" type="line"/>
      <point x="60" y="680" type="line"/>
    </contour>
    <contour>
      <point x="150" y="273" type="line"/>
      <point x="399" y="273" type="line" smooth="yes"/>
      <point x="545" y="273"/>
      <point x="623" y="357"/>
      <point x="623" y="483" type="curve" smooth="yes"/>
      <point x="623" y="601"/>
      <point x="545" y="680"/>
      <point x="399" y="680" type="curve" smooth="yes"/>
      <point x="150" y="680" type="line"/>
      <point x="150" y="590" type="line"/>
      <point x="382" y="590" type="line" smooth="yes"/>
      <point x="464" y="590"/>
      <point x="519" y="547"/>
      <point x="519" y="479" type="curve" smooth="yes"/>
      <point x="519" y="411"/>
      <point x="464" y="363"/>
      <point x="382" y="363" type="curve" smooth="yes"/>
      <point x="150" y="363" type="line"/>
    </contour>
  </outline>
  <guideline angle="90" name="h_1" x="326" y="0"/>
</glyph>
<glyph name="Q" format="2">
  <advance width="782"/>
  <unicode hex="0051"/>
  <anchor x="403" y="740" name="top"/>
  <anchor x="389" y="-40" name="bottom"/>
  <anchor x="389" y="0" name="b.ogonek"/>
  <outline>
    <contour>
      <point x="440" y="104" type="line"/>
      <point x="480" y="72" type="line"/>
      <point x="570" y="122" type="line"/>
      <point x="517" y="165" type="line"/>
    </contour>
    <contour>
      <point x="537" y="25" type="line"/>
      <point x="654" y="-68" type="line"/>
      <point x="730" y="-7" type="line"/>
      <point x="625" y="77" type="line"/>
    </contour>
    <contour>
      <point x="48" y="340" type="curve" smooth="yes"/>
      <point x="48" y="119"/>
      <point x="189" y="-12"/>
      <point x="393" y="-12" type="curve" smooth="yes"/>
      <point x="593" y="-12"/>
      <point x="734" y="119"/>
      <point x="734" y="340" type="curve" smooth="yes"/>
      <point x="734" y="561"/>
      <point x="593" y="692"/>
      <point x="393" y="692" type="curve" smooth="yes"/>
      <point x="189" y="692"/>
      <point x="48" y="561"/>
    </contour>
    <contour>
      <point x="152" y="340" type="curve" smooth="yes"/>
      <point x="152" y="508"/>
      <point x="248" y="602"/>
      <point x="391" y="602" type="curve" smooth="yes"/>
      <point x="534" y="602"/>
      <point x="630" y="508"/>
      <point x="630" y="340" type="curve" smooth="yes"/>
      <point x="630" y="172"/>
      <point x="534" y="78"/>
      <point x="391" y="78" type="curve" smooth="yes"/>
      <point x="248" y="78"/>
      <point x="152" y="172"/>
    </contour>
  </outline>
  <guideline angle="90" x="427" y="0"/>
  <guideline angle="0" x="0" y="740"/>
  <guideline angle="90" x="389" y="0"/>
</glyph>
<glyph name="R" format="2">
  <advance width="675"/>
  <unicode hex="0052"/>
  <anchor x="326" y="740" name="top"/>
  <anchor x="326" y="-40" name="bottom"/>
  <outline>
    <contour>
      <point x="60" y="0" type="line"/>
      <point x="160" y="0" type="line"/>
      <point x="160" y="680" type="line"/>
      <point x="60" y="680" type="line"/>
    </contour>
    <contour>
      <point x="111" y="273" type="line"/>
      <point x="357" y="273" type="line" smooth="yes"/>
      <point x="518" y="273"/>
      <point x="623" y="355"/>
      <point x="623" y="483" type="curve" smooth="yes"/>
      <point x="623" y="621"/>
      <point x="543" y="680"/>
      <point x="357" y="680" type="curve" smooth="yes"/>
      <point x="111" y="680" type="line"/>
      <point x="111" y="590" type="line"/>
      <point x="357" y="590" type="line" smooth="yes"/>
      <point x="472" y="590"/>
      <point x="528" y="550"/>
      <point x="528" y="483" type="curve" smooth="yes"/>
      <point x="528" y="403"/>
      <point x="480" y="363"/>
      <point x="357" y="363" type="curve" smooth="yes"/>
      <point x="111" y="363" type="line"/>
    </contour>
    <contour>
      <point x="313" y="309" type="line"/>
      <point x="503" y="0" type="line"/>
      <point x="627" y="0" type="line"/>
      <point x="431" y="309" type="line"/>
    </contour>
  </outline>
  <guideline angle="90" name="h_1" x="326" y="0"/>
</glyph>
<glyph name="U" format="2">
  <advance width="661"/>
  <unicode hex="0055"/>
  <anchor x="330" y="740" name="top"/>
  <anchor x="330" y="-40" name="bottom"/>
  <anchor x="331" y="10" name="b.ogonek"/>
  <anchor x="330" y="740" name="t.ring"/>
  <outline>
    <contour>
      <point x="50" y="235" type="line" smooth="yes"/>
      <point x="50" y="86"/>
      <point x="128" y="-11"/>
      <point x="331" y="-11" type="curve" smooth="yes"/>
      <point x="534" y="-11"/>
      <point x="611" y="86"/>
      <point x="611" y="235" type="curve" smooth="yes"/>
      <point x="611" y="680" type="line"/>
      <point x="511" y="680" type="line"/>
      <point x="511" y="275" type="line" smooth="yes"/>
      <point x="511" y="123"/>
      <point x="449" y="89"/>
      <point x="331" y="89" type="curve" smooth="yes"/>
      <point x="212" y="89"/>
      <point x="150" y="123"/>
      <point x="150" y="275" type="curve" smooth="yes"/>
      <point x="150" y="680" type="line"/>
      <point x="50" y="680" type="line"/>
    </contour>
  </outline>
  <guideline angle="90" name="h_1" x="330" y="0"/>
</glyph>
<glyph name="V" format="2">
  <advance width="650"/>
  <unicode hex="0056"/>
  <anchor x="317" y="-40" name="bottom"/>
  <anchor x="317" y="740" name="top"/>
  <outline>
    <contour>
      <point x="10" y="680" type="line"/>
      <point x="270" y="0" type="line"/>
      <point x="380" y="0" type="line"/>
      <point x="640" y="680" type="line"/>
      <point x="540" y="680" type="line"/>
      <point x="371" y="243" type="line" smooth="yes"/>
      <point x="359" y="211"/>
      <point x="339" y="143"/>
      <point x="327" y="86" type="curve"/>
      <point x="331" y="88" type="line"/>
      <point x="320" y="88" type="line"/>
      <point x="325" y="86" type="line"/>
      <point x="313" y="143"/>
      <point x="291" y="211"/>
      <point x="279" y="243" type="curve" smooth="yes"/>
      <point x="111" y="680" type="line"/>
    </contour>
  </outline>
  <guideline angle="90" name="h_1" x="317" y="0"/>
  <guideline angle="0" x="0" y="230"/>
</glyph>
<glyph name="Z" format="2">
  <advance width="627"/>
  <unicode hex="005A"/>
  <anchor x="317" y="740" name="top"/>
  <anchor x="317" y="-40" name="bottom"/>
  <outline>
    <contour>
      <point x="62" y="0" type="line"/>
      <point x="567" y="0" type="line"/>
      <point x="567" y="90" type="line"/>
      <point x="179" y="90" type="line"/>
      <point x="179" y="93" type="line"/>
      <point x="566" y="597" type="line"/>
      <point x="566" y="680" type="line"/>
      <point x="65" y="680" type="line"/>
      <point x="65" y="590" type="line"/>
      <point x="450" y="590" type="line"/>
      <point x="450" y="587" type="line"/>
      <point x="62" y="83" type="line"/>
    </contour>
  </outline>
  <guideline angle="52.4445" x="49" y="80"/>
  <guideline angle="90" name="h_1" x="317" y="0"/>
</glyph>
<glyph name="grave" format="2">
  <advance width="257"/>
  <unicode hex="0060"/>
  <outline>
    <contour>
      <point x="40" y="700" type="line"/>
      <point x="137" y="540" type="line"/>
      <point x="217" y="540" type="line"/>
      <point x="152" y="700" type="line"/>
    </contour>
  </outline>
  <guideline angle="0" x="0" y="700"/>
</glyph>
<glyph name="a" format="2">
  <advance width="569"/>
  <unicode hex="0061"/>
  <anchor x="285" y="530" name="top"/>
  <anchor x="285" y="-40" name="bottom"/>
  <anchor x="285" y="530" name="t.ring"/>
  <outline>
    <contour>
      <point x="71" y="326" type="curve"/>
      <point x="161" y="326" type="line"/>
      <point x="167" y="373"/>
      <point x="210" y="400"/>
      <point x="282" y="400" type="curve" smooth="yes"/>
      <point x="355" y="400"/>
      <point x="411" y="368"/>
      <point x="411" y="327" type="curve" smooth="yes"/>
      <point x="411" y="59" type="line"/>
      <point x="435" y="0" type="line"/>
      <point x="503" y="0" type="line"/>
      <point x="503" y="315" type="line" smooth="yes"/>
      <point x="503" y="416"/>
      <point x="425" y="472"/>
      <point x="285" y="472" type="curve" smooth="yes"/>
      <point x="166" y="472"/>
      <point x="80" y="412"/>
    </contour>
    <contour>
      <point x="40" y="123" type="curve" smooth="yes"/>
      <point x="40" y="43"/>
      <point x="107" y="-12"/>
      <point x="203" y="-12" type="curve" smooth="yes"/>
      <point x="280" y="-12"/>
      <point x="384" y="16"/>
      <point x="429" y="58" type="curve"/>
      <point x="429" y="106" type="line"/>
      <point x="403" y="80"/>
      <point x="312" y="64"/>
      <point x="238" y="64" type="curve" smooth="yes"/>
      <point x="172" y="64"/>
      <point x="132" y="87"/>
      <point x="132" y="123" type="curve" smooth="yes"/>
      <point x="132" y="171"/>
      <point x="197" y="211"/>
      <point x="315" y="223" type="curve" smooth="yes"/>
      <point x="438" y="235" type="line"/>
      <point x="438" y="288" type="line"/>
      <point x="312" y="281" type="line" smooth="yes"/>
      <point x="137" y="271"/>
      <point x="40" y="210"/>
    </contour>
  </outline>
  <guideline angle="90" name="h_1" x="285" y="0"/>
</glyph>
<glyph name="b" format="2">
  <advance width="607"/>
  <unicode hex="0062"/>
  <anchor x="320" y="740" name="top"/>
  <anchor x="320" y="-40" name="bottom"/>
  <outline>
    <contour>
      <point x="66" y="0" type="line"/>
      <point x="142" y="0" type="line"/>
      <point x="154" y="58" type="line"/>
      <point x="154" y="400" type="line"/>
      <point x="157" y="407"/>
      <point x="158" y="413"/>
      <point x="158" y="420" type="curve" smooth="yes"/>
      <point x="158" y="700" type="line"/>
      <point x="66" y="700" type="line"/>
    </contour>
    <contour>
      <point x="134" y="58" type="line"/>
      <point x="157" y="58" type="line"/>
      <point x="199" y="15"/>
      <point x="262" y="-12"/>
      <point x="320" y="-12" type="curve" smooth="yes"/>
      <point x="466" y="-12"/>
      <point x="567" y="87"/>
      <point x="567" y="230" type="curve" smooth="yes"/>
      <point x="567" y="375"/>
      <point x="468" y="472"/>
      <point x="320" y="472" type="curve" smooth="yes"/>
      <point x="256" y="472"/>
      <point x="190" y="443"/>
      <point x="157" y="400" type="curve"/>
      <point x="134" y="400" type="line"/>
    </contour>
    <contour>
      <point x="154" y="224" type="curve" smooth="yes"/>
      <point x="154" y="234" type="line" smooth="yes"/>
      <point x="154" y="332"/>
      <point x="216" y="396"/>
      <point x="310" y="396" type="curve" smooth="yes"/>
      <point x="409" y="396"/>
      <point x="475" y="330"/>
      <point x="475" y="231" type="curve" smooth="yes"/>
      <point x="475" y="130"/>
      <point x="410" y="64"/>
      <point x="310" y="64" type="curve" smooth="yes"/>
      <point x="219" y="64"/>
      <point x="154" y="131"/>
    </contour>
  </outline>
  <guideline angle="90" name="h_1" x="320" y="0"/>
</glyph>
<glyph name="c" format="2">
  <advance width="580"/>
  <unicode hex="0063"/>
  <anchor x="294" y="530" name="top"/>
  <anchor x="294" y="-40" name="bottom"/>
  <anchor x="273" y="0" name="b.cedilla"/>
  <outline>
    <contour>
      <point x="40" y="230" type="curve" smooth="yes"/>
      <point x="40" y="86"/>
      <point x="142" y="-12"/>
      <point x="294" y="-12" type="curve" smooth="yes"/>
      <point x="417" y="-12"/>
      <point x="499" y="53"/>
      <point x="540" y="153" type="curve"/>
      <point x="445" y="153" type="line"/>
      <point x="423" y="105"/>
      <point x="369" y="64"/>
      <point x="294" y="64" type="curve" smooth="yes"/>
      <point x="196" y="64"/>
      <point x="132" y="130"/>
      <point x="132" y="230" type="curve" smooth="yes"/>
      <point x="132" y="326"/>
      <point x="201" y="396"/>
      <point x="294" y="396" type="curve" smooth="yes"/>
      <point x="367" y="396"/>
      <point x="425" y="361"/>
      <point x="443" y="317" type="curve"/>
      <point x="539" y="317" type="line"/>
      <point x="505" y="415"/>
      <point x="423" y="472"/>
      <point x="294" y="472" type="curve" smooth="yes"/>
      <point x="143" y="472"/>
      <point x="40" y="374"/>
    </contour>
  </outline>
  <guideline angle="90" name="h_1" x="294" y="0"/>
</glyph>
<glyph name="d" format="2">
  <advance width="607"/>
  <unicode hex="0064"/>
  <anchor x="287" y="740" name="top"/>
  <anchor x="287" y="-50" name="bottom"/>
  <anchor x="270" y="0" name="b.cedilla"/>
  <anchor x="607" y="700" name="t.quoteright"/>
  <outline>
    <contour>
      <point x="40" y="230" type="curve" smooth="yes"/>
      <point x="40" y="355"/>
      <point x="131" y="472"/>
      <point x="287" y="472" type="curve" smooth="yes"/>
      <point x="351" y="472"/>
      <point x="417" y="443"/>
      <point x="450" y="400" type="curve"/>
      <point x="463" y="400" type="line"/>
      <point x="463" y="58" type="line"/>
      <point x="450" y="58" type="line"/>
      <point x="414" y="21"/>
      <point x="353" y="-12"/>
      <point x="287" y="-12" type="curve" smooth="yes"/>
      <point x="83" y="-12"/>
      <point x="40" y="144"/>
    </contour>
    <contour>
      <point x="132" y="231" type="curve" smooth="yes"/>
      <point x="132" y="163"/>
      <point x="165" y="64"/>
      <point x="297" y="64" type="curve" smooth="yes"/>
      <point x="372" y="64"/>
      <point x="453" y="114"/>
      <point x="453" y="224" type="curve" smooth="yes"/>
      <point x="453" y="234" type="line" smooth="yes"/>
      <point x="453" y="344"/>
      <point x="381" y="396"/>
      <point x="297" y="396" type="curve" smooth="yes"/>
      <point x="181" y="396"/>
      <point x="132" y="332"/>
    </contour>
    <contour>
      <point x="453" y="58" type="line"/>
      <point x="453" y="400" type="line"/>
      <point x="450" y="407"/>
      <point x="449" y="413"/>
      <point x="449" y="420" type="curve" smooth="yes"/>
      <point x="449" y="700" type="line"/>
      <point x="541" y="700" type="line"/>
      <point x="541" y="0" type="line"/>
      <point x="465" y="0" type="line"/>
    </contour>
  </outline>
  <guideline angle="90" name="h_1" x="287" y="0"/>
</glyph>
<glyph name="e" format="2">
  <advance width="592"/>
  <unicode hex="0065"/>
  <anchor x="292" y="530" name="top"/>
  <anchor x="292" y="-40" name="bottom"/>
  <anchor x="383" y="0" name="b.ogonek"/>
  <anchor x="274" y="0" name="b.cedilla"/>
  <outline>
    <contour>
      <point x="40" y="230" type="curve" smooth="yes"/>
      <point x="40" y="83"/>
      <point x="141" y="-12"/>
      <point x="297" y="-12" type="curve" smooth="yes"/>
      <point x="418" y="-12"/>
      <point x="500" y="42"/>
      <point x="538" y="145" type="curve"/>
      <point x="442" y="145" type="line"/>
      <point x="417" y="95"/>
      <point x="367" y="66"/>
      <point x="298" y="66" type="curve" smooth="yes"/>
      <point x="194" y="66"/>
      <point x="132" y="129"/>
      <point x="132" y="240" type="curve" smooth="yes"/>
      <point x="132" y="329"/>
      <point x="194" y="394"/>
      <point x="298" y="394" type="curve" smooth="yes"/>
      <point x="385" y="394"/>
      <point x="448" y="347"/>
      <point x="452" y="279" type="curve"/>
      <point x="111" y="279" type="line"/>
      <point x="111" y="208" type="line"/>
      <point x="552" y="208" type="line"/>
      <point x="552" y="239" type="line" smooth="yes"/>
      <point x="552" y="379"/>
      <point x="450" y="472"/>
      <point x="297" y="472" type="curve" smooth="yes"/>
      <point x="142" y="472"/>
      <point x="40" y="375"/>
    </contour>
  </outline>
  <guideline angle="90" name="h_1" x="292" y="0"/>
</glyph>
<glyph name="f" format="2">
  <advance width="332"/>
  <unicode hex="0066"/>
  <anchor x="203" y="-40" name="bottom"/>
  <anchor x="192" y="740" name="top"/>
  <outline>
    <contour>
      <point x="100" y="0" type="line"/>
      <point x="192" y="0" type="line"/>
      <point x="192" y="500" type="line" smooth="yes"/>
      <point x="192" y="599"/>
      <point x="210" y="628"/>
      <point x="306" y="628" type="curve" smooth="yes"/>
      <point x="317" y="628" type="line"/>
      <point x="317" y="700" type="line"/>
      <point x="306" y="700" type="line" smooth="yes"/>
      <point x="127" y="700"/>
      <point x="100" y="642"/>
      <point x="100" y="500" type="curve" smooth="yes"/>
    </contour>
    <contour>
      <point x="6" y="380" type="line"/>
      <point x="297" y="380" type="line"/>
      <point x="297" y="460" type="line"/>
      <point x="6" y="460" type="line"/>
    </contour>
  </outline>
  <guideline angle="90" name="h_1" x="192" y="0"/>
</glyph>
<glyph name="g" format="2">
  <advance width="608"/>
  <unicode hex="0067"/>
  <anchor x="290" y="530" name="top"/>
  <outline>
    <contour>
      <point x="58" y="-51" type="line"/>
      <point x="72" y="-110"/>
      <point x="140" y="-200"/>
      <point x="292" y="-200" type="curve" smooth="yes"/>
      <point x="433" y="-200"/>
      <point x="542" y="-146"/>
      <point x="542" y="27" type="curve" smooth="yes"/>
      <point x="542" y="30" type="line"/>
      <point x="450" y="30" type="line"/>
      <point x="450" y="23" type="line" smooth="yes"/>
      <point x="450" y="-88"/>
      <point x="387" y="-128"/>
      <point x="295" y="-128" type="curve" smooth="yes"/>
      <point x="243" y="-128"/>
      <point x="176" y="-107"/>
      <point x="153" y="-51" type="curve"/>
    </contour>
    <contour>
      <point x="40" y="244" type="curve" smooth="yes"/>
      <point x="40" y="154"/>
      <point x="83" y="10"/>
      <point x="287" y="10" type="curve" smooth="yes"/>
      <point x="353" y="10"/>
      <point x="414" y="31"/>
      <point x="450" y="68" type="curve"/>
      <point x="463" y="68" type="line"/>
      <point x="463" y="400" type="line"/>
      <point x="450" y="400" type="line"/>
      <point x="422" y="444"/>
      <point x="359" y="472"/>
      <point x="287" y="472" type="curve" smooth="yes"/>
      <point x="139" y="472"/>
      <point x="40" y="381"/>
    </contour>
    <contour>
      <point x="132" y="244" type="curve" smooth="yes"/>
      <point x="132" y="336"/>
      <point x="192" y="398"/>
      <point x="290" y="398" type="curve" smooth="yes"/>
      <point x="374" y="398"/>
      <point x="453" y="354"/>
      <point x="453" y="244" type="curve" smooth="yes"/>
      <point x="453" y="234" type="line" smooth="yes"/>
      <point x="453" y="134"/>
      <point x="372" y="86"/>
      <point x="297" y="86" type="curve" smooth="yes"/>
      <point x="165" y="86"/>
      <point x="132" y="173"/>
    </contour>
    <contour>
      <point x="450" y="0" type="line"/>
      <point x="542" y="0" type="line"/>
      <point x="542" y="460" type="line"/>
      <point x="475" y="460" type="line"/>
      <point x="453" y="400" type="line"/>
      <point x="453" y="68" type="line"/>
      <point x="450" y="49" type="line"/>
    </contour>
  </outline>
  <guideline angle="90" name="h_1" x="290" y="0"/>
</glyph>
<glyph name="h" format="2">
  <advance width="622"/>
  <unicode hex="0068"/>
  <anchor x="320" y="-40" name="bottom"/>
  <anchor x="320" y="740" name="top"/>
  <anchor x="484" y="0" name="b.cedilla"/>
  <outline>
    <contour>
      <point x="66" y="0" type="line"/>
      <point x="158" y="0" type="line"/>
      <point x="158" y="700" type="line"/>
      <point x="66" y="700" type="line"/>
    </contour>
    <contour>
      <point x="108" y="240" type="line"/>
      <point x="159" y="240" type="line"/>
      <point x="159" y="325"/>
      <point x="236" y="397"/>
      <point x="327" y="397" type="curve" smooth="yes"/>
      <point x="414" y="397"/>
      <point x="464" y="350"/>
      <point x="464" y="275" type="curve" smooth="yes"/>
      <point x="464" y="0" type="line"/>
      <point x="556" y="0" type="line"/>
      <point x="556" y="295" type="line" smooth="yes"/>
      <point x="556" y="400"/>
      <point x="469" y="472"/>
      <point x="341" y="472" type="curve" smooth="yes"/>
      <point x="255" y="472"/>
      <point x="186" y="441"/>
      <point x="140" y="382" type="curve"/>
      <point x="184" y="382" type="line"/>
      <point x="184" y="408" type="line"/>
      <point x="108" y="408" type="line"/>
    </contour>
  </outline>
  <guideline angle="90" name="h_1" x="320" y="0"/>
</glyph>
<glyph name="k" format="2">
  <advance width="537"/>
  <unicode hex="006B"/>
  <anchor x="271" y="-50" name="bottom"/>
  <anchor x="280" y="740" name="top"/>
  <outline>
    <contour>
      <point x="66" y="0" type="line"/>
      <point x="158" y="0" type="line"/>
      <point x="158" y="700" type="line"/>
      <point x="66" y="700" type="line"/>
    </contour>
    <contour>
      <point x="118" y="93" type="line"/>
      <point x="492" y="460" type="line"/>
      <point x="366" y="460" type="line"/>
      <point x="118" y="211" type="line"/>
    </contour>
    <contour>
      <point x="207" y="227" type="line"/>
      <point x="396" y="0" type="line"/>
      <point x="518" y="0" type="line"/>
      <point x="276" y="296" type="line"/>
    </contour>
  </outline>
  <guideline angle="45.6794" x="256" y="300"/>
  <guideline angle="309.04" x="279" y="279"/>
  <guideline angle="129.38" x="381" y="0"/>
  <guideline angle="90" name="h_1" x="280" y="0"/>
</glyph>
<glyph name="m" format="2">
  <advance width="964"/>
  <unicode hex="006D"/>
  <anchor x="482" y="-40" name="bottom"/>
  <anchor x="482" y="530" name="top"/>
  <outline>
    <contour>
      <point x="470" y="243" type="line"/>
      <point x="528" y="243" type="line"/>
      <point x="528" y="325"/>
      <point x="602" y="397"/>
      <point x="687" y="397" type="curve" smooth="yes"/>
      <point x="765" y="397"/>
      <point x="806" y="361"/>
      <point x="806" y="293" type="curve" smooth="yes"/>
      <point x="806" y="0" type="line"/>
      <point x="898" y="0" type="line"/>
      <point x="898" y="295" type="line" smooth="yes"/>
      <point x="898" y="409"/>
      <point x="829" y="472"/>
      <point x="705" y="472" type="curve" smooth="yes"/>
      <point x="621" y="472"/>
      <point x="565" y="449"/>
      <point x="500" y="388" type="curve"/>
      <point x="539" y="388" type="line"/>
      <point x="539" y="398" type="line"/>
      <point x="470" y="398" type="line"/>
    </contour>
    <contour>
      <point x="100" y="243" type="line"/>
      <point x="158" y="243" type="line"/>
      <point x="158" y="326"/>
      <point x="232" y="397"/>
      <point x="318" y="397" type="curve" smooth="yes"/>
      <point x="396" y="397"/>
      <point x="436" y="362"/>
      <point x="436" y="293" type="curve" smooth="yes"/>
      <point x="436" y="0" type="line"/>
      <point x="528" y="0" type="line"/>
      <point x="528" y="295" type="line" smooth="yes"/>
      <point x="528" y="408"/>
      <point x="460" y="472"/>
      <point x="340" y="472" type="curve" smooth="yes"/>
      <point x="254" y="472"/>
      <point x="162" y="425"/>
      <point x="110" y="355" type="curve"/>
      <point x="177" y="355" type="line"/>
      <point x="177" y="401" type="line"/>
      <point x="100" y="401" type="line"/>
    </contour>
    <contour>
      <point x="66" y="0" type="line"/>
      <point x="158" y="0" type="line"/>
      <point x="158" y="404" type="line"/>
      <point x="154" y="404" type="line"/>
      <point x="133" y="460" type="line"/>
      <point x="66" y="460" type="line"/>
    </contour>
  </outline>
  <guideline angle="90" name="h_1" x="482" y="0"/>
</glyph>
<glyph name="n" format="2">
  <advance width="621"/>
  <unicode hex="006E"/>
  <anchor x="312" y="540" name="top"/>
  <anchor x="312" y="-50" name="bottom"/>
  <outline>
    <contour>
      <point x="66" y="0" type="line"/>
      <point x="158" y="0" type="line"/>
      <point x="158" y="404" type="line"/>
      <point x="154" y="404" type="line"/>
      <point x="133" y="460" type="line"/>
      <point x="66" y="460" type="line"/>
    </contour>
    <contour>
      <point x="107" y="240" type="line"/>
      <point x="158" y="240" type="line"/>
      <point x="158" y="325"/>
      <point x="235" y="397"/>
      <point x="326" y="397" type="curve" smooth="yes"/>
      <point x="413" y="397"/>
      <point x="463" y="350"/>
      <point x="463" y="275" type="curve" smooth="yes"/>
      <point x="463" y="0" type="line"/>
      <point x="555" y="0" type="line"/>
      <point x="555" y="295" type="line" smooth="yes"/>
      <point x="555" y="400"/>
      <point x="468" y="472"/>
      <point x="340" y="472" type="curve" smooth="yes"/>
      <point x="254" y="472"/>
      <point x="185" y="441"/>
      <point x="139" y="382" type="curve"/>
      <point x="183" y="382" type="line"/>
      <point x="183" y="395" type="line"/>
      <point x="107" y="395" type="line"/>
    </contour>
  </outline>
  <guideline angle="90" name="h_1" x="312" y="0"/>
</glyph>
<glyph name="p" format="2">
  <advance width="607"/>
  <unicode hex="0070"/>
  <anchor x="281" y="-40" name="bottom"/>
  <anchor x="281" y="530" name="top"/>
  <outline>
    <contour>
      <point x="66" y="-200" type="line"/>
      <point x="158" y="-200" type="line"/>
      <point x="158" y="39" type="line" smooth="yes"/>
      <point x="158" y="45"/>
      <point x="155" y="52"/>
      <point x="154" y="58" type="curve"/>
      <point x="154" y="400" type="line"/>
      <point x="131" y="459" type="line"/>
      <point x="66" y="459" type="line"/>
    </contour>
    <contour>
      <point x="134" y="58" type="line"/>
      <point x="157" y="58" type="line"/>
      <point x="199" y="15"/>
      <point x="262" y="-12"/>
      <point x="320" y="-12" type="curve" smooth="yes"/>
      <point x="466" y="-12"/>
      <point x="567" y="87"/>
      <point x="567" y="230" type="curve" smooth="yes"/>
      <point x="567" y="375"/>
      <point x="468" y="472"/>
      <point x="320" y="472" type="curve" smooth="yes"/>
      <point x="256" y="472"/>
      <point x="190" y="443"/>
      <point x="157" y="400" type="curve"/>
      <point x="134" y="400" type="line"/>
    </contour>
    <contour>
      <point x="154" y="224" type="curve" smooth="yes"/>
      <point x="154" y="234" type="line" smooth="yes"/>
      <point x="154" y="332"/>
      <point x="216" y="396"/>
      <point x="310" y="396" type="curve" smooth="yes"/>
      <point x="409" y="396"/>
      <point x="475" y="330"/>
      <point x="475" y="231" type="curve" smooth="yes"/>
      <point x="475" y="130"/>
      <point x="410" y="64"/>
      <point x="310" y="64" type="curve" smooth="yes"/>
      <point x="219" y="64"/>
      <point x="154" y="131"/>
    </contour>
  </outline>
  <guideline angle="90" name="h_1" x="281" y="0"/>
</glyph>
<glyph name="q" format="2">
  <advance width="607"/>
  <unicode hex="0071"/>
  <outline>
    <contour>
      <point x="449" y="-200" type="line"/>
      <point x="541" y="-200" type="line"/>
      <point x="541" y="460" type="line"/>
      <point x="465" y="460" type="line"/>
      <point x="453" y="402" type="line"/>
      <point x="453" y="100" type="line"/>
      <point x="450" y="93"/>
      <point x="449" y="87"/>
      <point x="449" y="80" type="curve" smooth="yes"/>
    </contour>
    <contour>
      <point x="40" y="230" type="curve" smooth="yes"/>
      <point x="40" y="144"/>
      <point x="83" y="-12"/>
      <point x="287" y="-12" type="curve" smooth="yes"/>
      <point x="353" y="-12"/>
      <point x="414" y="21"/>
      <point x="450" y="58" type="curve"/>
      <point x="463" y="58" type="line"/>
      <point x="463" y="400" type="line"/>
      <point x="450" y="400" type="line"/>
      <point x="417" y="443"/>
      <point x="351" y="472"/>
      <point x="287" y="472" type="curve" smooth="yes"/>
      <point x="131" y="472"/>
      <point x="40" y="355"/>
    </contour>
    <contour>
      <point x="132" y="231" type="curve" smooth="yes"/>
      <point x="132" y="332"/>
      <point x="181" y="398"/>
      <point x="297" y="398" type="curve" smooth="yes"/>
      <point x="381" y="398"/>
      <point x="453" y="344"/>
      <point x="453" y="234" type="curve" smooth="yes"/>
      <point x="453" y="224" type="line" smooth="yes"/>
      <point x="453" y="114"/>
      <point x="372" y="64"/>
      <point x="297" y="64" type="curve" smooth="yes"/>
      <point x="165" y="64"/>
      <point x="132" y="163"/>
    </contour>
  </outline>
</glyph>
<glyph name="s" format="2">
  <advance width="535"/>
  <unicode hex="0073"/>
  <anchor x="265" y="530" name="top"/>
  <anchor x="265" y="-40" name="bottom"/>
  <anchor x="264" y="0" name="b.cedilla"/>
  <outline>
    <contour>
      <point x="40" y="137" type="line"/>
      <point x="40" y="55"/>
      <point x="148" y="-12"/>
      <point x="280" y="-12" type="curve" smooth="yes"/>
      <point x="418" y="-12"/>
      <point x="495" y="39"/>
      <point x="495" y="131" type="curve" smooth="yes"/>
      <point x="495" y="294"/>
      <point x="155" y="266"/>
      <point x="155" y="337" type="curve" smooth="yes"/>
      <point x="155" y="375"/>
      <point x="191" y="396"/>
      <point x="255" y="396" type="curve" smooth="yes"/>
      <point x="319" y="396"/>
      <point x="380" y="375"/>
      <point x="380" y="334" type="curve"/>
      <point x="472" y="334" type="line"/>
      <point x="472" y="410"/>
      <point x="374" y="472"/>
      <point x="254" y="472" type="curve" smooth="yes"/>
      <point x="139" y="472"/>
      <point x="63" y="419"/>
      <point x="63" y="338" type="curve" smooth="yes"/>
      <point x="63" y="179"/>
      <point x="403" y="229"/>
      <point x="403" y="131" type="curve" smooth="yes"/>
      <point x="403" y="93"/>
      <point x="348" y="64"/>
      <point x="280" y="64" type="curve" smooth="yes"/>
      <point x="199" y="64"/>
      <point x="132" y="97"/>
      <point x="132" y="137" type="curve"/>
    </contour>
  </outline>
  <guideline angle="90" name="h_1" x="265" y="0"/>
</glyph>
<glyph name="t" format="2">
  <advance width="342"/>
  <unicode hex="0074"/>
  <anchor x="219" y="-40" name="bottom"/>
  <anchor x="164" y="660" name="top"/>
  <anchor x="284" y="700" name="t.quoteright"/>
  <outline>
    <contour>
      <point x="16" y="380" type="line"/>
      <point x="307" y="380" type="line"/>
      <point x="307" y="460" type="line"/>
      <point x="110" y="460" type="line"/>
      <point x="16" y="442" type="line"/>
    </contour>
    <contour>
      <point x="110" y="180" type="line" smooth="yes"/>
      <point x="110" y="44"/>
      <point x="138" y="-9"/>
      <point x="286" y="-9" type="curve" smooth="yes"/>
      <point x="316" y="-9" type="line"/>
      <point x="316" y="63" type="line"/>
      <point x="285" y="63" type="line" smooth="yes"/>
      <point x="218" y="63"/>
      <point x="202" y="90"/>
      <point x="202" y="188" type="curve" smooth="yes"/>
      <point x="202" y="610" type="line"/>
      <point x="135" y="610" type="line"/>
      <point x="117" y="453" type="line"/>
      <point x="110" y="453" type="line"/>
    </contour>
  </outline>
  <guideline angle="90" name="h_1" x="132" y="0"/>
</glyph>
<glyph name="u" format="2">
  <advance width="611"/>
  <unicode hex="0075"/>
  <anchor x="306" y="540" name="top"/>
  <anchor x="306" y="-40" name="bottom"/>
  <anchor x="306" y="540" name="t.ring"/>
  <outline>
    <contour>
      <point x="66" y="165" type="line" smooth="yes"/>
      <point x="66" y="52"/>
      <point x="136" y="-12"/>
      <point x="259" y="-12" type="curve" smooth="yes"/>
      <point x="367" y="-12"/>
      <point x="422" y="23"/>
      <point x="464" y="68" type="curve"/>
      <point x="449" y="68" type="line"/>
      <point x="449" y="63" type="line"/>
      <point x="469" y="63" type="line"/>
      <point x="469" y="210" type="line"/>
      <point x="453" y="210" type="line"/>
      <point x="453" y="126"/>
      <point x="381" y="63"/>
      <point x="285" y="63" type="curve" smooth="yes"/>
      <point x="170" y="63"/>
      <point x="158" y="126"/>
      <point x="158" y="170" type="curve" smooth="yes"/>
      <point x="158" y="460" type="line"/>
      <point x="66" y="460" type="line"/>
    </contour>
    <contour>
      <point x="453" y="58" type="line"/>
      <point x="457" y="58" type="line"/>
      <point x="475" y="0" type="line"/>
      <point x="545" y="0" type="line"/>
      <point x="545" y="460" type="line"/>
      <point x="453" y="460" type="line"/>
    </contour>
  </outline>
  <guideline angle="90" name="h_1" x="306" y="0"/>
</glyph>
<glyph name="y" format="2">
  <advance width="529"/>
  <unicode hex="0079"/>
  <anchor x="267" y="540" name="top"/>
  <anchor x="410" y="-50" name="bottom"/>
  <outline>
    <contour>
      <point x="86" y="-200" type="line"/>
      <point x="137" y="-200" type="line" smooth="yes"/>
      <point x="210" y="-200"/>
      <point x="250" y="-163"/>
      <point x="297" y="-49" type="curve" smooth="yes"/>
      <point x="512" y="460" type="line"/>
      <point x="425" y="460" type="line"/>
      <point x="263" y="63" type="line"/>
      <point x="252" y="37" type="line"/>
      <point x="217" y="-47" type="line" smooth="yes"/>
      <point x="197" y="-95"/>
      <point x="164" y="-128"/>
      <point x="116" y="-128" type="curve" smooth="yes"/>
      <point x="86" y="-128" type="line"/>
    </contour>
    <contour>
      <point x="17" y="460" type="line"/>
      <point x="232" y="-19" type="line"/>
      <point x="282" y="72" type="line"/>
      <point x="110" y="460" type="line"/>
    </contour>
  </outline>
</glyph>
<glyph name="z" format="2">
  <advance width="539"/>
  <unicode hex="007A"/>
  <anchor x="264" y="530" name="top"/>
  <anchor x="264" y="-40" name="bottom"/>
  <outline>
    <contour>
      <point x="49" y="0" type="line"/>
      <point x="489" y="0" type="line"/>
      <point x="489" y="76" type="line"/>
      <point x="179" y="76" type="line"/>
      <point x="181" y="72" type="line"/>
      <point x="489" y="385" type="line"/>
      <point x="489" y="460" type="line"/>
      <point x="49" y="460" type="line"/>
      <point x="49" y="384" type="line"/>
      <point x="372" y="384" type="line"/>
      <point x="371" y="388" type="line"/>
      <point x="49" y="75" type="line"/>
    </contour>
  </outline>
  <guideline angle="90" name="h_1" x="264" y="0"/>
</glyph>
<glyph name="dieresis" format="2">
  <advance width="378"/>
  <unicode hex="00A8"/>
  <anchor x="189" y="540" name="_top"/>
  <outline>
    <contour>
      <point x="58" y="531" type="line"/>
      <point x="150" y="531" type="line"/>
      <point x="150" y="623" type="line"/>
      <point x="58" y="623" type="line"/>
    </contour>
    <contour>
      <point x="228" y="531" type="line"/>
      <point x="320" y="531" type="line"/>
      <point x="320" y="623" type="line"/>
      <point x="228" y="623" type="line"/>
    </contour>
  </outline>
</glyph>
<glyph name="ordfeminine" format="2">
  <advance width="329"/>
  <unicode hex="00AA"/>
  <outline>
    <contour>
      <point x="30" y="548" type="curve"/>
      <point x="90" y="548" type="line"/>
      <point x="95" y="579"/>
      <point x="119" y="596"/>
      <point x="162" y="596" type="curve" smooth="yes"/>
      <point x="208" y="596"/>
      <point x="231" y="577"/>
      <point x="231" y="540" type="curve" smooth="yes"/>
      <point x="231" y="383" type="line"/>
      <point x="246" y="332" type="line"/>
      <point x="293" y="332" type="line"/>
      <point x="293" y="543" type="line" smooth="yes"/>
      <point x="293" y="614"/>
      <point x="252" y="648"/>
      <point x="163" y="648" type="curve" smooth="yes"/>
      <point x="89" y="648"/>
      <point x="38" y="609"/>
    </contour>
    <contour>
      <point x="19" y="411" type="curve" smooth="yes"/>
      <point x="19" y="357"/>
      <point x="57" y="324"/>
      <point x="122" y="324" type="curve" smooth="yes"/>
      <point x="176" y="324"/>
      <point x="235" y="363"/>
      <point x="261" y="387" type="curve"/>
      <point x="255" y="435" type="line"/>
      <point x="226" y="403"/>
      <point x="181" y="376"/>
      <point x="131" y="376" type="curve" smooth="yes"/>
      <point x="106" y="376"/>
      <point x="84" y="391"/>
      <point x="84" y="418" type="curve" smooth="yes"/>
      <point x="84" y="464"/>
      <point x="135" y="486"/>
      <point x="242" y="486" type="curve"/>
      <point x="242" y="530" type="line"/>
      <point x="102" y="530"/>
      <point x="19" y="486"/>
    </contour>
  </outline>
</glyph>
<glyph name="plusminus" format="2">
  <advance width="445"/>
  <unicode hex="00B1"/>
  <outline>
    <contour>
      <point x="48" y="261" type="line"/>
      <point x="184" y="261" type="line"/>
      <point x="184" y="119" type="line"/>
      <point x="261" y="119" type="line"/>
      <point x="261" y="261" type="line"/>
      <point x="397" y="261" type="line"/>
      <point x="397" y="337" type="line"/>
      <point x="261" y="337" type="line"/>
      <point x="261" y="474" type="line"/>
      <point x="184" y="474" type="line"/>
      <point x="184" y="337" type="line"/>
      <point x="48" y="337" type="line"/>
    </contour>
    <contour>
      <point x="48" y="-11" type="line"/>
      <point x="397" y="-11" type="line"/>
      <point x="397" y="65" type="line"/>
      <point x="48" y="65" type="line"/>
    </contour>
  </outline>
</glyph>
<glyph name="uni00B2" format="2">
  <advance width="368"/>
  <unicode hex="00B2"/>
  <outline>
    <contour>
      <point x="53" y="354" type="line"/>
      <point x="311" y="354" type="line"/>
      <point x="311" y="423" type="line"/>
      <point x="101" y="423" type="line"/>
      <point x="112" y="368" type="line"/>
      <point x="231" y="471" type="line"/>
      <point x="289" y="523"/>
      <point x="301" y="552"/>
      <point x="301" y="590" type="curve" smooth="yes"/>
      <point x="301" y="651"/>
      <point x="253" y="692"/>
      <point x="180" y="692" type="curve" smooth="yes"/>
      <point x="98" y="692"/>
      <point x="48" y="641"/>
      <point x="48" y="568" type="curve"/>
      <point x="132" y="568" type="line"/>
      <point x="132" y="600"/>
      <point x="147" y="617"/>
      <point x="176" y="617" type="curve" smooth="yes"/>
      <point x="197" y="617"/>
      <point x="216" y="603"/>
      <point x="216" y="581" type="curve" smooth="yes"/>
      <point x="216" y="561"/>
      <point x="196" y="543"/>
      <point x="161" y="512" type="curve" smooth="yes"/>
      <point x="53" y="418" type="line"/>
    </contour>
  </outline>
</glyph>
<glyph name="acute" format="2">
  <advance width="257"/>
  <unicode hex="00B4"/>
  <outline>
    <contour>
      <point x="40" y="540" type="line"/>
      <point x="120" y="540" type="line"/>
      <point x="217" y="700" type="line"/>
      <point x="105" y="700" type="line"/>
    </contour>
  </outline>
</glyph>
<glyph name="periodcentered" format="2">
  <advance width="188"/>
  <unicode hex="00B7"/>
  <outline>
    <contour>
      <point x="49" y="230" type="line"/>
      <point x="139" y="230" type="line"/>
      <point x="139" y="320" type="line"/>
      <point x="49" y="320" type="line"/>
    </contour>
  </outline>
</glyph>
<glyph name="ordmasculine" format="2">
  <advance width="491"/>
  <unicode hex="00BA"/>
  <outline>
    <contour>
      <point x="40" y="574" type="curve" smooth="yes"/>
      <point x="40" y="477.021"/>
      <point x="122.003" y="413"/>
      <point x="246.221" y="413" type="curve" smooth="yes"/>
      <point x="366.646" y="413"/>
      <point x="451" y="480.556"/>
      <point x="451" y="577" type="curve" smooth="yes"/>
      <point x="451" y="672.762"/>
      <point x="365.933" y="740"/>
      <point x="244.779" y="740" type="curve" smooth="yes"/>
      <point x="121.158" y="740"/>
      <point x="40" y="674.211"/>
    </contour>
    <contour>
      <point x="108" y="575.991" type="curve" smooth="yes"/>
      <point x="108" y="643.176"/>
      <point x="159.636" y="684"/>
      <point x="244.613" y="684" type="curve" smooth="yes"/>
      <point x="323.883" y="684"/>
      <point x="383" y="639.166"/>
      <point x="383" y="579.047" type="curve" smooth="yes"/>
      <point x="383" y="510.777"/>
      <point x="330.464" y="469"/>
      <point x="244.613" y="469" type="curve" smooth="yes"/>
      <point x="165.247" y="469"/>
      <point x="108" y="513.834"/>
    </contour>
  </outline>
</glyph>
<glyph name="AE" format="2">
  <advance width="914"/>
  <unicode hex="00C6"/>
  <anchor x="472" y="740" name="top"/>
  <outline>
    <contour>
      <point x="10" y="0" type="line"/>
      <point x="115" y="0" type="line"/>
      <point x="374" y="632" type="line"/>
      <point x="345" y="610" type="line"/>
      <point x="440" y="610" type="line"/>
      <point x="440" y="0" type="line"/>
      <point x="850" y="0" type="line"/>
      <point x="850" y="90" type="line"/>
      <point x="540" y="90" type="line"/>
      <point x="540" y="302" type="line"/>
      <point x="810" y="302" type="line"/>
      <point x="810" y="392" type="line"/>
      <point x="540" y="392" type="line"/>
      <point x="540" y="610" type="line"/>
      <point x="850" y="610" type="line"/>
      <point x="850" y="700" type="line"/>
      <point x="290" y="700" type="line"/>
    </contour>
    <contour>
      <point x="165" y="282" type="line"/>
      <point x="455" y="282" type="line"/>
      <point x="455" y="372" type="line"/>
      <point x="185" y="372" type="line"/>
    </contour>
  </outline>
</glyph>
<glyph name="Eth" format="2">
  <advance width="694"/>
  <unicode hex="00D0"/>
  <outline>
    <component base="D"/>
    <contour>
      <point x="10" y="315" type="line"/>
      <point x="290" y="315" type="line"/>
      <point x="290" y="405" type="line"/>
      <point x="10" y="405" type="line"/>
    </contour>
  </outline>
</glyph>
<glyph name="Oslash" format="2">
  <advance width="772"/>
  <unicode hex="00D8"/>
  <outline>
    <component base="O"/>
    <contour>
      <point x="19" y="-10" type="line"/>
      <point x="129" y="-10" type="line"/>
      <point x="721" y="690" type="line"/>
      <point x="611" y="690" type="line"/>
    </contour>
  </outline>
</glyph>
<glyph name="Thorn" format="2">
  <advance width="599"/>
  <unicode hex="00DE"/>
  <outline>
    <contour>
      <point x="60" y="0" type="line"/>
      <point x="158" y="0" type="line"/>
      <point x="158" y="681" type="line"/>
      <point x="60" y="681" type="line"/>
    </contour>
    <contour>
      <point x="141" y="101" type="line"/>
      <point x="243" y="101" type="line" smooth="yes"/>
      <point x="471" y="101"/>
      <point x="551" y="219"/>
      <point x="551" y="349" type="curve" smooth="yes"/>
      <point x="551" y="482"/>
      <point x="475" y="597"/>
      <point x="250" y="597" type="curve" smooth="yes"/>
      <point x="141" y="597" type="line"/>
      <point x="141" y="508" type="line"/>
      <point x="243" y="508" type="line" smooth="yes"/>
      <point x="426" y="508"/>
      <point x="453" y="398"/>
      <point x="453" y="348" type="curve" smooth="yes"/>
      <point x="453" y="251"/>
      <point x="401" y="189"/>
      <point x="243" y="189" type="curve" smooth="yes"/>
      <point x="141" y="189" type="line"/>
    </contour>
  </outline>
</glyph>
<glyph name="germandbls" format="2">
  <advance width="670"/>
  <unicode hex="00DF"/>
  <outline>
    <contour>
      <point x="66" y="0" type="line"/>
      <point x="158" y="0" type="line"/>
      <point x="158" y="432" type="line" smooth="yes"/>
      <point x="158" y="557"/>
      <point x="226" y="624"/>
      <point x="342" y="624" type="curve" smooth="yes"/>
      <point x="437" y="624"/>
      <point x="503" y="580"/>
      <point x="503" y="508" type="curve" smooth="yes"/>
      <point x="503" y="442"/>
      <point x="451" y="402"/>
      <point x="366" y="402" type="curve" smooth="yes"/>
      <point x="351" y="402" type="line"/>
      <point x="351" y="322" type="line"/>
      <point x="367" y="322" type="line" smooth="yes"/>
      <point x="482" y="322"/>
      <point x="538" y="279"/>
      <point x="538" y="201" type="curve" smooth="yes"/>
      <point x="538" y="112"/>
      <point x="483" y="64"/>
      <point x="379" y="64" type="curve" smooth="yes"/>
      <point x="307" y="64"/>
      <point x="255" y="70"/>
      <point x="215" y="78" type="curve"/>
      <point x="215" y="0" type="line"/>
      <point x="257" y="-8"/>
      <point x="298" y="-12"/>
      <point x="371" y="-12" type="curve" smooth="yes"/>
      <point x="526" y="-12"/>
      <point x="630" y="72"/>
      <point x="630" y="198" type="curve" smooth="yes"/>
      <point x="630" y="298"/>
      <point x="564" y="359"/>
      <point x="489" y="373" type="curve"/>
      <point x="497" y="367" type="line"/>
      <point x="521" y="383"/>
      <point x="595" y="415"/>
      <point x="595" y="518" type="curve" smooth="yes"/>
      <point x="595" y="629"/>
      <point x="490" y="700"/>
      <point x="341" y="700" type="curve" smooth="yes"/>
      <point x="170" y="700"/>
      <point x="66" y="608"/>
      <point x="66" y="444" type="curve" smooth="yes"/>
    </contour>
  </outline>
</glyph>
<glyph name="ae" format="2">
  <advance width="963"/>
  <unicode hex="00E6"/>
  <anchor x="482" y="530" name="top"/>
  <outline>
    <contour>
      <point x="411" y="230" type="curve" smooth="yes"/>
      <point x="411" y="83"/>
      <point x="512" y="-12"/>
      <point x="668" y="-12" type="curve" smooth="yes"/>
      <point x="789" y="-12"/>
      <point x="871" y="42"/>
      <point x="909" y="145" type="curve"/>
      <point x="813" y="145" type="line"/>
      <point x="788" y="95"/>
      <point x="738" y="66"/>
      <point x="669" y="66" type="curve" smooth="yes"/>
      <point x="565" y="66"/>
      <point x="503" y="129"/>
      <point x="503" y="240" type="curve" smooth="yes"/>
      <point x="503" y="329"/>
      <point x="565" y="394"/>
      <point x="669" y="394" type="curve" smooth="yes"/>
      <point x="756" y="394"/>
      <point x="819" y="347"/>
      <point x="823" y="279" type="curve"/>
      <point x="482" y="279" type="line"/>
      <point x="482" y="208" type="line"/>
      <point x="923" y="208" type="line"/>
      <point x="923" y="239" type="line" smooth="yes"/>
      <point x="923" y="379"/>
      <point x="821" y="472"/>
      <point x="668" y="472" type="curve" smooth="yes"/>
      <point x="513" y="472"/>
      <point x="411" y="375"/>
    </contour>
    <contour>
      <point x="71" y="326" type="curve"/>
      <point x="161" y="326" type="line"/>
      <point x="167" y="373"/>
      <point x="210" y="400"/>
      <point x="282" y="400" type="curve" smooth="yes"/>
      <point x="355" y="400"/>
      <point x="411" y="368"/>
      <point x="411" y="327" type="curve" smooth="yes"/>
      <point x="411" y="139" type="line"/>
      <point x="503" y="139" type="line"/>
      <point x="503" y="315" type="line" smooth="yes"/>
      <point x="503" y="416"/>
      <point x="425" y="472"/>
      <point x="285" y="472" type="curve" smooth="yes"/>
      <point x="166" y="472"/>
      <point x="80" y="412"/>
    </contour>
    <contour>
      <point x="40" y="123" type="curve" smooth="yes"/>
      <point x="40" y="41"/>
      <point x="113" y="-12"/>
      <point x="228" y="-12" type="curve" smooth="yes"/>
      <point x="317" y="-12"/>
      <point x="411" y="42"/>
      <point x="482" y="108" type="curve"/>
      <point x="432" y="158" type="line"/>
      <point x="397" y="116"/>
      <point x="314" y="64"/>
      <point x="230" y="64" type="curve" smooth="yes"/>
      <point x="172" y="64"/>
      <point x="132" y="87"/>
      <point x="132" y="123" type="curve" smooth="yes"/>
      <point x="132" y="171"/>
      <point x="197" y="211"/>
      <point x="315" y="223" type="curve" smooth="yes"/>
      <point x="438" y="235" type="line"/>
      <point x="438" y="288" type="line"/>
      <point x="312" y="281" type="line" smooth="yes"/>
      <point x="137" y="271"/>
      <point x="40" y="210"/>
    </contour>
  </outline>
</glyph>
<glyph name="eth" format="2">
  <advance width="589"/>
  <unicode hex="00F0"/>
  <outline>
    <contour>
      <point x="152" y="628" type="line"/>
      <point x="319" y="554"/>
      <point x="460" y="421"/>
      <point x="460" y="219" type="curve"/>
      <point x="552" y="219" type="line"/>
      <point x="552" y="438"/>
      <point x="384" y="615"/>
      <point x="205" y="693" type="curve"/>
    </contour>
    <contour>
      <point x="202" y="496" type="line"/>
      <point x="443" y="597" type="line"/>
      <point x="405" y="645" type="line"/>
      <point x="164" y="544" type="line"/>
    </contour>
    <contour>
      <point x="40" y="215" type="curve" smooth="yes"/>
      <point x="40" y="73"/>
      <point x="143" y="-12"/>
      <point x="296" y="-12" type="curve" smooth="yes"/>
      <point x="446" y="-12"/>
      <point x="552" y="75"/>
      <point x="552" y="215" type="curve" smooth="yes"/>
      <point x="552" y="357"/>
      <point x="449" y="442"/>
      <point x="296" y="442" type="curve" smooth="yes"/>
      <point x="143" y="442"/>
      <point x="40" y="357"/>
    </contour>
    <contour>
      <point x="132" y="215" type="curve" smooth="yes"/>
      <point x="132" y="314"/>
      <point x="195" y="366"/>
      <point x="296" y="366" type="curve" smooth="yes"/>
      <point x="394" y="366"/>
      <point x="460" y="311"/>
      <point x="460" y="215" type="curve" smooth="yes"/>
      <point x="460" y="116"/>
      <point x="397" y="64"/>
      <point x="296" y="64" type="curve" smooth="yes"/>
      <point x="198" y="64"/>
      <point x="132" y="119"/>
    </contour>
  </outline>
</glyph>
<glyph name="divide" format="2">
  <advance width="502"/>
  <unicode hex="00F7"/>
  <outline>
    <contour>
      <point x="40" y="204" type="line"/>
      <point x="462" y="204" type="line"/>
      <point x="462" y="282" type="line"/>
      <point x="40" y="282" type="line"/>
    </contour>
    <contour>
      <point x="206" y="34" type="line"/>
      <point x="296" y="34" type="line"/>
      <point x="296" y="124" type="line"/>
      <point x="206" y="124" type="line"/>
    </contour>
    <contour>
      <point x="206" y="362" type="line"/>
      <point x="296" y="362" type="line"/>
      <point x="296" y="452" type="line"/>
      <point x="206" y="452" type="line"/>
    </contour>
  </outline>
  <guideline angle="90" x="251" y="0"/>
</glyph>
<glyph name="oslash" format="2">
  <advance width="480"/>
  <unicode hex="00F8"/>
  <outline>
    <contour>
      <point x="-6" y="-13" type="line"/>
      <point x="55" y="-64" type="line"/>
      <point x="125" y="19" type="line"/>
      <point x="154" y="0"/>
      <point x="192" y="-11"/>
      <point x="239" y="-11" type="curve" smooth="yes"/>
      <point x="373" y="-11"/>
      <point x="444" y="95"/>
      <point x="444" y="229" type="curve"/>
      <point x="445" y="230" type="line"/>
      <point x="445" y="282"/>
      <point x="436" y="329"/>
      <point x="417" y="367" type="curve"/>
      <point x="505" y="472" type="line"/>
      <point x="444" y="523" type="line"/>
      <point x="366" y="430" type="line"/>
      <point x="334" y="455"/>
      <point x="292" y="469"/>
      <point x="240" y="469" type="curve" smooth="yes"/>
      <point x="99" y="469"/>
      <point x="35" y="367"/>
      <point x="35" y="229" type="curve" smooth="yes"/>
      <point x="35" y="172"/>
      <point x="45" y="119"/>
      <point x="70" y="77" type="curve"/>
    </contour>
    <contour>
      <point x="172" y="75" type="curve"/>
      <point x="358" y="296" type="line"/>
      <point x="362" y="277"/>
      <point x="364" y="255"/>
      <point x="364" y="229" type="curve" smooth="yes"/>
      <point x="364" y="104"/>
      <point x="312" y="54"/>
      <point x="239" y="54" type="curve" smooth="yes"/>
      <point x="214" y="54"/>
      <point x="191" y="61"/>
    </contour>
    <contour>
      <point x="126" y="144" type="line"/>
      <point x="119" y="167"/>
      <point x="115" y="195"/>
      <point x="115" y="228" type="curve" smooth="yes"/>
      <point x="115" y="355"/>
      <point x="169" y="403"/>
      <point x="240" y="403" type="curve" smooth="yes"/>
      <point x="265" y="403"/>
      <point x="298" y="391"/>
      <point x="319" y="374" type="curve"/>
    </contour>
  </outline>
</glyph>
<glyph name="thorn" format="2">
  <advance width="607"/>
  <unicode hex="00FE"/>
  <outline>
    <component base="p"/>
    <contour>
      <point x="66" y="0" type="line"/>
      <point x="158" y="0" type="line"/>
      <point x="158" y="20" type="line"/>
      <point x="148" y="45" type="line"/>
      <point x="148" y="253" type="line"/>
      <point x="158" y="329" type="line"/>
      <point x="158" y="700" type="line"/>
      <point x="66" y="700" type="line"/>
    </contour>
  </outline>
</glyph>
<glyph name="dcroat" format="2">
  <advance width="607"/>
  <unicode hex="0111"/>
  <outline>
    <component base="d"/>
    <contour>
      <point x="257" y="536" type="line"/>
      <point x="607" y="536" type="line"/>
      <point x="607" y="615" type="line"/>
      <point x="257" y="615" type="line"/>
    </contour>
  </outline>
</glyph>
<glyph name="Hbar" format="2">
  <advance width="707"/>
  <unicode hex="0126"/>
  <anchor x="353" y="-40" name="bottom"/>
  <anchor x="563" y="0" name="b.cedilla"/>
  <outline>
    <component base="H"/>
    <contour>
      <point x="24" y="530" type="line"/>
      <point x="682" y="530" type="line"/>
      <point x="682" y="610" type="line"/>
      <point x="24" y="610" type="line"/>
    </contour>
  </outline>
</glyph>
<glyph name="kgreenlandic" format="2">
  <advance width="537"/>
  <unicode hex="0138"/>
  <outline>
    <contour>
      <point x="66" y="0" type="line"/>
      <point x="158" y="0" type="line"/>
      <point x="158" y="460" type="line"/>
      <point x="66" y="444" type="line"/>
    </contour>
    <contour>
      <point x="118" y="93" type="line"/>
      <point x="492" y="460" type="line"/>
      <point x="366" y="460" type="line"/>
      <point x="118" y="211" type="line"/>
    </contour>
    <contour>
      <point x="207" y="227" type="line"/>
      <point x="396" y="0" type="line"/>
      <point x="518" y="0" type="line"/>
      <point x="276" y="296" type="line"/>
    </contour>
  </outline>
</glyph>
<glyph name="lslash" format="2">
  <advance width="227"/>
  <unicode hex="0142"/>
  <outline>
    <component base="l"/>
    <contour>
      <point x="9" y="201" type="line"/>
      <point x="263" y="421" type="line"/>
      <point x="263" y="520" type="line"/>
      <point x="9" y="300" type="line"/>
    </contour>
  </outline>
</glyph>
<glyph name="Eng" format="2">
  <advance width="774"/>
  <unicode hex="014A"/>
  <anchor x="388" y="740" name="top"/>
  <anchor x="383" y="-60" name="bottom"/>
  <outline>
    <component base="N"/>
    <contour>
      <point x="562" y="-200" type="line"/>
      <point x="586" y="-200" type="line" smooth="yes"/>
      <point x="677" y="-200"/>
      <point x="716" y="-147"/>
      <point x="716" y="-48" type="curve" smooth="yes"/>
      <point x="716" y="100" type="line"/>
      <point x="616" y="100" type="line"/>
      <point x="616" y="-60" type="line" smooth="yes"/>
      <point x="616" y="-87"/>
      <point x="605" y="-110"/>
      <point x="581" y="-110" type="curve" smooth="yes"/>
      <point x="562" y="-110" type="line"/>
    </contour>
  </outline>
  <guideline angle="90" x="383" y="0"/>
</glyph>
<glyph name="OE" format="2">
  <advance width="977"/>
  <unicode hex="0152"/>
  <outline>
    <contour>
      <point x="48" y="340" type="curve" smooth="yes"/>
      <point x="48" y="119"/>
      <point x="158" y="-12"/>
      <point x="331" y="-12" type="curve" smooth="yes"/>
      <point x="407" y="-12"/>
      <point x="469" y="18"/>
      <point x="513" y="71" type="curve"/>
      <point x="513" y="0" type="line"/>
      <point x="913" y="0" type="line"/>
      <point x="913" y="90" type="line"/>
      <point x="613" y="90" type="line"/>
      <point x="613" y="302" type="line"/>
      <point x="873" y="302" type="line"/>
      <point x="873" y="392" type="line"/>
      <point x="613" y="392" type="line"/>
      <point x="613" y="590" type="line"/>
      <point x="913" y="590" type="line"/>
      <point x="913" y="680" type="line"/>
      <point x="513" y="680" type="line"/>
      <point x="513" y="609" type="line"/>
      <point x="469" y="662"/>
      <point x="407" y="692"/>
      <point x="331" y="692" type="curve" smooth="yes"/>
      <point x="158" y="692"/>
      <point x="48" y="561"/>
    </contour>
    <contour>
      <point x="148" y="340" type="curve" smooth="yes"/>
      <point x="148" y="508"/>
      <point x="214" y="602"/>
      <point x="331" y="602" type="curve" smooth="yes"/>
      <point x="447" y="602"/>
      <point x="513" y="510"/>
      <point x="513" y="349" type="curve" smooth="yes"/>
      <point x="513" y="331" type="line" smooth="yes"/>
      <point x="513" y="170"/>
      <point x="447" y="78"/>
      <point x="331" y="78" type="curve" smooth="yes"/>
      <point x="214" y="78"/>
      <point x="148" y="172"/>
    </contour>
  </outline>
</glyph>
<glyph name="Tbar" format="2">
  <advance width="570"/>
  <unicode hex="0166"/>
  <outline>
    <component base="T"/>
    <contour>
      <point x="50" y="313" type="line"/>
      <point x="520" y="313" type="line"/>
      <point x="520" y="393" type="line"/>
      <point x="50" y="393" type="line"/>
    </contour>
  </outline>
  <guideline angle="90" x="50" y="0"/>
  <guideline angle="90" x="520" y="0"/>
  <guideline angle="90" x="235" y="0"/>
  <guideline angle="90" x="335" y="0"/>
</glyph>
<glyph name="tbar" format="2">
  <advance width="324"/>
  <unicode hex="0167"/>
  <outline>
    <contour>
      <point x="16" y="232" type="line"/>
      <point x="267" y="232" type="line"/>
      <point x="267" y="312" type="line"/>
      <point x="16" y="312" type="line"/>
    </contour>
    <contour>
      <point x="16" y="380" type="line"/>
      <point x="267" y="380" type="line"/>
      <point x="267" y="460" type="line"/>
      <point x="98" y="460" type="line"/>
      <point x="16" y="440" type="line"/>
    </contour>
    <contour>
      <point x="91" y="180" type="line" smooth="yes"/>
      <point x="91" y="44"/>
      <point x="115" y="-9"/>
      <point x="265" y="-9" type="curve" smooth="yes"/>
      <point x="298" y="-9" type="line"/>
      <point x="298" y="63" type="line"/>
      <point x="264" y="63" type="line" smooth="yes"/>
      <point x="195" y="63"/>
      <point x="183" y="90"/>
      <point x="183" y="188" type="curve" smooth="yes"/>
      <point x="183" y="610" type="line"/>
      <point x="111" y="610" type="line"/>
      <point x="97" y="453" type="line"/>
      <point x="91" y="453" type="line"/>
    </contour>
  </outline>
</glyph>
<glyph name="longs" format="2">
  <advance width="332"/>
  <unicode hex="017F"/>
  <anchor x="153" y="740" name="top"/>
  <outline>
    <contour>
      <point x="100" y="0" type="line"/>
      <point x="192" y="0" type="line"/>
      <point x="192" y="500" type="line" smooth="yes"/>
      <point x="192" y="599"/>
      <point x="210" y="628"/>
      <point x="306" y="628" type="curve" smooth="yes"/>
      <point x="317" y="628" type="line"/>
      <point x="317" y="700" type="line"/>
      <point x="306" y="700" type="line" smooth="yes"/>
      <point x="127" y="700"/>
      <point x="100" y="642"/>
      <point x="100" y="500" type="curve" smooth="yes"/>
    </contour>
    <contour>
      <point x="6" y="380" type="line"/>
      <point x="135" y="380" type="line"/>
      <point x="135" y="460" type="line"/>
      <point x="6" y="460" type="line"/>
    </contour>
  </outline>
</glyph>
<glyph name="Schwa" format="2">
  <advance width="777"/>
  <unicode hex="018F"/>
  <outline>
    <contour>
      <point x="48" y="340" type="line"/>
      <point x="48" y="119"/>
      <point x="188" y="-12"/>
      <point x="389" y="-12" type="curve" smooth="yes"/>
      <point x="589" y="-12"/>
      <point x="729" y="119"/>
      <point x="729" y="340" type="curve" smooth="yes"/>
      <point x="729" y="561"/>
      <point x="589" y="692"/>
      <point x="388" y="692" type="curve" smooth="yes"/>
      <point x="234" y="692"/>
      <point x="115" y="614"/>
      <point x="69" y="477" type="curve"/>
      <point x="175" y="477" type="line"/>
      <point x="213" y="558"/>
      <point x="290" y="602"/>
      <point x="388" y="602" type="curve" smooth="yes"/>
      <point x="533" y="602"/>
      <point x="629" y="508"/>
      <point x="629" y="340" type="curve" smooth="yes"/>
      <point x="629" y="172"/>
      <point x="533" y="78"/>
      <point x="388" y="78" type="curve" smooth="yes"/>
      <point x="243" y="78"/>
      <point x="147" y="172"/>
      <point x="147" y="340" type="curve"/>
    </contour>
    <contour>
      <point x="102" y="252" type="line"/>
      <point x="677" y="252" type="line"/>
      <point x="677" y="340" type="line"/>
      <point x="102" y="340" type="line"/>
    </contour>
  </outline>
</glyph>
<glyph name="uni0237" format="2">
  <advance width="225"/>
  <unicode hex="0237"/>
  <anchor x="113" y="540" name="top"/>
  <outline>
    <contour>
      <point x="-109" y="-83" type="line"/>
      <point x="-109" y="-149"/>
      <point x="-56" y="-200"/>
      <point x="15" y="-200" type="curve" smooth="yes"/>
      <point x="106" y="-200"/>
      <point x="159" y="-151"/>
      <point x="159" y="-52" type="curve" smooth="yes"/>
      <point x="159" y="460" type="line"/>
      <point x="67" y="460" type="line"/>
      <point x="67" y="-64" type="line" smooth="yes"/>
      <point x="67" y="-110"/>
      <point x="46" y="-124"/>
      <point x="21" y="-124" type="curve" smooth="yes"/>
      <point x="-2" y="-124"/>
      <point x="-24" y="-107"/>
      <point x="-24" y="-83" type="curve"/>
    </contour>
  </outline>
</glyph>
<glyph name="obarred" format="2">
  <advance width="592"/>
  <unicode hex="0275"/>
  <anchor x="307" y="530" name="top"/>
  <anchor x="317" y="-40" name="bottom"/>
  <outline>
    <component base="o"/>
    <contour>
      <point x="108" y="206" type="line"/>
      <point x="471" y="206" type="line"/>
      <point x="471" y="277" type="line"/>
      <point x="108" y="277" type="line"/>
    </contour>
  </outline>
</glyph>
<glyph name="circumflex" format="2">
  <advance width="442"/>
  <unicode hex="02C6"/>
  <outline>
    <contour>
      <point x="40" y="540" type="line"/>
      <point x="144" y="540" type="line"/>
      <point x="243" y="643" type="line"/>
      <point x="199" y="643" type="line"/>
      <point x="298" y="540" type="line"/>
      <point x="402" y="540" type="line"/>
      <point x="274" y="700" type="line"/>
      <point x="168" y="700" type="line"/>
    </contour>
  </outline>
  <guideline angle="90" x="221" y="0"/>
  <guideline angle="0" x="0" y="540"/>
</glyph>
<glyph name="caron" format="2">
  <advance width="340"/>
  <unicode hex="02C7"/>
  <anchor x="170" y="530" name="_top"/>
  <outline>
    <contour>
      <point x="130" y="530" type="line"/>
      <point x="210" y="530" type="line"/>
      <point x="310" y="690" type="line"/>
      <point x="246" y="690" type="line"/>
      <point x="150" y="583" type="line"/>
      <point x="190" y="583" type="line"/>
      <point x="94" y="690" type="line"/>
      <point x="30" y="690" type="line"/>
    </contour>
  </outline>
  <guideline angle="0" x="0" y="530"/>
</glyph>
<glyph name="breve" format="2">
  <advance width="466"/>
  <unicode hex="02D8"/>
  <outline>
    <contour>
      <point x="60" y="670" type="line"/>
      <point x="60" y="584"/>
      <point x="131" y="530"/>
      <point x="233" y="530" type="curve" smooth="yes"/>
      <point x="335" y="530"/>
      <point x="406" y="584"/>
      <point x="406" y="670" type="curve"/>
      <point x="314" y="670" type="line"/>
      <point x="314" y="627"/>
      <point x="279" y="600"/>
      <point x="233" y="600" type="curve" smooth="yes"/>
      <point x="187" y="600"/>
      <point x="152" y="627"/>
      <point x="152" y="670" type="curve"/>
    </contour>
  </outline>
  <guideline angle="0" x="0" y="530"/>
</glyph>
<glyph name="ogonek" format="2">
  <advance width="312"/>
  <unicode hex="02DB"/>
  <outline>
    <contour>
      <point x="58" y="-124" type="curve" smooth="yes"/>
      <point x="58" y="-176"/>
      <point x="101" y="-210"/>
      <point x="163" y="-210" type="curve" smooth="yes"/>
      <point x="200" y="-210"/>
      <point x="234" y="-199"/>
      <point x="254" y="-183" type="curve"/>
      <point x="235" y="-139" type="line"/>
      <point x="220" y="-146"/>
      <point x="207" y="-148"/>
      <point x="197" y="-148" type="curve" smooth="yes"/>
      <point x="167" y="-148"/>
      <point x="150" y="-130"/>
      <point x="150" y="-100" type="curve" smooth="yes"/>
      <point x="150" y="-71"/>
      <point x="166" y="-40"/>
      <point x="228" y="0" type="curve"/>
      <point x="152" y="0" type="line"/>
      <point x="82" y="-39"/>
      <point x="58" y="-81"/>
    </contour>
  </outline>
  <guideline angle="90" x="271" y="0"/>
</glyph>
<glyph name="tilde" format="2">
  <advance width="386"/>
  <unicode hex="02DC"/>
  <outline>
    <contour>
      <point x="40" y="560" type="curve"/>
      <point x="90" y="560" type="line"/>
      <point x="90" y="586"/>
      <point x="109" y="600"/>
      <point x="130" y="600" type="curve" smooth="yes"/>
      <point x="142" y="600"/>
      <point x="156" y="596"/>
      <point x="177" y="586" type="curve" smooth="yes"/>
      <point x="189" y="580" type="line" smooth="yes"/>
      <point x="216" y="566"/>
      <point x="236" y="560"/>
      <point x="256" y="560" type="curve" smooth="yes"/>
      <point x="302" y="560"/>
      <point x="346" y="604"/>
      <point x="346" y="680" type="curve"/>
      <point x="296" y="680" type="line"/>
      <point x="296" y="652"/>
      <point x="278" y="640"/>
      <point x="256" y="640" type="curve" smooth="yes"/>
      <point x="244" y="640"/>
      <point x="230" y="644"/>
      <point x="209" y="654" type="curve" smooth="yes"/>
      <point x="199" y="659" type="line" smooth="yes"/>
      <point x="168" y="674"/>
      <point x="150" y="680"/>
      <point x="130" y="680" type="curve" smooth="yes"/>
      <point x="84" y="680"/>
      <point x="40" y="636"/>
    </contour>
  </outline>
</glyph>
<glyph name="uni0302" format="2">
  <unicode hex="0302"/>
  <anchor x="0" y="540" name="_top"/>
  <outline>
    <contour>
      <point x="-181" y="540" type="line"/>
      <point x="-77" y="540" type="line"/>
      <point x="22" y="643" type="line"/>
      <point x="-22" y="643" type="line"/>
      <point x="77" y="540" type="line"/>
      <point x="181" y="540" type="line"/>
      <point x="53" y="700" type="line"/>
      <point x="-53" y="700" type="line"/>
    </contour>
  </outline>
  <guideline angle="0" x="0" y="540"/>
</glyph>
<glyph name="uni0303" format="2">
  <unicode hex="0303"/>
  <anchor x="-203" y="530" name="_top"/>
  <outline>
    <contour>
      <point x="-356" y="530" type="curve"/>
      <point x="-306" y="530" type="line"/>
      <point x="-301" y="558"/>
      <point x="-286" y="570"/>
      <point x="-266" y="570" type="curve" smooth="yes"/>
      <point x="-251" y="570"/>
      <point x="-234" y="563"/>
      <point x="-219" y="556" type="curve"/>
      <point x="-207" y="550" type="line" smooth="yes"/>
      <point x="-186" y="539"/>
      <point x="-165" y="530"/>
      <point x="-140" y="530" type="curve" smooth="yes"/>
      <point x="-100" y="530"/>
      <point x="-64" y="563"/>
      <point x="-50" y="650" type="curve"/>
      <point x="-100" y="650" type="line"/>
      <point x="-105" y="622"/>
      <point x="-120" y="610"/>
      <point x="-140" y="610" type="curve" smooth="yes"/>
      <point x="-156" y="610"/>
      <point x="-173" y="617"/>
      <point x="-187" y="624" type="curve" smooth="yes"/>
      <point x="-197" y="629" type="line" smooth="yes"/>
      <point x="-219" y="640"/>
      <point x="-241" y="650"/>
      <point x="-266" y="650" type="curve" smooth="yes"/>
      <point x="-306" y="650"/>
      <point x="-342" y="617"/>
    </contour>
  </outline>
  <guideline angle="0" x="0" y="530"/>
</glyph>
<glyph name="uni0313" format="2">
  <unicode hex="0313"/>
  <outline>
    <contour>
      <point x="-189" y="499" type="line"/>
      <point x="-148" y="499" type="line"/>
      <point x="-100" y="613" type="line"/>
      <point x="-100" y="700" type="line"/>
      <point x="-190" y="700" type="line"/>
      <point x="-190" y="612" type="line"/>
      <point x="-166" y="612" type="line"/>
    </contour>
  </outline>
</glyph>
<glyph name="mu" format="2">
  <advance width="621"/>
  <unicode hex="03BC"/>
  <outline>
    <contour>
      <point x="66" y="-200" type="line"/>
      <point x="158" y="-200" type="line"/>
      <point x="158" y="-50" type="line" smooth="yes"/>
      <point x="158" y="-4"/>
      <point x="156" y="42"/>
      <point x="148" y="88" type="curve"/>
      <point x="145" y="86" type="line"/>
      <point x="165" y="25"/>
      <point x="223" y="-12"/>
      <point x="318" y="-12" type="curve" smooth="yes"/>
      <point x="391" y="-12"/>
      <point x="452" y="29"/>
      <point x="466" y="54" type="curve"/>
      <point x="469" y="54" type="line"/>
      <point x="469" y="0" type="line"/>
      <point x="555" y="0" type="line"/>
      <point x="555" y="460" type="line"/>
      <point x="463" y="460" type="line"/>
      <point x="463" y="266" type="line" smooth="yes"/>
      <point x="463" y="126"/>
      <point x="416" y="64"/>
      <point x="308" y="64" type="curve" smooth="yes"/>
      <point x="185" y="64"/>
      <point x="158" y="130"/>
      <point x="158" y="267" type="curve" smooth="yes"/>
      <point x="158" y="460" type="line"/>
      <point x="66" y="460" type="line"/>
    </contour>
  </outline>
</glyph>
<glyph name="uni0402" format="2">
  <advance width="796"/>
  <unicode hex="0402"/>
  <outline>
    <component base="uni040B"/>
    <contour>
      <point x="462" y="-83" type="line"/>
      <point x="462" y="-149"/>
      <point x="515" y="-200"/>
      <point x="586" y="-200" type="curve" smooth="yes"/>
      <point x="677" y="-200"/>
      <point x="730" y="-151"/>
      <point x="730" y="-52" type="curve" smooth="yes"/>
      <point x="730" y="50" type="line"/>
      <point x="638" y="50" type="line"/>
      <point x="638" y="-64" type="line" smooth="yes"/>
      <point x="638" y="-110"/>
      <point x="617" y="-124"/>
      <point x="592" y="-124" type="curve" smooth="yes"/>
      <point x="569" y="-124"/>
      <point x="547" y="-107"/>
      <point x="547" y="-83" type="curve"/>
    </contour>
  </outline>
</glyph>
<glyph name="uni040F" format="2">
  <advance width="690"/>
  <unicode hex="040F"/>
  <outline>
    <contour>
      <point x="60" y="0" type="line"/>
      <point x="630" y="0" type="line"/>
      <point x="630" y="680" type="line"/>
      <point x="530" y="680" type="line"/>
      <point x="530" y="90" type="line"/>
      <point x="160" y="90" type="line"/>
      <point x="160" y="680" type="line"/>
      <point x="60" y="680" type="line"/>
    </contour>
    <contour>
      <point x="300" y="-140" type="line"/>
      <point x="390" y="-140" type="line"/>
      <point x="390" y="15" type="line"/>
      <point x="300" y="15" type="line"/>
    </contour>
  </outline>
  <guideline angle="90" x="345" y="0"/>
</glyph>
<glyph name="uni0413" format="2">
  <advance width="585"/>
  <unicode hex="0413"/>
  <outline>
    <contour>
      <point x="60" y="0" type="line"/>
      <point x="160" y="0" type="line"/>
      <point x="160" y="680" type="line"/>
      <point x="60" y="680" type="line"/>
    </contour>
    <contour>
      <point x="136" y="590" type="line"/>
      <point x="546" y="590" type="line"/>
      <point x="546" y="680" type="line"/>
      <point x="136" y="680" type="line"/>
    </contour>
  </outline>
</glyph>
<glyph name="uni0416" format="2">
  <advance width="1140"/>
  <unicode hex="0416"/>
  <outline>
    <contour>
      <point x="520" y="0" type="line"/>
      <point x="620" y="0" type="line"/>
      <point x="620" y="680" type="line"/>
      <point x="520" y="680" type="line"/>
    </contour>
    <contour>
      <point x="620" y="314" type="line"/>
      <point x="768" y="314" type="line"/>
      <point x="1081" y="680" type="line"/>
      <point x="951" y="680" type="line"/>
      <point x="710" y="393" type="line"/>
      <point x="735" y="404" type="line"/>
      <point x="620" y="404" type="line"/>
    </contour>
    <contour>
      <point x="730" y="339" type="line"/>
      <point x="1001" y="0" type="line"/>
      <point x="1130" y="0" type="line"/>
      <point x="808" y="404" type="line"/>
    </contour>
    <contour>
      <point x="372" y="314" type="line"/>
      <point x="520" y="314" type="line"/>
      <point x="520" y="404" type="line"/>
      <point x="405" y="404" type="line"/>
      <point x="430" y="393" type="line"/>
      <point x="189" y="680" type="line"/>
      <point x="59" y="680" type="line"/>
    </contour>
    <contour>
      <point x="10" y="0" type="line"/>
      <point x="139" y="0" type="line"/>
      <point x="410" y="339" type="line"/>
      <point x="332" y="404" type="line"/>
    </contour>
  </outline>
</glyph>
<glyph name="uni0418" format="2">
  <advance width="744"/>
  <unicode hex="0418"/>
  <anchor x="372" y="740" name="top"/>
  <outline>
    <contour>
      <point x="60" y="0" type="line"/>
      <point x="185" y="0" type="line"/>
      <point x="530" y="492" type="line" smooth="yes"/>
      <point x="551" y="521"/>
      <point x="566" y="547"/>
      <point x="584" y="585" type="curve"/>
      <point x="595" y="585" type="line"/>
      <point x="589" y="559"/>
      <point x="584" y="485"/>
      <point x="584" y="458" type="curve" smooth="yes"/>
      <point x="584" y="0" type="line"/>
      <point x="684" y="0" type="line"/>
      <point x="684" y="680" type="line"/>
      <point x="560" y="680" type="line"/>
      <point x="210" y="190" type="line" smooth="yes"/>
      <point x="192" y="164"/>
      <point x="174" y="131"/>
      <point x="160" y="98" type="curve"/>
      <point x="148" y="98" type="line"/>
      <point x="156" y="124"/>
      <point x="160" y="172"/>
      <point x="160" y="224" type="curve" smooth="yes"/>
      <point x="160" y="680" type="line"/>
      <point x="60" y="680" type="line"/>
    </contour>
  </outline>
  <guideline angle="90" x="372" y="0"/>
  <guideline angle="0" x="0" y="563"/>
  <guideline angle="54.9611" x="185" y="0"/>
</glyph>
<glyph name="uni041A" format="2">
  <advance width="680"/>
  <unicode hex="041A"/>
  <anchor x="353" y="-40" name="bottom"/>
  <anchor x="300" y="740" name="top"/>
  <outline>
    <contour>
      <point x="60" y="0" type="line"/>
      <point x="160" y="0" type="line"/>
      <point x="160" y="680" type="line"/>
      <point x="60" y="680" type="line"/>
    </contour>
    <contour>
      <point x="160" y="314" type="line"/>
      <point x="308" y="314" type="line"/>
      <point x="621" y="680" type="line"/>
      <point x="491" y="680" type="line"/>
      <point x="250" y="393" type="line"/>
      <point x="275" y="404" type="line"/>
      <point x="160" y="404" type="line"/>
    </contour>
    <contour>
      <point x="270" y="339" type="line"/>
      <point x="541" y="0" type="line"/>
      <point x="670" y="0" type="line"/>
      <point x="348" y="404" type="line"/>
    </contour>
  </outline>
  <guideline angle="0" x="0" y="424"/>
  <guideline angle="0" x="0" y="281"/>
</glyph>
<glyph name="uni041B" format="2">
  <advance width="737"/>
  <unicode hex="041B"/>
  <outline>
    <contour>
      <point x="41" y="-9" type="line"/>
      <point x="49" y="-9" type="line" smooth="yes"/>
      <point x="171" y="-9"/>
      <point x="251" y="83"/>
      <point x="280" y="370" type="curve" smooth="yes"/>
      <point x="311" y="680" type="line"/>
      <point x="207" y="680" type="line"/>
      <point x="181" y="357" type="line"/>
      <point x="169" y="261"/>
      <point x="139" y="92"/>
      <point x="56" y="92" type="curve" smooth="yes"/>
      <point x="41" y="92" type="line"/>
    </contour>
    <contour>
      <point x="577" y="0" type="line"/>
      <point x="677" y="0" type="line"/>
      <point x="677" y="680" type="line"/>
      <point x="577" y="680" type="line"/>
    </contour>
    <contour>
      <point x="250" y="590" type="line"/>
      <point x="630" y="590" type="line"/>
      <point x="630" y="680" type="line"/>
      <point x="250" y="680" type="line"/>
    </contour>
  </outline>
</glyph>
<glyph name="uni041F" format="2">
  <advance width="707"/>
  <unicode hex="041F"/>
  <outline>
    <contour>
      <point x="60" y="0" type="line"/>
      <point x="160" y="0" type="line"/>
      <point x="160" y="590" type="line"/>
      <point x="547" y="590" type="line"/>
      <point x="547" y="0" type="line"/>
      <point x="647" y="0" type="line"/>
      <point x="647" y="680" type="line"/>
      <point x="60" y="680" type="line"/>
    </contour>
  </outline>
</glyph>
<glyph name="uni0424" format="2">
  <advance width="982"/>
  <unicode hex="0424"/>
  <outline>
    <contour>
      <point x="48" y="349" type="curve" smooth="yes"/>
      <point x="48" y="186"/>
      <point x="155" y="69"/>
      <point x="380" y="69" type="curve" smooth="yes"/>
      <point x="399" y="69"/>
      <point x="437" y="69"/>
      <point x="458" y="71" type="curve"/>
      <point x="458" y="160" type="line"/>
      <point x="451" y="159"/>
      <point x="413" y="158"/>
      <point x="387" y="158" type="curve" smooth="yes"/>
      <point x="204" y="158"/>
      <point x="148" y="270"/>
      <point x="148" y="350" type="curve" smooth="yes"/>
      <point x="148" y="477"/>
      <point x="229" y="541"/>
      <point x="387" y="541" type="curve" smooth="yes"/>
      <point x="413" y="541"/>
      <point x="451" y="540"/>
      <point x="458" y="539" type="curve"/>
      <point x="458" y="627" type="line"/>
      <point x="441" y="628"/>
      <point x="404" y="629"/>
      <point x="387" y="629" type="curve" smooth="yes"/>
      <point x="158" y="629"/>
      <point x="48" y="509"/>
    </contour>
    <contour>
      <point x="441" y="0" type="line"/>
      <point x="541" y="0" type="line"/>
      <point x="541" y="681" type="line"/>
      <point x="441" y="681" type="line"/>
    </contour>
    <contour>
      <point x="523" y="71" type="line"/>
      <point x="542" y="69"/>
      <point x="578" y="69"/>
      <point x="595" y="69" type="curve" smooth="yes"/>
      <point x="823" y="69"/>
      <point x="934" y="189"/>
      <point x="934" y="349" type="curve" smooth="yes"/>
      <point x="934" y="512"/>
      <point x="827" y="629"/>
      <point x="602" y="629" type="curve" smooth="yes"/>
      <point x="582" y="629"/>
      <point x="546" y="629"/>
      <point x="523" y="627" type="curve"/>
      <point x="523" y="538" type="line"/>
      <point x="531" y="539"/>
      <point x="568" y="540"/>
      <point x="595" y="540" type="curve" smooth="yes"/>
      <point x="778" y="540"/>
      <point x="834" y="428"/>
      <point x="834" y="348" type="curve" smooth="yes"/>
      <point x="834" y="221"/>
      <point x="753" y="157"/>
      <point x="595" y="157" type="curve" smooth="yes"/>
      <point x="568" y="157"/>
      <point x="531" y="158"/>
      <point x="523" y="159" type="curve"/>
    </contour>
  </outline>
</glyph>
<glyph name="uni0426" format="2">
  <advance width="720"/>
  <unicode hex="0426"/>
  <outline>
    <contour>
      <point x="60" y="0" type="line"/>
      <point x="160" y="0" type="line"/>
      <point x="160" y="680" type="line"/>
      <point x="60" y="680" type="line"/>
    </contour>
    <contour>
      <point x="518" y="0" type="line"/>
      <point x="618" y="0" type="line"/>
      <point x="618" y="680" type="line"/>
      <point x="518" y="680" type="line"/>
    </contour>
    <contour>
      <point x="110" y="0" type="line"/>
      <point x="553" y="0" type="line"/>
      <point x="553" y="90" type="line"/>
      <point x="110" y="90" type="line"/>
    </contour>
    <contour>
      <point x="580" y="0" type="line"/>
      <point x="638" y="0" type="line"/>
      <point x="638" y="-140" type="line"/>
      <point x="710" y="-140" type="line"/>
      <point x="710" y="90" type="line"/>
      <point x="580" y="90" type="line"/>
    </contour>
  </outline>
</glyph>
<glyph name="uni0427" format="2">
  <advance width="616"/>
  <unicode hex="0427"/>
  <outline>
    <contour>
      <point x="57" y="494" type="line" smooth="yes"/>
      <point x="57" y="372"/>
      <point x="136" y="307"/>
      <point x="255" y="307" type="curve" smooth="yes"/>
      <point x="504" y="307" type="line"/>
      <point x="504" y="397" type="line"/>
      <point x="294" y="397" type="line" smooth="yes"/>
      <point x="185" y="397"/>
      <point x="157" y="422"/>
      <point x="157" y="500" type="curve" smooth="yes"/>
      <point x="157" y="680" type="line"/>
      <point x="57" y="680" type="line"/>
    </contour>
    <contour>
      <point x="456" y="0" type="line"/>
      <point x="556" y="0" type="line"/>
      <point x="556" y="680" type="line"/>
      <point x="456" y="680" type="line"/>
    </contour>
  </outline>
</glyph>
<glyph name="uni0428" format="2">
  <advance width="1028"/>
  <unicode hex="0428"/>
  <outline>
    <contour>
      <point x="116" y="0" type="line"/>
      <point x="919" y="0" type="line"/>
      <point x="919" y="90" type="line"/>
      <point x="116" y="90" type="line"/>
    </contour>
    <contour>
      <point x="60" y="0" type="line"/>
      <point x="160" y="0" type="line"/>
      <point x="160" y="680" type="line"/>
      <point x="60" y="680" type="line"/>
    </contour>
    <contour>
      <point x="464" y="0" type="line"/>
      <point x="564" y="0" type="line"/>
      <point x="564" y="680" type="line"/>
      <point x="464" y="680" type="line"/>
    </contour>
    <contour>
      <point x="868" y="0" type="line"/>
      <point x="968" y="0" type="line"/>
      <point x="968" y="680" type="line"/>
      <point x="868" y="680" type="line"/>
    </contour>
  </outline>
</glyph>
<glyph name="uni0429" format="2">
  <advance width="1070"/>
  <unicode hex="0429"/>
  <outline>
    <contour>
      <point x="116" y="0" type="line"/>
      <point x="919" y="0" type="line"/>
      <point x="919" y="90" type="line"/>
      <point x="116" y="90" type="line"/>
    </contour>
    <contour>
      <point x="930" y="0" type="line"/>
      <point x="988" y="0" type="line"/>
      <point x="988" y="-140" type="line"/>
      <point x="1060" y="-140" type="line"/>
      <point x="1060" y="90" type="line"/>
      <point x="930" y="90" type="line"/>
    </contour>
    <contour>
      <point x="60" y="0" type="line"/>
      <point x="160" y="0" type="line"/>
      <point x="160" y="680" type="line"/>
      <point x="60" y="680" type="line"/>
    </contour>
    <contour>
      <point x="464" y="0" type="line"/>
      <point x="564" y="0" type="line"/>
      <point x="564" y="680" type="line"/>
      <point x="464" y="680" type="line"/>
    </contour>
    <contour>
      <point x="868" y="0" type="line"/>
      <point x="968" y="0" type="line"/>
      <point x="968" y="680" type="line"/>
      <point x="868" y="680" type="line"/>
    </contour>
  </outline>
</glyph>
<glyph name="uni042A" format="2">
  <advance width="818"/>
  <unicode hex="042A"/>
  <anchor x="392" y="740" name="top"/>
  <outline>
    <contour>
      <point x="198" y="0" type="line"/>
      <point x="298" y="0" type="line"/>
      <point x="298" y="680" type="line"/>
      <point x="198" y="680" type="line"/>
    </contour>
    <contour>
      <point x="10" y="590" type="line"/>
      <point x="253" y="590" type="line"/>
      <point x="253" y="680" type="line"/>
      <point x="10" y="680" type="line"/>
    </contour>
    <contour>
      <point x="255" y="0" type="line"/>
      <point x="535" y="0" type="line" smooth="yes"/>
      <point x="676" y="0"/>
      <point x="770" y="83"/>
      <point x="770" y="208" type="curve" smooth="yes"/>
      <point x="770" y="328"/>
      <point x="676" y="408"/>
      <point x="535" y="408" type="curve" smooth="yes"/>
      <point x="255" y="408" type="line"/>
      <point x="255" y="318" type="line"/>
      <point x="525" y="318" type="line" smooth="yes"/>
      <point x="610" y="318"/>
      <point x="666" y="274"/>
      <point x="666" y="208" type="curve" smooth="yes"/>
      <point x="666" y="137"/>
      <point x="610" y="90"/>
      <point x="525" y="90" type="curve" smooth="yes"/>
      <point x="255" y="90" type="line"/>
    </contour>
  </outline>
</glyph>
<glyph name="uni042B" format="2">
  <advance width="870"/>
  <unicode hex="042B"/>
  <anchor x="412" y="740" name="top"/>
  <outline>
    <contour>
      <point x="710" y="0" type="line"/>
      <point x="810" y="0" type="line"/>
      <point x="810" y="680" type="line"/>
      <point x="710" y="680" type="line"/>
    </contour>
    <contour>
      <point x="105" y="0" type="line"/>
      <point x="393" y="0" type="line" smooth="yes"/>
      <point x="544" y="0"/>
      <point x="634" y="75"/>
      <point x="634" y="202" type="curve" smooth="yes"/>
      <point x="634" y="343"/>
      <point x="561" y="404"/>
      <point x="393" y="404" type="curve" smooth="yes"/>
      <point x="105" y="404" type="line"/>
      <point x="105" y="314" type="line"/>
      <point x="386" y="314" type="line" smooth="yes"/>
      <point x="482" y="314"/>
      <point x="530" y="277"/>
      <point x="530" y="201" type="curve" smooth="yes"/>
      <point x="530" y="126"/>
      <point x="483" y="90"/>
      <point x="386" y="90" type="curve" smooth="yes"/>
      <point x="105" y="90" type="line"/>
    </contour>
    <contour>
      <point x="60" y="0" type="line"/>
      <point x="160" y="0" type="line"/>
      <point x="160" y="680" type="line"/>
      <point x="60" y="680" type="line"/>
    </contour>
  </outline>
</glyph>
<glyph name="uni042D" format="2">
  <advance width="756"/>
  <unicode hex="042D"/>
  <anchor x="384" y="740" name="top"/>
  <outline>
    <contour>
      <point x="48" y="187" type="line"/>
      <point x="79" y="68"/>
      <point x="203" y="-12"/>
      <point x="358" y="-12" type="curve" smooth="yes"/>
      <point x="568" y="-12"/>
      <point x="708" y="135"/>
      <point x="708" y="356" type="curve" smooth="yes"/>
      <point x="708" y="558"/>
      <point x="572" y="692"/>
      <point x="372" y="692" type="curve" smooth="yes"/>
      <point x="208" y="692"/>
      <point x="79" y="597"/>
      <point x="48" y="455" type="curve"/>
      <point x="148" y="455" type="line"/>
      <point x="172" y="543"/>
      <point x="259" y="602"/>
      <point x="367" y="602" type="curve" smooth="yes"/>
      <point x="514" y="602"/>
      <point x="611" y="503"/>
      <point x="611" y="354" type="curve" smooth="yes"/>
      <point x="611" y="188"/>
      <point x="511" y="78"/>
      <point x="360" y="78" type="curve" smooth="yes"/>
      <point x="255" y="78"/>
      <point x="176" y="118"/>
      <point x="148" y="187" type="curve"/>
    </contour>
    <contour>
      <point x="336" y="302" type="line"/>
      <point x="639" y="302" type="line"/>
      <point x="639" y="392" type="line"/>
      <point x="336" y="392" type="line"/>
    </contour>
  </outline>
</glyph>
<glyph name="uni042E" format="2">
  <advance width="1045"/>
  <unicode hex="042E"/>
  <outline>
    <contour>
      <point x="121" y="302" type="line"/>
      <point x="357" y="302" type="line"/>
      <point x="357" y="392" type="line"/>
      <point x="121" y="392" type="line"/>
    </contour>
    <contour>
      <point x="312" y="341" type="curve" smooth="yes"/>
      <point x="312" y="153"/>
      <point x="395" y="-12"/>
      <point x="652" y="-12" type="curve" smooth="yes"/>
      <point x="879" y="-12"/>
      <point x="997" y="129"/>
      <point x="997" y="340" type="curve" smooth="yes"/>
      <point x="997" y="548"/>
      <point x="883" y="692"/>
      <point x="652" y="692" type="curve" smooth="yes"/>
      <point x="405" y="692"/>
      <point x="312" y="521"/>
    </contour>
    <contour>
      <point x="410" y="340" type="curve" smooth="yes"/>
      <point x="410" y="488"/>
      <point x="475" y="602"/>
      <point x="652" y="602" type="curve" smooth="yes"/>
      <point x="838" y="602"/>
      <point x="897" y="488"/>
      <point x="897" y="340" type="curve" smooth="yes"/>
      <point x="897" y="227"/>
      <point x="839" y="78"/>
      <point x="652" y="78" type="curve" smooth="yes"/>
      <point x="474" y="78"/>
      <point x="410" y="194"/>
    </contour>
    <contour>
      <point x="60" y="0" type="line"/>
      <point x="160" y="0" type="line"/>
      <point x="160" y="680" type="line"/>
      <point x="60" y="680" type="line"/>
    </contour>
  </outline>
</glyph>
<glyph name="uni042F" format="2">
  <advance width="701"/>
  <unicode hex="042F"/>
  <outline>
    <contour>
      <point x="62" y="474" type="curve" smooth="yes"/>
      <point x="62" y="385"/>
      <point x="145" y="276"/>
      <point x="314" y="276" type="curve" smooth="yes"/>
      <point x="541" y="276" type="line"/>
      <point x="541" y="366" type="line"/>
      <point x="355" y="366" type="line" smooth="yes"/>
      <point x="245" y="366"/>
      <point x="162" y="398"/>
      <point x="162" y="474" type="curve" smooth="yes"/>
      <point x="162" y="559"/>
      <point x="282" y="590"/>
      <point x="396" y="590" type="curve" smooth="yes"/>
      <point x="635" y="590" type="line"/>
      <point x="635" y="680" type="line"/>
      <point x="355" y="680" type="line" smooth="yes"/>
      <point x="187" y="680"/>
      <point x="62" y="612"/>
    </contour>
    <contour>
      <point x="59" y="0" type="line"/>
      <point x="187" y="0" type="line"/>
      <point x="374" y="292" type="line"/>
      <point x="257" y="292" type="line"/>
    </contour>
    <contour>
      <point x="541" y="0" type="line"/>
      <point x="641" y="0" type="line"/>
      <point x="641" y="680" type="line"/>
      <point x="541" y="680" type="line"/>
    </contour>
  </outline>
</glyph>
<glyph name="uni0431" format="2">
  <advance width="607"/>
  <unicode hex="0431"/>
  <outline>
    <contour>
      <point x="137" y="218" type="curve" smooth="yes"/>
      <point x="137" y="328"/>
      <point x="184" y="389"/>
      <point x="300" y="389" type="curve" smooth="yes"/>
      <point x="423" y="389"/>
      <point x="469" y="313"/>
      <point x="469" y="237" type="curve" smooth="yes"/>
      <point x="469" y="127"/>
      <point x="410" y="66"/>
      <point x="295" y="66" type="curve" smooth="yes"/>
      <point x="189" y="66"/>
      <point x="137" y="126"/>
    </contour>
    <contour>
      <point x="40" y="244" type="line" smooth="yes"/>
      <point x="40" y="56"/>
      <point x="170" y="-12"/>
      <point x="307" y="-12" type="curve" smooth="yes"/>
      <point x="465" y="-12"/>
      <point x="567" y="107"/>
      <point x="567" y="240" type="curve" smooth="yes"/>
      <point x="567" y="374"/>
      <point x="477" y="467"/>
      <point x="325" y="467" type="curve" smooth="yes"/>
      <point x="229" y="467"/>
      <point x="127" y="411"/>
      <point x="90" y="346" type="curve"/>
      <point x="106" y="346" type="line"/>
      <point x="115" y="379"/>
      <point x="117" y="402"/>
      <point x="117" y="419" type="curve" smooth="yes"/>
      <point x="117" y="517"/>
      <point x="220" y="544"/>
      <point x="337" y="573" type="curve" smooth="yes"/>
      <point x="392" y="586"/>
      <point x="450" y="606"/>
      <point x="489" y="626" type="curve"/>
      <point x="489" y="700" type="line"/>
      <point x="476" y="700" type="line"/>
      <point x="420" y="680"/>
      <point x="388" y="665"/>
      <point x="332" y="651" type="curve" smooth="yes"/>
      <point x="162" y="610"/>
      <point x="40" y="572"/>
      <point x="40" y="389" type="curve" smooth="yes"/>
    </contour>
  </outline>
</glyph>
<glyph name="uni0432" format="2">
  <advance width="560"/>
  <unicode hex="0432"/>
  <outline>
    <contour>
      <point x="66" y="0" type="line"/>
      <point x="158" y="0" type="line"/>
      <point x="158" y="460" type="line"/>
      <point x="66" y="460" type="line"/>
    </contour>
    <contour>
      <point x="128" y="0" type="line"/>
      <point x="356.494" y="0" type="line" smooth="yes"/>
      <point x="454.597" y="0"/>
      <point x="520" y="55.6"/>
      <point x="520" y="139" type="curve" smooth="yes"/>
      <point x="520" y="218.2"/>
      <point x="441.431" y="271"/>
      <point x="323.578" y="271" type="curve" smooth="yes"/>
      <point x="128" y="271" type="line"/>
      <point x="128" y="201" type="line"/>
      <point x="346" y="201" type="line" smooth="yes"/>
      <point x="395.2" y="201"/>
      <point x="428" y="175.8"/>
      <point x="428" y="138" type="curve" smooth="yes"/>
      <point x="428" y="97.2"/>
      <point x="395.2" y="70"/>
      <point x="346" y="70" type="curve" smooth="yes"/>
      <point x="128" y="70" type="line"/>
    </contour>
    <contour>
      <point x="128" y="390" type="line"/>
      <point x="327" y="390" type="line" smooth="yes"/>
      <point x="375" y="390"/>
      <point x="407" y="366.167"/>
      <point x="407" y="330.417" type="curve" smooth="yes"/>
      <point x="407" y="294.767"/>
      <point x="375" y="271"/>
      <point x="327" y="271" type="curve" smooth="yes"/>
      <point x="312" y="271" type="line"/>
      <point x="312" y="238" type="line"/>
      <point x="418.893" y="238" type="line"/>
      <point x="466.957" y="260.007"/>
      <point x="499" y="303.759"/>
      <point x="499" y="347.381" type="curve" smooth="yes"/>
      <point x="499" y="414.952"/>
      <point x="433.171" y="460"/>
      <point x="334.427" y="460" type="curve" smooth="yes"/>
      <point x="128" y="460" type="line"/>
    </contour>
  </outline>
</glyph>
<glyph name="uni0433" format="2">
  <advance width="468"/>
  <unicode hex="0433"/>
  <outline>
    <contour>
      <point x="66" y="0" type="line"/>
      <point x="158" y="0" type="line"/>
      <point x="158" y="389" type="line"/>
      <point x="148" y="381" type="line"/>
      <point x="440" y="381" type="line"/>
      <point x="440" y="460" type="line"/>
      <point x="66" y="460" type="line"/>
    </contour>
  </outline>
</glyph>
<glyph name="uni0434" format="2">
  <advance width="645"/>
  <unicode hex="0434"/>
  <outline>
    <contour>
      <point x="34" y="-140" type="line"/>
      <point x="108" y="-140" type="line"/>
      <point x="121" y="0" type="line"/>
      <point x="536" y="0" type="line"/>
      <point x="548" y="-140" type="line"/>
      <point x="622" y="-140" type="line"/>
      <point x="622" y="79" type="line"/>
      <point x="34" y="79" type="line"/>
    </contour>
    <contour>
      <point x="47" y="3" type="line"/>
      <point x="73" y="3" type="line" smooth="yes"/>
      <point x="143" y="3"/>
      <point x="208" y="39"/>
      <point x="231" y="310" type="curve" smooth="yes"/>
      <point x="243" y="460" type="line"/>
      <point x="154" y="460" type="line"/>
      <point x="142" y="290" type="line" smooth="yes"/>
      <point x="127" y="92"/>
      <point x="102" y="79"/>
      <point x="47" y="79" type="curve"/>
    </contour>
    <contour>
      <point x="188" y="381" type="line"/>
      <point x="551" y="381" type="line"/>
      <point x="551" y="460" type="line"/>
      <point x="188" y="460" type="line"/>
    </contour>
    <contour>
      <point x="464" y="0" type="line"/>
      <point x="556" y="0" type="line"/>
      <point x="556" y="460" type="line"/>
      <point x="464" y="460" type="line"/>
    </contour>
  </outline>
</glyph>
<glyph name="uni0436" format="2">
  <advance width="840"/>
  <unicode hex="0436"/>
  <outline>
    <contour>
      <point x="374" y="0" type="line"/>
      <point x="466" y="0" type="line"/>
      <point x="466" y="460" type="line"/>
      <point x="374" y="460" type="line"/>
    </contour>
    <contour>
      <point x="466" y="199" type="line"/>
      <point x="560" y="199" type="line"/>
      <point x="819" y="460" type="line"/>
      <point x="689" y="460" type="line"/>
      <point x="499" y="268" type="line"/>
      <point x="525" y="279" type="line"/>
      <point x="466" y="279" type="line"/>
    </contour>
    <contour>
      <point x="514" y="227" type="line"/>
      <point x="702" y="0" type="line"/>
      <point x="821" y="0" type="line"/>
      <point x="578" y="296" type="line"/>
    </contour>
    <contour>
      <point x="280" y="199" type="line"/>
      <point x="374" y="199" type="line"/>
      <point x="374" y="279" type="line"/>
      <point x="315" y="279" type="line"/>
      <point x="341" y="268" type="line"/>
      <point x="151" y="460" type="line"/>
      <point x="21" y="460" type="line"/>
    </contour>
    <contour>
      <point x="19" y="0" type="line"/>
      <point x="138" y="0" type="line"/>
      <point x="326" y="227" type="line"/>
      <point x="262" y="296" type="line"/>
    </contour>
  </outline>
  <guideline angle="0" x="0" y="116"/>
</glyph>
<glyph name="uni0437" format="2">
  <advance width="559"/>
  <unicode hex="0437"/>
  <outline>
    <contour>
      <point x="40" y="151" type="line"/>
      <point x="56" y="52"/>
      <point x="149" y="-11"/>
      <point x="282" y="-11" type="curve" smooth="yes"/>
      <point x="420" y="-11"/>
      <point x="519" y="52"/>
      <point x="519" y="140" type="curve" smooth="yes"/>
      <point x="519" y="198"/>
      <point x="488" y="237"/>
      <point x="431" y="251" type="curve"/>
      <point x="431" y="249" type="line"/>
      <point x="482" y="263"/>
      <point x="505" y="291"/>
      <point x="505" y="338" type="curve" smooth="yes"/>
      <point x="505" y="416"/>
      <point x="412" y="471"/>
      <point x="282" y="471" type="curve" smooth="yes"/>
      <point x="158" y="471"/>
      <point x="55" y="406"/>
      <point x="40" y="319" type="curve"/>
      <point x="144" y="319" type="line"/>
      <point x="154" y="359"/>
      <point x="209" y="386"/>
      <point x="281" y="386" type="curve" smooth="yes"/>
      <point x="365" y="386"/>
      <point x="412" y="365"/>
      <point x="412" y="328" type="curve" smooth="yes"/>
      <point x="412" y="294"/>
      <point x="375" y="276"/>
      <point x="306" y="276" type="curve" smooth="yes"/>
      <point x="237" y="276" type="line"/>
      <point x="237" y="207" type="line"/>
      <point x="311" y="207" type="line" smooth="yes"/>
      <point x="394" y="207"/>
      <point x="429" y="187"/>
      <point x="429" y="140" type="curve" smooth="yes"/>
      <point x="429" y="99"/>
      <point x="374" y="74"/>
      <point x="284" y="74" type="curve" smooth="yes"/>
      <point x="200" y="74"/>
      <point x="146" y="103"/>
      <point x="139" y="151" type="curve"/>
    </contour>
  </outline>
</glyph>
<glyph name="uni0438" format="2">
  <advance width="610"/>
  <unicode hex="0438"/>
  <anchor x="305" y="530" name="top"/>
  <outline>
    <contour>
      <point x="66" y="0" type="line"/>
      <point x="159" y="0" type="line"/>
      <point x="405" y="292" type="line" smooth="yes"/>
      <point x="423" y="313"/>
      <point x="440" y="336"/>
      <point x="455" y="359" type="curve"/>
      <point x="450" y="357" type="line"/>
      <point x="460" y="357" type="line"/>
      <point x="456" y="359" type="line"/>
      <point x="453" y="337"/>
      <point x="452" y="314"/>
      <point x="452" y="292" type="curve" smooth="yes"/>
      <point x="452" y="0" type="line"/>
      <point x="544" y="0" type="line"/>
      <point x="544" y="460" type="line"/>
      <point x="450" y="460" type="line"/>
      <point x="205" y="168" type="line" smooth="yes"/>
      <point x="187" y="147"/>
      <point x="171" y="126"/>
      <point x="154" y="101" type="curve"/>
      <point x="159" y="103" type="line"/>
      <point x="149" y="103" type="line"/>
      <point x="153" y="101" type="line"/>
      <point x="157" y="126"/>
      <point x="158" y="146"/>
      <point x="158" y="168" type="curve" smooth="yes"/>
      <point x="158" y="460" type="line"/>
      <point x="66" y="460" type="line"/>
    </contour>
  </outline>
  <guideline angle="49.8725" x="159" y="0"/>
  <guideline angle="229.974" x="450" y="460"/>
</glyph>
<glyph name="uni043A" format="2">
  <advance width="532"/>
  <unicode hex="043A"/>
  <outline>
    <contour>
      <point x="66" y="0" type="line"/>
      <point x="158" y="0" type="line"/>
      <point x="158" y="460" type="line"/>
      <point x="66" y="460" type="line"/>
    </contour>
    <contour>
      <point x="158" y="199" type="line"/>
      <point x="252" y="199" type="line"/>
      <point x="511" y="460" type="line"/>
      <point x="381" y="460" type="line"/>
      <point x="191" y="268" type="line"/>
      <point x="217" y="279" type="line"/>
      <point x="158" y="279" type="line"/>
    </contour>
    <contour>
      <point x="206" y="227" type="line"/>
      <point x="394" y="0" type="line"/>
      <point x="513" y="0" type="line"/>
      <point x="270" y="296" type="line"/>
    </contour>
  </outline>
</glyph>
<glyph name="uni043B" format="2">
  <advance width="598"/>
  <unicode hex="043B"/>
  <outline>
    <contour>
      <point x="23" y="-10" type="line"/>
      <point x="52" y="-10" type="line" smooth="yes"/>
      <point x="146" y="-10"/>
      <point x="187" y="44"/>
      <point x="209" y="310" type="curve" smooth="yes"/>
      <point x="222" y="460" type="line"/>
      <point x="131" y="460" type="line"/>
      <point x="118" y="290" type="line" smooth="yes"/>
      <point x="103" y="93"/>
      <point x="78" y="67"/>
      <point x="23" y="67" type="curve"/>
    </contour>
    <contour>
      <point x="168" y="381" type="line"/>
      <point x="522" y="381" type="line"/>
      <point x="522" y="460" type="line"/>
      <point x="168" y="460" type="line"/>
    </contour>
    <contour>
      <point x="441" y="0" type="line"/>
      <point x="532" y="0" type="line"/>
      <point x="532" y="460" type="line"/>
      <point x="441" y="460" type="line"/>
    </contour>
  </outline>
</glyph>
<glyph name="uni043C" format="2">
  <advance width="754"/>
  <unicode hex="043C"/>
  <outline>
    <contour>
      <point x="66" y="0" type="line"/>
      <point x="158" y="0" type="line"/>
      <point x="158" y="286" type="line" smooth="yes"/>
      <point x="158" y="314"/>
      <point x="158" y="315"/>
      <point x="156" y="347" type="curve"/>
      <point x="141" y="342" type="line"/>
      <point x="182" y="342" type="line"/>
      <point x="158" y="347" type="line"/>
      <point x="164" y="329"/>
      <point x="170" y="314"/>
      <point x="176" y="302" type="curve" smooth="yes"/>
      <point x="321" y="0" type="line"/>
      <point x="433" y="0" type="line"/>
      <point x="578" y="302" type="line" smooth="yes"/>
      <point x="585" y="317"/>
      <point x="591" y="332"/>
      <point x="596" y="347" type="curve"/>
      <point x="581" y="342" type="line"/>
      <point x="603" y="342" type="line"/>
      <point x="598" y="347" type="line"/>
      <point x="597" y="331"/>
      <point x="596" y="310"/>
      <point x="596" y="286" type="curve" smooth="yes"/>
      <point x="596" y="0" type="line"/>
      <point x="688" y="0" type="line"/>
      <point x="688" y="460" type="line"/>
      <point x="562" y="460" type="line"/>
      <point x="404" y="132" type="line" smooth="yes"/>
      <point x="396" y="116"/>
      <point x="385" y="91"/>
      <point x="378" y="73" type="curve"/>
      <point x="386" y="76" type="line"/>
      <point x="367" y="76" type="line"/>
      <point x="376" y="73" type="line"/>
      <point x="369" y="92"/>
      <point x="358" y="116"/>
      <point x="350" y="132" type="curve" smooth="yes"/>
      <point x="192" y="460" type="line"/>
      <point x="66" y="460" type="line"/>
    </contour>
  </outline>
  <guideline angle="90" x="377" y="0"/>
  <guideline angle="0" x="0" y="132"/>
  <guideline angle="0" x="0" y="342"/>
  <guideline angle="90" x="158" y="0"/>
  <guideline angle="0" x="0" y="302"/>
  <guideline angle="0" x="0" y="347"/>
</glyph>
<glyph name="uni043D" format="2">
  <advance width="594"/>
  <unicode hex="043D"/>
  <outline>
    <contour>
      <point x="66" y="0" type="line"/>
      <point x="158" y="0" type="line"/>
      <point x="158" y="460" type="line"/>
      <point x="66" y="460" type="line"/>
    </contour>
    <contour>
      <point x="120" y="200" type="line"/>
      <point x="463" y="200" type="line"/>
      <point x="463" y="278" type="line"/>
      <point x="120" y="278" type="line"/>
    </contour>
    <contour>
      <point x="436" y="0" type="line"/>
      <point x="528" y="0" type="line"/>
      <point x="528" y="460" type="line"/>
      <point x="436" y="460" type="line"/>
    </contour>
  </outline>
</glyph>
<glyph name="uni043F" format="2">
  <advance width="576"/>
  <unicode hex="043F"/>
  <outline>
    <contour>
      <point x="116" y="380" type="line"/>
      <point x="447" y="380" type="line"/>
      <point x="447" y="460" type="line"/>
      <point x="116" y="460" type="line"/>
    </contour>
    <contour>
      <point x="66" y="0" type="line"/>
      <point x="158" y="0" type="line"/>
      <point x="158" y="460" type="line"/>
      <point x="66" y="460" type="line"/>
    </contour>
    <contour>
      <point x="418" y="0" type="line"/>
      <point x="510" y="0" type="line"/>
      <point x="510" y="460" type="line"/>
      <point x="418" y="460" type="line"/>
    </contour>
  </outline>
</glyph>
<glyph name="uni0444" format="2">
  <advance width="795"/>
  <unicode hex="0444"/>
  <outline>
    <contour>
      <point x="352" y="-200" type="line"/>
      <point x="444" y="-200" type="line"/>
      <point x="444" y="7" type="line"/>
      <point x="440" y="47" type="line"/>
      <point x="440" y="409" type="line"/>
      <point x="444" y="453" type="line"/>
      <point x="444" y="700" type="line"/>
      <point x="352" y="700" type="line"/>
      <point x="352" y="453" type="line"/>
      <point x="356" y="409" type="line"/>
      <point x="356" y="47" type="line"/>
      <point x="352" y="7" type="line"/>
    </contour>
    <contour>
      <point x="435" y="-12" type="line"/>
      <point x="632" y="-5"/>
      <point x="755" y="88"/>
      <point x="755" y="230" type="curve" smooth="yes"/>
      <point x="755" y="372"/>
      <point x="632" y="465"/>
      <point x="435" y="472" type="curve"/>
      <point x="435" y="391" type="line"/>
      <point x="586" y="387"/>
      <point x="663" y="332"/>
      <point x="663" y="230" type="curve" smooth="yes"/>
      <point x="663" y="126"/>
      <point x="588" y="73"/>
      <point x="435" y="69" type="curve"/>
    </contour>
    <contour>
      <point x="40" y="230" type="curve" smooth="yes"/>
      <point x="40" y="88"/>
      <point x="163" y="-5"/>
      <point x="360" y="-12" type="curve"/>
      <point x="360" y="69" type="line"/>
      <point x="208" y="73"/>
      <point x="133" y="126"/>
      <point x="133" y="230" type="curve" smooth="yes"/>
      <point x="133" y="332"/>
      <point x="211" y="387"/>
      <point x="360" y="391" type="curve"/>
      <point x="360" y="472" type="line"/>
      <point x="163" y="465"/>
      <point x="40" y="372"/>
    </contour>
  </outline>
</glyph>
<glyph name="uni0446" format="2">
  <advance width="597"/>
  <unicode hex="0446"/>
  <outline>
    <contour>
      <point x="66" y="0" type="line"/>
      <point x="157" y="0" type="line"/>
      <point x="157" y="460" type="line"/>
      <point x="66" y="460" type="line"/>
    </contour>
    <contour>
      <point x="412" y="0" type="line"/>
      <point x="503" y="0" type="line"/>
      <point x="503" y="460" type="line"/>
      <point x="412" y="460" type="line"/>
    </contour>
    <contour>
      <point x="78" y="0" type="line"/>
      <point x="432" y="0" type="line"/>
      <point x="432" y="79" type="line"/>
      <point x="78" y="79" type="line"/>
    </contour>
    <contour>
      <point x="463" y="0" type="line"/>
      <point x="516" y="0" type="line"/>
      <point x="528" y="-140" type="line"/>
      <point x="593" y="-140" type="line"/>
      <point x="593" y="79" type="line"/>
      <point x="463" y="79" type="line"/>
    </contour>
  </outline>
</glyph>
<glyph name="uni0447" format="2">
  <advance width="570"/>
  <unicode hex="0447"/>
  <outline>
    <contour>
      <point x="66" y="316" type="line" smooth="yes"/>
      <point x="66" y="228"/>
      <point x="95" y="140"/>
      <point x="248" y="140" type="curve" smooth="yes"/>
      <point x="303" y="140"/>
      <point x="386" y="159"/>
      <point x="428" y="174" type="curve"/>
      <point x="419" y="249" type="line"/>
      <point x="403" y="241"/>
      <point x="316" y="226"/>
      <point x="260" y="226" type="curve" smooth="yes"/>
      <point x="161" y="226"/>
      <point x="158" y="273"/>
      <point x="158" y="349" type="curve" smooth="yes"/>
      <point x="158" y="460" type="line"/>
      <point x="66" y="460" type="line"/>
    </contour>
    <contour>
      <point x="412" y="0" type="line"/>
      <point x="504" y="0" type="line"/>
      <point x="504" y="460" type="line"/>
      <point x="412" y="460" type="line"/>
    </contour>
  </outline>
</glyph>
<glyph name="uni0448" format="2">
  <advance width="888"/>
  <unicode hex="0448"/>
  <outline>
    <contour>
      <point x="66" y="0" type="line"/>
      <point x="158" y="0" type="line"/>
      <point x="158" y="460" type="line"/>
      <point x="66" y="460" type="line"/>
    </contour>
    <contour>
      <point x="126" y="0" type="line"/>
      <point x="759" y="0" type="line"/>
      <point x="759" y="80" type="line"/>
      <point x="126" y="80" type="line"/>
    </contour>
    <contour>
      <point x="398" y="0" type="line"/>
      <point x="490" y="0" type="line"/>
      <point x="490" y="460" type="line"/>
      <point x="398" y="460" type="line"/>
    </contour>
    <contour>
      <point x="730" y="0" type="line"/>
      <point x="822" y="0" type="line"/>
      <point x="822" y="460" type="line"/>
      <point x="730" y="460" type="line"/>
    </contour>
  </outline>
</glyph>
<glyph name="uni0449" format="2">
  <advance width="997"/>
  <unicode hex="0449"/>
  <outline>
    <contour>
      <point x="66" y="0" type="line"/>
      <point x="812" y="0" type="line"/>
      <point x="812" y="79" type="line"/>
      <point x="66" y="79" type="line"/>
    </contour>
    <contour>
      <point x="801" y="0" type="line"/>
      <point x="853" y="0" type="line"/>
      <point x="866" y="-140" type="line"/>
      <point x="931" y="-140" type="line"/>
      <point x="931" y="79" type="line"/>
      <point x="801" y="79" type="line"/>
    </contour>
    <contour>
      <point x="66" y="0" type="line"/>
      <point x="157" y="0" type="line"/>
      <point x="157" y="460" type="line"/>
      <point x="66" y="460" type="line"/>
    </contour>
    <contour>
      <point x="400" y="0" type="line"/>
      <point x="491" y="0" type="line"/>
      <point x="491" y="460" type="line"/>
      <point x="400" y="460" type="line"/>
    </contour>
    <contour>
      <point x="733" y="0" type="line"/>
      <point x="825" y="0" type="line"/>
      <point x="825" y="460" type="line"/>
      <point x="733" y="460" type="line"/>
    </contour>
  </outline>
</glyph>
<glyph name="uni044A" format="2">
  <advance width="622"/>
  <unicode hex="044A"/>
  <outline>
    <contour>
      <point x="37" y="371" type="line"/>
      <point x="227" y="371" type="line"/>
      <point x="227" y="460" type="line"/>
      <point x="37" y="460" type="line"/>
    </contour>
    <contour>
      <point x="148" y="0" type="line"/>
      <point x="241" y="0" type="line"/>
      <point x="241" y="460" type="line"/>
      <point x="148" y="460" type="line"/>
    </contour>
    <contour>
      <point x="217" y="0" type="line"/>
      <point x="376" y="0" type="line" smooth="yes"/>
      <point x="541" y="0"/>
      <point x="582" y="69"/>
      <point x="582" y="144" type="curve" smooth="yes"/>
      <point x="582" y="219"/>
      <point x="541" y="296"/>
      <point x="376" y="296" type="curve" smooth="yes"/>
      <point x="217" y="296" type="line"/>
      <point x="217" y="224" type="line"/>
      <point x="371" y="224" type="line" smooth="yes"/>
      <point x="459" y="224"/>
      <point x="489" y="191"/>
      <point x="489" y="144" type="curve" smooth="yes"/>
      <point x="489" y="101"/>
      <point x="459" y="72"/>
      <point x="371" y="72" type="curve" smooth="yes"/>
      <point x="217" y="72" type="line"/>
    </contour>
  </outline>
</glyph>
<glyph name="uni044B" format="2">
  <advance width="721"/>
  <unicode hex="044B"/>
  <anchor x="361" y="540" name="top"/>
  <outline>
    <contour>
      <point x="66" y="0" type="line"/>
      <point x="158" y="0" type="line"/>
      <point x="158" y="460" type="line"/>
      <point x="66" y="460" type="line"/>
    </contour>
    <contour>
      <point x="148" y="0" type="line"/>
      <point x="324" y="0" type="line" smooth="yes"/>
      <point x="429" y="0"/>
      <point x="499" y="58"/>
      <point x="499" y="146" type="curve" smooth="yes"/>
      <point x="499" y="235"/>
      <point x="429" y="296"/>
      <point x="324" y="296" type="curve" smooth="yes"/>
      <point x="148" y="296" type="line"/>
      <point x="148" y="224" type="line"/>
      <point x="319" y="224" type="line" smooth="yes"/>
      <point x="372" y="224"/>
      <point x="407" y="192"/>
      <point x="407" y="147" type="curve" smooth="yes"/>
      <point x="407" y="101"/>
      <point x="372" y="72"/>
      <point x="319" y="72" type="curve" smooth="yes"/>
      <point x="148" y="72" type="line"/>
    </contour>
    <contour>
      <point x="563" y="0" type="line"/>
      <point x="655" y="0" type="line"/>
      <point x="655" y="460" type="line"/>
      <point x="563" y="460" type="line"/>
    </contour>
  </outline>
</glyph>
<glyph name="uni044C" format="2">
  <advance width="539"/>
  <unicode hex="044C"/>
  <outline>
    <contour>
      <point x="66" y="0" type="line"/>
      <point x="158" y="0" type="line"/>
      <point x="158" y="460" type="line"/>
      <point x="66" y="460" type="line"/>
    </contour>
    <contour>
      <point x="148" y="0" type="line"/>
      <point x="324" y="0" type="line" smooth="yes"/>
      <point x="429" y="0"/>
      <point x="499" y="58"/>
      <point x="499" y="146" type="curve" smooth="yes"/>
      <point x="499" y="235"/>
      <point x="429" y="296"/>
      <point x="324" y="296" type="curve" smooth="yes"/>
      <point x="148" y="296" type="line"/>
      <point x="148" y="224" type="line"/>
      <point x="319" y="224" type="line" smooth="yes"/>
      <point x="372" y="224"/>
      <point x="407" y="192"/>
      <point x="407" y="147" type="curve" smooth="yes"/>
      <point x="407" y="101"/>
      <point x="372" y="72"/>
      <point x="319" y="72" type="curve" smooth="yes"/>
      <point x="148" y="72" type="line"/>
    </contour>
  </outline>
</glyph>
<glyph name="uni044D" format="2">
  <advance width="579"/>
  <unicode hex="044D"/>
  <anchor x="294" y="540" name="top"/>
  <outline>
    <contour>
      <point x="41" y="153" type="line"/>
      <point x="69" y="54"/>
      <point x="168" y="-12"/>
      <point x="287" y="-12" type="curve" smooth="yes"/>
      <point x="438" y="-12"/>
      <point x="539" y="93"/>
      <point x="539" y="251" type="curve" smooth="yes"/>
      <point x="539" y="384"/>
      <point x="438" y="472"/>
      <point x="287" y="472" type="curve" smooth="yes"/>
      <point x="156" y="472"/>
      <point x="75" y="412"/>
      <point x="40" y="317" type="curve"/>
      <point x="136" y="317" type="line"/>
      <point x="172" y="371"/>
      <point x="218" y="396"/>
      <point x="285" y="396" type="curve" smooth="yes"/>
      <point x="382" y="396"/>
      <point x="447" y="334"/>
      <point x="447" y="242" type="curve" smooth="yes"/>
      <point x="447" y="135"/>
      <point x="381" y="64"/>
      <point x="283" y="64" type="curve" smooth="yes"/>
      <point x="216" y="64"/>
      <point x="157" y="100"/>
      <point x="136" y="153" type="curve"/>
    </contour>
    <contour>
      <point x="293" y="206" type="line"/>
      <point x="470" y="206" type="line"/>
      <point x="470" y="278" type="line"/>
      <point x="293" y="278" type="line"/>
    </contour>
  </outline>
</glyph>
<glyph name="uni044E" format="2">
  <advance width="759"/>
  <unicode hex="044E"/>
  <anchor x="396" y="540" name="top"/>
  <outline>
    <contour>
      <point x="66" y="0" type="line"/>
      <point x="158" y="0" type="line"/>
      <point x="158" y="185" type="line"/>
      <point x="266" y="185" type="line"/>
      <point x="266" y="275" type="line"/>
      <point x="158" y="275" type="line"/>
      <point x="158" y="460" type="line"/>
      <point x="66" y="460" type="line"/>
    </contour>
    <contour>
      <point x="223" y="232" type="curve" smooth="yes"/>
      <point x="223" y="85"/>
      <point x="320" y="-12"/>
      <point x="465" y="-12" type="curve" smooth="yes"/>
      <point x="617" y="-12"/>
      <point x="719" y="84"/>
      <point x="719" y="231" type="curve" smooth="yes"/>
      <point x="719" y="376"/>
      <point x="617" y="472"/>
      <point x="465" y="472" type="curve" smooth="yes"/>
      <point x="320" y="472"/>
      <point x="223" y="376"/>
    </contour>
    <contour>
      <point x="316" y="231" type="curve" smooth="yes"/>
      <point x="316" y="330"/>
      <point x="376" y="396"/>
      <point x="466" y="396" type="curve" smooth="yes"/>
      <point x="563" y="396"/>
      <point x="627" y="330"/>
      <point x="627" y="231" type="curve" smooth="yes"/>
      <point x="627" y="130"/>
      <point x="563" y="64"/>
      <point x="466" y="64" type="curve" smooth="yes"/>
      <point x="376" y="64"/>
      <point x="316" y="130"/>
    </contour>
  </outline>
</glyph>
<glyph name="uni044F" format="2">
  <advance width="561"/>
  <unicode hex="044F"/>
  <anchor x="289" y="540" name="top"/>
  <outline>
    <contour>
      <point x="69" y="322" type="curve" smooth="yes"/>
      <point x="69" y="236"/>
      <point x="127" y="179"/>
      <point x="215" y="179" type="curve" smooth="yes"/>
      <point x="423" y="179" type="line"/>
      <point x="423" y="251" type="line"/>
      <point x="239" y="251" type="line" smooth="yes"/>
      <point x="192" y="251"/>
      <point x="161" y="279"/>
      <point x="161" y="321" type="curve" smooth="yes"/>
      <point x="161" y="361"/>
      <point x="192" y="388"/>
      <point x="239" y="388" type="curve" smooth="yes"/>
      <point x="423" y="388" type="line"/>
      <point x="423" y="460" type="line"/>
      <point x="214" y="460" type="line" smooth="yes"/>
      <point x="127" y="460"/>
      <point x="69" y="405"/>
    </contour>
    <contour>
      <point x="58" y="0" type="line"/>
      <point x="163" y="0" type="line"/>
      <point x="283" y="194" type="line"/>
      <point x="194" y="206" type="line"/>
    </contour>
    <contour>
      <point x="403" y="0" type="line"/>
      <point x="495" y="0" type="line"/>
      <point x="495" y="460" type="line"/>
      <point x="403" y="460" type="line"/>
    </contour>
  </outline>
</glyph>
<glyph name="uni0452" format="2">
  <advance width="622"/>
  <unicode hex="0452"/>
  <anchor x="408" y="540" name="top"/>
  <outline>
    <component base="uni045B"/>
    <contour>
      <point x="288" y="-83" type="line"/>
      <point x="288" y="-149"/>
      <point x="341" y="-200"/>
      <point x="412" y="-200" type="curve" smooth="yes"/>
      <point x="503" y="-200"/>
      <point x="556" y="-151"/>
      <point x="556" y="-52" type="curve" smooth="yes"/>
      <point x="556" y="50" type="line"/>
      <point x="464" y="50" type="line"/>
      <point x="464" y="-64" type="line" smooth="yes"/>
      <point x="464" y="-110"/>
      <point x="443" y="-124"/>
      <point x="418" y="-124" type="curve" smooth="yes"/>
      <point x="395" y="-124"/>
      <point x="373" y="-107"/>
      <point x="373" y="-83" type="curve"/>
    </contour>
  </outline>
</glyph>
<glyph name="uni045F" format="2">
  <advance width="566"/>
  <unicode hex="045F"/>
  <outline>
    <contour>
      <point x="66" y="0" type="line"/>
      <point x="158" y="0" type="line"/>
      <point x="158" y="460" type="line"/>
      <point x="66" y="460" type="line"/>
    </contour>
    <contour>
      <point x="408" y="0" type="line"/>
      <point x="500" y="0" type="line"/>
      <point x="500" y="460" type="line"/>
      <point x="408" y="460" type="line"/>
    </contour>
    <contour>
      <point x="118" y="0" type="line"/>
      <point x="458" y="0" type="line"/>
      <point x="458" y="80" type="line"/>
      <point x="118" y="80" type="line"/>
    </contour>
    <contour>
      <point x="245" y="80" type="line"/>
      <point x="245" y="-140" type="line"/>
      <point x="325" y="-140" type="line"/>
      <point x="325" y="80" type="line"/>
    </contour>
  </outline>
  <guideline angle="90" x="283" y="0"/>
</glyph>
<glyph name="Yatcyr" format="2">
  <advance width="702"/>
  <unicode hex="0462"/>
  <outline>
    <component base="uni042C" xOffset="20"/>
    <contour>
      <point x="0" y="530" type="line"/>
      <point x="388" y="530" type="line"/>
      <point x="388" y="610" type="line"/>
      <point x="0" y="610" type="line"/>
    </contour>
  </outline>
</glyph>
<glyph name="uni0463" format="2">
  <advance width="539"/>
  <unicode hex="0463"/>
  <outline>
    <contour>
      <point x="66" y="0" type="line"/>
      <point x="158" y="0" type="line"/>
      <point x="158" y="680" type="line"/>
      <point x="66" y="680" type="line"/>
    </contour>
    <contour>
      <point x="135" y="0" type="line"/>
      <point x="293" y="0" type="line" smooth="yes"/>
      <point x="458" y="0"/>
      <point x="499" y="69"/>
      <point x="499" y="144" type="curve" smooth="yes"/>
      <point x="499" y="219"/>
      <point x="458" y="296"/>
      <point x="293" y="296" type="curve" smooth="yes"/>
      <point x="135" y="296" type="line"/>
      <point x="135" y="224" type="line"/>
      <point x="288" y="224" type="line" smooth="yes"/>
      <point x="377" y="224"/>
      <point x="407" y="191"/>
      <point x="407" y="144" type="curve" smooth="yes"/>
      <point x="407" y="101"/>
      <point x="377" y="72"/>
      <point x="288" y="72" type="curve" smooth="yes"/>
      <point x="135" y="72" type="line"/>
    </contour>
    <contour>
      <point x="0" y="530" type="line"/>
      <point x="345" y="530" type="line"/>
      <point x="345" y="610" type="line"/>
      <point x="0" y="610" type="line"/>
    </contour>
  </outline>
</glyph>
<glyph name="uni0467" format="2">
  <advance width="650"/>
  <unicode hex="0467"/>
  <anchor x="326" y="740" name="top"/>
  <anchor x="326" y="-50" name="bottom"/>
  <outline>
    <contour>
      <point x="145" y="90" type="line"/>
      <point x="509" y="90" type="line"/>
      <point x="509" y="170" type="line"/>
      <point x="145" y="170" type="line"/>
    </contour>
    <contour>
      <point x="10" y="0" type="line"/>
      <point x="111" y="0" type="line"/>
      <point x="279" y="287" type="line" smooth="yes"/>
      <point x="298" y="319"/>
      <point x="313" y="347"/>
      <point x="325" y="374" type="curve"/>
      <point x="320" y="372" type="line"/>
      <point x="331" y="372" type="line"/>
      <point x="327" y="374" type="line"/>
      <point x="339" y="347"/>
      <point x="353" y="317"/>
      <point x="371" y="287" type="curve" smooth="yes"/>
      <point x="540" y="0" type="line"/>
      <point x="640" y="0" type="line"/>
      <point x="380" y="460" type="line"/>
      <point x="270" y="460" type="line"/>
    </contour>
    <contour>
      <point x="280" y="0" type="line"/>
      <point x="372" y="0" type="line"/>
      <point x="372" y="126" type="line"/>
      <point x="280" y="126" type="line"/>
    </contour>
  </outline>
</glyph>
<glyph name="uni0468" format="2">
  <advance width="831"/>
  <unicode hex="0468"/>
  <outline>
    <contour>
      <point x="60" y="0" type="line"/>
      <point x="160" y="0" type="line"/>
      <point x="160" y="680" type="line"/>
      <point x="60" y="680" type="line"/>
    </contour>
    <contour>
      <point x="111" y="187" type="line"/>
      <point x="316" y="187" type="line"/>
      <point x="316" y="277" type="line"/>
      <point x="111" y="277" type="line"/>
    </contour>
    <contour>
      <point x="326" y="187" type="line"/>
      <point x="690" y="187" type="line"/>
      <point x="690" y="277" type="line"/>
      <point x="326" y="277" type="line"/>
    </contour>
    <contour>
      <point x="191" y="0" type="line"/>
      <point x="292" y="0" type="line"/>
      <point x="460" y="437" type="line" smooth="yes"/>
      <point x="472" y="469"/>
      <point x="494" y="537"/>
      <point x="506" y="594" type="curve"/>
      <point x="501" y="592" type="line"/>
      <point x="512" y="592" type="line"/>
      <point x="508" y="594" type="line"/>
      <point x="520" y="537"/>
      <point x="540" y="469"/>
      <point x="552" y="437" type="curve" smooth="yes"/>
      <point x="721" y="0" type="line"/>
      <point x="821" y="0" type="line"/>
      <point x="561" y="680" type="line"/>
      <point x="451" y="680" type="line"/>
    </contour>
    <contour>
      <point x="462" y="0" type="line"/>
      <point x="552" y="0" type="line"/>
      <point x="552" y="226" type="line"/>
      <point x="462" y="226" type="line"/>
    </contour>
  </outline>
</glyph>
<glyph name="uni0469" format="2">
  <advance width="816"/>
  <unicode hex="0469"/>
  <outline>
    <contour>
      <point x="66" y="0" type="line"/>
      <point x="158" y="0" type="line"/>
      <point x="158" y="460" type="line"/>
      <point x="66" y="460" type="line"/>
    </contour>
    <contour>
      <point x="120" y="90" type="line"/>
      <point x="295" y="90" type="line"/>
      <point x="295" y="170" type="line"/>
      <point x="120" y="170" type="line"/>
    </contour>
    <contour>
      <point x="311" y="90" type="line"/>
      <point x="675" y="90" type="line"/>
      <point x="675" y="170" type="line"/>
      <point x="311" y="170" type="line"/>
    </contour>
    <contour>
      <point x="176" y="0" type="line"/>
      <point x="277" y="0" type="line"/>
      <point x="445" y="287" type="line" smooth="yes"/>
      <point x="464" y="319"/>
      <point x="479" y="347"/>
      <point x="491" y="374" type="curve"/>
      <point x="486" y="372" type="line"/>
      <point x="497" y="372" type="line"/>
      <point x="493" y="374" type="line"/>
      <point x="505" y="347"/>
      <point x="519" y="317"/>
      <point x="537" y="287" type="curve" smooth="yes"/>
      <point x="706" y="0" type="line"/>
      <point x="806" y="0" type="line"/>
      <point x="546" y="460" type="line"/>
      <point x="436" y="460" type="line"/>
    </contour>
    <contour>
      <point x="446" y="0" type="line"/>
      <point x="538" y="0" type="line"/>
      <point x="538" y="126" type="line"/>
      <point x="446" y="126" type="line"/>
    </contour>
  </outline>
</glyph>
<glyph name="uni046A" format="2">
  <advance width="1140"/>
  <unicode hex="046A"/>
  <outline>
    <contour>
      <point x="520" y="0" type="line"/>
      <point x="620" y="0" type="line"/>
      <point x="620" y="404" type="line"/>
      <point x="520" y="404" type="line"/>
    </contour>
    <contour>
      <point x="530" y="314" type="line"/>
      <point x="608" y="314" type="line"/>
      <point x="984" y="575" type="line"/>
      <point x="984" y="680" type="line"/>
      <point x="833" y="680" type="line"/>
      <point x="833" y="590" type="line"/>
      <point x="550" y="393" type="line"/>
      <point x="575" y="404" type="line"/>
      <point x="530" y="404" type="line"/>
    </contour>
    <contour>
      <point x="570" y="339" type="line"/>
      <point x="814" y="284"/>
      <point x="919" y="206"/>
      <point x="1030" y="0" type="curve"/>
      <point x="1130" y="0" type="line"/>
      <point x="1076" y="199"/>
      <point x="883" y="360"/>
      <point x="648" y="404" type="curve"/>
    </contour>
    <contour>
      <point x="532" y="314" type="line"/>
      <point x="610" y="314" type="line"/>
      <point x="610" y="404" type="line"/>
      <point x="565" y="404" type="line"/>
      <point x="590" y="393" type="line"/>
      <point x="305" y="590" type="line"/>
      <point x="305" y="680" type="line"/>
      <point x="151" y="680" type="line"/>
      <point x="151" y="574" type="line"/>
    </contour>
    <contour>
      <point x="10" y="0" type="curve"/>
      <point x="110" y="0" type="line"/>
      <point x="224" y="210"/>
      <point x="334" y="286"/>
      <point x="570" y="339" type="curve"/>
      <point x="492" y="404" type="line"/>
      <point x="257" y="360"/>
      <point x="64" y="199"/>
    </contour>
    <contour>
      <point x="210" y="590" type="line"/>
      <point x="928" y="590" type="line"/>
      <point x="928" y="680" type="line"/>
      <point x="210" y="680" type="line"/>
    </contour>
  </outline>
  <guideline angle="90" x="93" y="0"/>
  <guideline angle="90" x="82" y="0"/>
  <guideline angle="0" x="0" y="590"/>
  <guideline angle="90" x="520" y="0"/>
  <guideline angle="90" x="683" y="0"/>
  <guideline angle="90" x="704" y="0"/>
  <guideline angle="90" x="520" y="0"/>
  <guideline angle="90" x="620" y="0"/>
  <guideline angle="90" x="469" y="0"/>
</glyph>
<glyph name="uni046B" format="2">
  <advance width="840"/>
  <unicode hex="046B"/>
  <outline>
    <contour>
      <point x="374" y="0" type="line"/>
      <point x="466" y="0" type="line"/>
      <point x="466" y="259" type="line"/>
      <point x="374" y="259" type="line"/>
    </contour>
    <contour>
      <point x="356" y="218" type="line"/>
      <point x="479" y="218" type="line"/>
      <point x="709" y="360" type="line"/>
      <point x="709" y="460" type="line"/>
      <point x="610" y="460" type="line"/>
      <point x="610" y="380" type="line"/>
      <point x="389" y="248" type="line"/>
      <point x="415" y="259" type="line"/>
      <point x="356" y="259" type="line"/>
    </contour>
    <contour>
      <point x="404" y="227" type="line"/>
      <point x="566" y="198"/>
      <point x="699" y="99"/>
      <point x="729" y="0" type="curve"/>
      <point x="821" y="0" type="line"/>
      <point x="773" y="122"/>
      <point x="689" y="243"/>
      <point x="468" y="276" type="curve"/>
    </contour>
    <contour>
      <point x="361" y="218" type="line"/>
      <point x="484" y="218" type="line"/>
      <point x="484" y="259" type="line"/>
      <point x="425" y="259" type="line"/>
      <point x="451" y="248" type="line"/>
      <point x="230" y="380" type="line"/>
      <point x="230" y="460" type="line"/>
      <point x="131" y="460" type="line"/>
      <point x="131" y="360" type="line"/>
    </contour>
    <contour>
      <point x="19" y="0" type="curve"/>
      <point x="111" y="0" type="line"/>
      <point x="149" y="99"/>
      <point x="283" y="198"/>
      <point x="436" y="227" type="curve"/>
      <point x="372" y="276" type="line"/>
      <point x="172" y="243"/>
      <point x="75" y="122"/>
    </contour>
    <contour>
      <point x="183" y="380" type="line"/>
      <point x="652" y="380" type="line"/>
      <point x="652" y="460" type="line"/>
      <point x="183" y="460" type="line"/>
    </contour>
  </outline>
  <guideline angle="0" x="0" y="253"/>
  <guideline angle="0" x="0" y="204"/>
</glyph>
<glyph name="uni046C" format="2">
  <advance width="1320"/>
  <unicode hex="046C"/>
  <outline>
    <contour>
      <point x="60" y="0" type="line"/>
      <point x="160" y="0" type="line"/>
      <point x="160" y="680" type="line"/>
      <point x="60" y="680" type="line"/>
    </contour>
    <contour>
      <point x="111" y="317" type="line"/>
      <point x="746" y="317" type="line"/>
      <point x="746" y="407" type="line"/>
      <point x="111" y="407" type="line"/>
    </contour>
    <contour>
      <point x="700" y="0" type="line"/>
      <point x="800" y="0" type="line"/>
      <point x="800" y="404" type="line"/>
      <point x="700" y="404" type="line"/>
    </contour>
    <contour>
      <point x="710" y="314" type="line"/>
      <point x="788" y="314" type="line"/>
      <point x="1164" y="575" type="line"/>
      <point x="1164" y="680" type="line"/>
      <point x="1013" y="680" type="line"/>
      <point x="1013" y="590" type="line"/>
      <point x="730" y="393" type="line"/>
      <point x="755" y="404" type="line"/>
      <point x="710" y="404" type="line"/>
    </contour>
    <contour>
      <point x="750" y="339" type="line"/>
      <point x="994" y="284"/>
      <point x="1099" y="206"/>
      <point x="1210" y="0" type="curve"/>
      <point x="1310" y="0" type="line"/>
      <point x="1256" y="199"/>
      <point x="1063" y="360"/>
      <point x="828" y="404" type="curve"/>
    </contour>
    <contour>
      <point x="712" y="314" type="line"/>
      <point x="790" y="314" type="line"/>
      <point x="790" y="404" type="line"/>
      <point x="745" y="404" type="line"/>
      <point x="770" y="393" type="line"/>
      <point x="485" y="590" type="line"/>
      <point x="485" y="680" type="line"/>
      <point x="331" y="680" type="line"/>
      <point x="331" y="574" type="line"/>
    </contour>
    <contour>
      <point x="190" y="0" type="curve"/>
      <point x="290" y="0" type="line"/>
      <point x="404" y="210"/>
      <point x="514" y="286"/>
      <point x="750" y="339" type="curve"/>
      <point x="672" y="404" type="line"/>
      <point x="437" y="360"/>
      <point x="244" y="199"/>
    </contour>
    <contour>
      <point x="390" y="590" type="line"/>
      <point x="1108" y="590" type="line"/>
      <point x="1108" y="680" type="line"/>
      <point x="390" y="680" type="line"/>
    </contour>
  </outline>
</glyph>
<glyph name="uni046D" format="2">
  <advance width="1007"/>
  <unicode hex="046D"/>
  <outline>
    <component base="uni046B" xOffset="167"/>
    <contour>
      <point x="66" y="0" type="line"/>
      <point x="158" y="0" type="line"/>
      <point x="158" y="460" type="line"/>
      <point x="66" y="460" type="line"/>
    </contour>
    <contour>
      <point x="120" y="218" type="line"/>
      <point x="675" y="218" type="line"/>
      <point x="675" y="298" type="line"/>
      <point x="120" y="298" type="line"/>
    </contour>
  </outline>
</glyph>
<glyph name="uni0490" format="2">
  <advance width="586"/>
  <unicode hex="0490"/>
  <outline>
    <contour>
      <point x="60" y="0" type="line"/>
      <point x="160" y="0" type="line"/>
      <point x="160" y="680" type="line"/>
      <point x="60" y="680" type="line"/>
    </contour>
    <contour>
      <point x="136" y="590" type="line"/>
      <point x="546" y="590" type="line"/>
      <point x="546" y="680" type="line"/>
      <point x="136" y="680" type="line"/>
    </contour>
    <contour>
      <point x="446.16" y="660" type="line"/>
      <point x="546.16" y="660" type="line"/>
      <point x="546.16" y="800" type="line"/>
      <point x="456.16" y="800" type="line"/>
    </contour>
  </outline>
</glyph>
<glyph name="uni0491" format="2">
  <advance width="469"/>
  <unicode hex="0491"/>
  <outline>
    <component base="uni0433"/>
    <contour>
      <point x="348.119" y="442" type="line"/>
      <point x="440.119" y="442" type="line"/>
      <point x="440.119" y="570" type="line"/>
      <point x="358.119" y="570" type="line"/>
    </contour>
  </outline>
</glyph>
<glyph name="Germandbls" format="2">
  <advance width="712"/>
  <unicode hex="1E9E"/>
  <outline>
    <contour>
      <point x="60" y="0" type="line"/>
      <point x="152" y="0" type="line"/>
      <point x="152" y="480" type="line" smooth="yes"/>
      <point x="152" y="566"/>
      <point x="222" y="624"/>
      <point x="326" y="624" type="curve" smooth="yes"/>
      <point x="393" y="624"/>
      <point x="443" y="605"/>
      <point x="499" y="558" type="curve"/>
      <point x="398" y="442" type="line"/>
      <point x="398" y="362" type="line"/>
      <point x="499" y="362"/>
      <point x="572" y="324"/>
      <point x="572" y="212" type="curve" smooth="yes"/>
      <point x="572" y="107"/>
      <point x="468" y="64"/>
      <point x="349" y="64" type="curve" smooth="yes"/>
      <point x="314" y="64"/>
      <point x="235" y="70"/>
      <point x="209" y="74" type="curve"/>
      <point x="209" y="-4" type="line"/>
      <point x="234" y="-8"/>
      <point x="301" y="-12"/>
      <point x="344" y="-12" type="curve" smooth="yes"/>
      <point x="524" y="-12"/>
      <point x="664" y="70"/>
      <point x="664" y="228" type="curve" smooth="yes"/>
      <point x="664" y="352"/>
      <point x="570" y="436"/>
      <point x="431" y="436" type="curve"/>
      <point x="467" y="407" type="line"/>
      <point x="599" y="558" type="line"/>
      <point x="540" y="654"/>
      <point x="451" y="700"/>
      <point x="322" y="700" type="curve" smooth="yes"/>
      <point x="165" y="700"/>
      <point x="60" y="617"/>
      <point x="60" y="492" type="curve" smooth="yes"/>
    </contour>
  </outline>
</glyph>
<glyph name="uni2012" format="2">
  <advance width="454"/>
  <unicode hex="2012"/>
  <outline>
    <contour>
      <point x="66" y="204" type="line"/>
      <point x="388" y="204" type="line"/>
      <point x="388" y="269" type="line"/>
      <point x="66" y="269" type="line"/>
    </contour>
  </outline>
</glyph>
<glyph name="endash" format="2">
  <advance width="482"/>
  <unicode hex="2013"/>
  <outline>
    <contour>
      <point x="66" y="204" type="line"/>
      <point x="416" y="204" type="line"/>
      <point x="416" y="282" type="line"/>
      <point x="66" y="282" type="line"/>
    </contour>
  </outline>
</glyph>
<glyph name="emdash" format="2">
  <advance width="582"/>
  <unicode hex="2014"/>
  <outline>
    <contour>
      <point x="66" y="204" type="line"/>
      <point x="516" y="204" type="line"/>
      <point x="516" y="282" type="line"/>
      <point x="66" y="282" type="line"/>
    </contour>
  </outline>
</glyph>
<glyph name="quoteright" format="2">
  <advance width="186"/>
  <unicode hex="2019"/>
  <anchor x="48" y="711" name="_t.quoteright"/>
  <outline>
    <contour>
      <point x="138" y="711" type="line"/>
      <point x="48" y="711" type="line"/>
      <point x="48" y="623" type="line"/>
      <point x="72" y="623" type="line"/>
      <point x="49" y="510" type="line"/>
      <point x="90" y="510" type="line"/>
      <point x="138" y="624" type="line"/>
    </contour>
  </outline>
</glyph>
<glyph name="dagger" format="2">
  <advance width="463"/>
  <unicode hex="2020"/>
  <outline>
    <contour>
      <point x="197.146" y="-150" type="line"/>
      <point x="265.854" y="-150" type="line"/>
      <point x="277.5" y="240" type="line"/>
      <point x="277.5" y="412" type="line"/>
      <point x="265.854" y="622" type="line"/>
      <point x="197.146" y="622" type="line"/>
      <point x="185.5" y="412" type="line"/>
      <point x="185.5" y="240" type="line"/>
    </contour>
    <contour>
      <point x="19" y="371" type="line"/>
      <point x="69.4629" y="370.764" type="line"/>
      <point x="231.5" y="376" type="line"/>
      <point x="393.821" y="370.639" type="line"/>
      <point x="444" y="371" type="line"/>
      <point x="444" y="451" type="line"/>
      <point x="393.821" y="451.361" type="line"/>
      <point x="231.5" y="446" type="line"/>
      <point x="69.4629" y="451.236" type="line"/>
      <point x="19" y="451" type="line"/>
    </contour>
  </outline>
</glyph>
<glyph name="bullet" format="2">
  <advance width="301"/>
  <unicode hex="2022"/>
  <outline>
    <contour>
      <point x="40" y="242" type="curve" smooth="yes"/>
      <point x="40" y="182"/>
      <point x="90" y="133"/>
      <point x="151" y="133" type="curve" smooth="yes"/>
      <point x="211" y="133"/>
      <point x="261" y="182"/>
      <point x="261" y="242" type="curve" smooth="yes"/>
      <point x="261" y="304"/>
      <point x="211" y="353"/>
      <point x="151" y="353" type="curve" smooth="yes"/>
      <point x="90" y="353"/>
      <point x="40" y="304"/>
    </contour>
  </outline>
</glyph>
<glyph name="uni2023" format="2">
  <advance width="290"/>
  <unicode hex="2023"/>
  <outline>
    <contour>
      <point x="40" y="133" type="line"/>
      <point x="250" y="243" type="line"/>
      <point x="40" y="353" type="line"/>
    </contour>
  </outline>
  <guideline angle="0" x="0" y="245"/>
</glyph>
<glyph name="perthousand" format="2">
  <advance width="1076"/>
  <unicode hex="2030"/>
  <outline>
    <component base="percent"/>
    <contour>
      <point x="763" y="176" type="curve" smooth="yes"/>
      <point x="763" y="47"/>
      <point x="798" y="-14"/>
      <point x="905" y="-14" type="curve" smooth="yes"/>
      <point x="1011" y="-14"/>
      <point x="1046" y="47"/>
      <point x="1046" y="176" type="curve" smooth="yes"/>
      <point x="1046" y="305"/>
      <point x="1010" y="366"/>
      <point x="905" y="366" type="curve" smooth="yes"/>
      <point x="798" y="366"/>
      <point x="763" y="305"/>
    </contour>
    <contour>
      <point x="841" y="176" type="curve" smooth="yes"/>
      <point x="841" y="244"/>
      <point x="841" y="293"/>
      <point x="905" y="293" type="curve" smooth="yes"/>
      <point x="968" y="293"/>
      <point x="968" y="244"/>
      <point x="968" y="176" type="curve" smooth="yes"/>
      <point x="968" y="112"/>
      <point x="964" y="59"/>
      <point x="905" y="59" type="curve" smooth="yes"/>
      <point x="841" y="59"/>
      <point x="841" y="108"/>
    </contour>
  </outline>
</glyph>
<glyph name="pertenthousandsign" format="2">
  <advance width="1406"/>
  <unicode hex="2031"/>
  <outline>
    <component base="perthousand"/>
    <contour>
      <point x="1093" y="176" type="curve" smooth="yes"/>
      <point x="1093" y="47"/>
      <point x="1128" y="-14"/>
      <point x="1235" y="-14" type="curve" smooth="yes"/>
      <point x="1341" y="-14"/>
      <point x="1376" y="47"/>
      <point x="1376" y="176" type="curve" smooth="yes"/>
      <point x="1376" y="305"/>
      <point x="1340" y="366"/>
      <point x="1235" y="366" type="curve" smooth="yes"/>
      <point x="1128" y="366"/>
      <point x="1093" y="305"/>
    </contour>
    <contour>
      <point x="1171" y="176" type="curve" smooth="yes"/>
      <point x="1171" y="244"/>
      <point x="1171" y="293"/>
      <point x="1235" y="293" type="curve" smooth="yes"/>
      <point x="1298" y="293"/>
      <point x="1298" y="244"/>
      <point x="1298" y="176" type="curve" smooth="yes"/>
      <point x="1298" y="112"/>
      <point x="1294" y="59"/>
      <point x="1235" y="59" type="curve" smooth="yes"/>
      <point x="1171" y="59"/>
      <point x="1171" y="108"/>
    </contour>
  </outline>
  <guideline angle="90" x="1046" y="0"/>
  <guideline angle="90" x="1093" y="0"/>
</glyph>
<glyph name="Euro" format="2">
  <advance width="796"/>
  <unicode hex="20AC"/>
  <outline>
    <contour>
      <point x="0" y="220" type="line"/>
      <point x="414" y="220" type="line"/>
      <point x="422" y="294" type="line"/>
      <point x="8" y="294" type="line"/>
    </contour>
    <contour>
      <point x="30" y="382" type="line"/>
      <point x="444" y="382" type="line"/>
      <point x="452" y="456" type="line"/>
      <point x="38" y="456" type="line"/>
    </contour>
    <contour>
      <point x="88" y="340" type="curve" smooth="yes"/>
      <point x="88" y="119"/>
      <point x="228" y="-12"/>
      <point x="428" y="-12" type="curve" smooth="yes"/>
      <point x="590" y="-12"/>
      <point x="707" y="75"/>
      <point x="732" y="187" type="curve"/>
      <point x="633" y="187" type="line"/>
      <point x="609" y="122"/>
      <point x="524" y="78"/>
      <point x="428" y="78" type="curve" smooth="yes"/>
      <point x="284" y="78"/>
      <point x="188" y="172"/>
      <point x="188" y="340" type="curve" smooth="yes"/>
      <point x="188" y="508"/>
      <point x="284" y="602"/>
      <point x="428" y="602" type="curve" smooth="yes"/>
      <point x="551" y="602"/>
      <point x="623" y="537"/>
      <point x="649" y="455" type="curve"/>
      <point x="748" y="455" type="line"/>
      <point x="712" y="597"/>
      <point x="594" y="692"/>
      <point x="428" y="692" type="curve" smooth="yes"/>
      <point x="228" y="692"/>
      <point x="88" y="561"/>
    </contour>
  </outline>
</glyph>
<glyph name="estimated" format="2">
  <advance width="863"/>
  <unicode hex="212E"/>
  <outline>
    <contour>
      <point x="431" y="680" type="curve" smooth="yes"/>
      <point x="219" y="680"/>
      <point x="48" y="524"/>
      <point x="48" y="332" type="curve" smooth="yes"/>
      <point x="48" y="142"/>
      <point x="219" y="-12"/>
      <point x="431" y="-12" type="curve" smooth="yes"/>
      <point x="555" y="-12"/>
      <point x="663" y="40"/>
      <point x="734" y="121" type="curve"/>
      <point x="677" y="121" type="line"/>
      <point x="618" y="52"/>
      <point x="529" y="8"/>
      <point x="431" y="8" type="curve" smooth="yes"/>
      <point x="345" y="8"/>
      <point x="266" y="42"/>
      <point x="208" y="96" type="curve"/>
      <point x="196" y="108"/>
      <point x="188" y="124"/>
      <point x="188" y="143" type="curve" smooth="yes"/>
      <point x="188" y="311" type="line" smooth="yes"/>
      <point x="188" y="317"/>
      <point x="192" y="321"/>
      <point x="198" y="321" type="curve" smooth="yes"/>
      <point x="815" y="321" type="line"/>
      <point x="815" y="332" type="line" smooth="yes"/>
      <point x="815" y="524"/>
      <point x="643" y="680"/>
    </contour>
    <contour>
      <point x="431" y="660" type="curve" smooth="yes"/>
      <point x="518" y="660"/>
      <point x="597" y="626"/>
      <point x="655" y="571" type="curve"/>
      <point x="667" y="559"/>
      <point x="675" y="543"/>
      <point x="675" y="524" type="curve" smooth="yes"/>
      <point x="675" y="351" type="line" smooth="yes"/>
      <point x="675" y="346"/>
      <point x="671" y="341"/>
      <point x="665" y="341" type="curve" smooth="yes"/>
      <point x="198" y="341" type="line" smooth="yes"/>
      <point x="192" y="341"/>
      <point x="188" y="346"/>
      <point x="188" y="351" type="curve" smooth="yes"/>
      <point x="188" y="524" type="line" smooth="yes"/>
      <point x="188" y="543"/>
      <point x="196" y="559"/>
      <point x="208" y="571" type="curve"/>
      <point x="266" y="626"/>
      <point x="345" y="660"/>
    </contour>
  </outline>
</glyph>
<glyph name="f_f" format="2">
  <advance width="596"/>
  <unicode hex="FB00"/>
  <outline>
    <contour>
      <point x="100" y="0" type="line"/>
      <point x="192" y="0" type="line"/>
      <point x="192" y="500" type="line" smooth="yes"/>
      <point x="192" y="599"/>
      <point x="210" y="628"/>
      <point x="306" y="628" type="curve" smooth="yes"/>
      <point x="576" y="628" type="line"/>
      <point x="576" y="700" type="line"/>
      <point x="306" y="700" type="line" smooth="yes"/>
      <point x="127" y="700"/>
      <point x="100" y="642"/>
      <point x="100" y="500" type="curve" smooth="yes"/>
    </contour>
    <contour>
      <point x="6" y="380" type="line"/>
      <point x="561" y="380" type="line"/>
      <point x="561" y="460" type="line"/>
      <point x="6" y="460" type="line"/>
    </contour>
    <contour>
      <point x="364" y="0" type="line"/>
      <point x="456" y="0" type="line"/>
      <point x="456" y="500" type="line" smooth="yes"/>
      <point x="456" y="599"/>
      <point x="474" y="628"/>
      <point x="570" y="628" type="curve" smooth="yes"/>
      <point x="581" y="628" type="line"/>
      <point x="581" y="700" type="line"/>
      <point x="570" y="700" type="line" smooth="yes"/>
      <point x="391" y="700"/>
      <point x="364" y="642"/>
      <point x="364" y="500" type="curve" smooth="yes"/>
    </contour>
  </outline>
</glyph>
<glyph name="uniFB02" format="2">
  <advance width="522"/>
  <unicode hex="FB02"/>
  <outline>
    <contour>
      <point x="100" y="0" type="line"/>
      <point x="192" y="0" type="line"/>
      <point x="192" y="500" type="line" smooth="yes"/>
      <point x="192" y="599"/>
      <point x="210" y="628"/>
      <point x="306" y="628" type="curve" smooth="yes"/>
      <point x="402" y="628" type="line"/>
      <point x="402" y="700" type="line"/>
      <point x="306" y="700" type="line" smooth="yes"/>
      <point x="127" y="700"/>
      <point x="100" y="642"/>
      <point x="100" y="500" type="curve" smooth="yes"/>
    </contour>
    <contour>
      <point x="364" y="0" type="line"/>
      <point x="456" y="0" type="line"/>
      <point x="456" y="700" type="line"/>
      <point x="364" y="700" type="line"/>
    </contour>
    <contour>
      <point x="6" y="381" type="line"/>
      <point x="297" y="381" type="line"/>
      <point x="297" y="461" type="line"/>
      <point x="6" y="461" type="line"/>
    </contour>
  </outline>
</glyph>
<glyph name="f_f_i" format="2">
  <advance width="798"/>
  <unicode hex="FB03"/>
  <outline>
    <contour>
      <point x="628" y="0" type="line"/>
      <point x="720" y="0" type="line"/>
      <point x="720" y="460" type="line"/>
      <point x="628" y="460" type="line"/>
    </contour>
    <contour>
      <point x="100" y="0" type="line"/>
      <point x="192" y="0" type="line"/>
      <point x="192" y="500" type="line" smooth="yes"/>
      <point x="192" y="599"/>
      <point x="210" y="628"/>
      <point x="306" y="628" type="curve" smooth="yes"/>
      <point x="576" y="628" type="line"/>
      <point x="576" y="700" type="line"/>
      <point x="306" y="700" type="line" smooth="yes"/>
      <point x="127" y="700"/>
      <point x="100" y="642"/>
      <point x="100" y="500" type="curve" smooth="yes"/>
    </contour>
    <contour>
      <point x="6" y="380" type="line"/>
      <point x="670" y="380" type="line"/>
      <point x="670" y="460" type="line"/>
      <point x="6" y="460" type="line"/>
    </contour>
    <contour>
      <point x="364" y="0" type="line"/>
      <point x="456" y="0" type="line"/>
      <point x="456" y="500" type="line" smooth="yes"/>
      <point x="456" y="599"/>
      <point x="474" y="628"/>
      <point x="570" y="628" type="curve" smooth="yes"/>
      <point x="641" y="628" type="line"/>
      <point x="641" y="700" type="line"/>
      <point x="570" y="700" type="line" smooth="yes"/>
      <point x="391" y="700"/>
      <point x="364" y="642"/>
      <point x="364" y="500" type="curve" smooth="yes"/>
    </contour>
  </outline>
</glyph>
<glyph name="longs_t" format="2">
  <advance width="596"/>
  <unicode hex="FB05"/>
  <outline>
    <contour>
      <point x="100" y="0" type="line"/>
      <point x="192" y="0" type="line"/>
      <point x="192" y="500" type="line" smooth="yes"/>
      <point x="192" y="599"/>
      <point x="210" y="628"/>
      <point x="306" y="628" type="curve" smooth="yes"/>
      <point x="422" y="628" type="line"/>
      <point x="422" y="700" type="line"/>
      <point x="306" y="700" type="line" smooth="yes"/>
      <point x="127" y="700"/>
      <point x="100" y="642"/>
      <point x="100" y="500" type="curve" smooth="yes"/>
    </contour>
    <contour>
      <point x="6" y="380" type="line"/>
      <point x="135" y="380" type="line"/>
      <point x="135" y="460" type="line"/>
      <point x="6" y="460" type="line"/>
    </contour>
    <contour>
      <point x="270" y="380" type="line"/>
      <point x="561" y="380" type="line"/>
      <point x="561" y="460" type="line"/>
      <point x="364" y="460" type="line"/>
      <point x="270" y="442" type="line"/>
    </contour>
    <contour>
      <point x="364" y="180" type="line" smooth="yes"/>
      <point x="364" y="44"/>
      <point x="392" y="-9"/>
      <point x="540" y="-9" type="curve" smooth="yes"/>
      <point x="570" y="-9" type="line"/>
      <point x="570" y="63" type="line"/>
      <point x="539" y="63" type="line" smooth="yes"/>
      <point x="472" y="63"/>
      <point x="456" y="90"/>
      <point x="456" y="188" type="curve" smooth="yes"/>
      <point x="456" y="700" type="line"/>
      <point x="389" y="700" type="line"/>
      <point x="371" y="453" type="line"/>
      <point x="364" y="453" type="line"/>
    </contour>
  </outline>
</glyph>
